<svg xmlns="http://www.w3.org/2000/svg" id="Layer_1" data-name="Layer 1" viewBox="0 0 65.78 110"><defs><style>      #Layer_1 {        height: 110px;      }      .cls-1, .cls-2, .cls-3, .cls-4, .cls-5 {        fill: #2b2c7c;      }      .cls-6 {        fill: #fdb515;      }      .cls-2 {        font-size: 44.99px;      }      .cls-2, .cls-3, .cls-4, .cls-7, .cls-5 {        isolation: isolate;      }      .cls-2, .cls-3, .cls-4, .cls-5 {        font-family: ArialMT, Arial;      }      .cls-3 {        font-size: 6.7px;      }      .cls-4 {        letter-spacing: -.06em;      }      .cls-4, .cls-5 {        font-size: 4.77px;      }    </style></defs><path class="cls-6" d="M65.78,9.92v95.76c0,.39-.05.78-.15,1.15-.4,1.45-1.55,2.63-3,3.04-.93.27-1.77.07-2.71-.11-1.09-.21-2.17-.44-3.26-.65-2.36-.46-4.73-.93-7.09-1.39-2.58-.51-5.16-1.01-7.73-1.52-2.07-.41-4.15-.82-6.22-1.22-.85-.17-1.7-.33-2.55-.5l-.18.04-.18-.04c-.85.17-1.7.33-2.55.5-2.07.41-4.15.81-6.22,1.22-2.58.51-5.16,1.01-7.73,1.52-2.36.46-4.73.93-7.09,1.39-1.09.21-2.17.45-3.26.65-.93.18-1.77.38-2.71.11-1.45-.42-2.6-1.59-3-3.04-.1-.37-.15-.76-.15-1.15V9.92c0-2.41,1.91-3.92,4.36-4.42L32.88,0l28.54,5.49c2.45.5,4.36,2.01,4.36,4.42h0Z"></path><path class="cls-1" d="M59.54,57.07h.31v-.56l.19.35h.21l.18-.35v.56h.32v-1.16h-.33l-.27.57-.28-.57h-.33v1.16h0ZM58.78,57.07h.32v-.87h.28v-.29h-.9v.29h.29v.87h.01Z"></path><path class="cls-1" d="M9.34,70.35h.95l1.03-3.61c.1-.36.19-.78.19-.78h.02s.07.41.16.78l.97,3.6h.94l1.25-4.83c.04-.15.13-.18.27-.18h.12v-.69h-.46c-.4,0-.6.08-.69.47l-.9,3.67c-.07.31-.11.61-.11.61h-.02s-.04-.29-.12-.61l-1.07-4.12h-.73l-1.15,4.12c-.09.32-.14.61-.14.61h-.02s-.04-.3-.11-.61l-.88-3.67c-.1-.39-.3-.47-.7-.47h-.46v.69h.12c.15,0,.23.03.27.18l1.25,4.83h.02Z"></path><path class="cls-1" d="M16.1,67.45c0-1.22.93-2.16,2.08-2.16s2.09.94,2.09,2.16-.94,2.23-2.09,2.23-2.08-.97-2.08-2.23ZM15.26,67.45c0,1.68,1.28,2.99,2.92,2.99s2.93-1.31,2.93-2.99-1.28-2.91-2.93-2.91-2.92,1.27-2.92,2.91h0Z"></path><path class="cls-1" d="M22.46,67.39v-2.04h1.07c.6,0,.96.37.96,1.01s-.36,1.03-.98,1.03h-1.05ZM21.65,70.35h.81v-2.27h.74c.32,0,.42.04.57.31l.78,1.54c.19.37.35.43.79.43h.4v-.69h-.11c-.19,0-.32-.02-.4-.19l-.69-1.37c-.1-.19-.24-.26-.24-.26v-.02c.4-.09,1.03-.56,1.03-1.51,0-1.04-.7-1.67-1.7-1.67h-2.49v.69h.52v5.01h-.01Z"></path><path class="cls-1" d="M26.3,70.35h.81v-2.62h.49c.23,0,.41.02.51.21l.99,1.98c.19.37.35.43.79.43h.44v-.69h-.15c-.19,0-.32-.02-.4-.19l-.86-1.71c-.16-.32-.32-.36-.32-.36v-.02s.16-.09.32-.37l1.38-2.37h-.9l-1.27,2.21c-.1.16-.26.19-.47.19h-.54v-1.88c0-.36-.15-.52-.52-.52h-.82v.69h.35c.11,0,.18.06.18.18v4.83h-.01Z"></path><path class="cls-1" d="M32.02,67.55v-2.21h1.06c.66,0,1.07.4,1.07,1.09s-.41,1.12-1.08,1.12h-1.05ZM31.22,70.35h.81v-2.11h1.18c1.04,0,1.78-.73,1.78-1.81s-.74-1.79-1.78-1.79h-2.51v.69h.52v5.01h0Z"></path><path class="cls-1" d="M35.88,69.83c0,.36.15.52.52.52h2.44c.36,0,.52-.15.52-.52v-.72h-.74v.36c0,.11-.06.18-.18.18h-1.58c-.11,0-.18-.06-.18-.18v-4.31c0-.36-.15-.52-.52-.52h-.82v.69h.35c.11,0,.18.06.18.18v4.31h.01Z"></path><path class="cls-1" d="M41.45,68.01l.62-1.74c.1-.3.22-.8.22-.8h.02s.12.5.23.8l.62,1.74h-1.71ZM39.71,70.33h.44c.4,0,.53-.1.67-.47l.43-1.17h2.1l.43,1.17c.13.37.26.47.66.47h.45v-.69h-.12c-.14,0-.22-.03-.27-.18l-1.79-4.83h-.85l-1.78,4.83c-.05.15-.12.18-.27.18h-.11v.69h.01Z"></path><path class="cls-1" d="M44.91,67.49c0,1.68,1.19,3,2.89,3,1.44,0,2.25-.95,2.25-.95l-.44-.58s-.67.78-1.8.78-2.06-.99-2.06-2.24.89-2.15,2.04-2.15c.57,0,1.38.24,1.38.72v.32h.74v-.56c0-.91-1.37-1.24-2.14-1.24-1.63,0-2.86,1.25-2.86,2.9"></path><path class="cls-1" d="M50.81,69.84c0,.36.15.52.52.52h2.54c.36,0,.52-.15.52-.52v-.72h-.74v.36c0,.11-.06.18-.18.18h-1.66c-.11,0-.18-.07-.18-.18v-1.66h2v-.69h-2v-1.78h1.62c.11,0,.18.06.18.18v.36h.74v-.72c0-.36-.15-.52-.52-.52h-3.35v.69h.52v4.49h-.01Z"></path><path class="cls-1" d="M54.75,69.6s.68.85,1.89.85c1.13,0,1.81-.75,1.81-1.62,0-1.87-2.75-1.62-2.75-2.77,0-.43.39-.77,1-.77.45,0,.88.22.88.52v.27h.74v-.47c0-.78-1.02-1.05-1.62-1.05-1.07,0-1.83.67-1.83,1.53,0,1.78,2.75,1.59,2.75,2.79,0,.53-.44.85-.98.85-.85,0-1.43-.69-1.43-.69l-.48.57h.02Z"></path><polygon class="cls-1" points="7.69 63.09 10.86 63.09 10.86 61.58 10.11 61.58 10.11 57.42 10.86 57.42 10.86 55.91 7.69 55.91 7.69 57.42 8.43 57.42 8.43 61.58 7.69 61.58 7.69 63.09"></polygon><path class="cls-1" d="M11.32,63.09h1.7c.51,0,.73-.22.73-.73v-2.34c0-.45-.08-1.07-.08-1.07h.02s.3.62.6,1.07l1.98,3.07h1.59v-5.45c0-.14.08-.22.22-.22h.43v-1.5h-1.7c-.51,0-.73.22-.73.73v2.35c0,.45.08,1.07.08,1.07h-.02s-.3-.61-.6-1.07l-1.97-3.08h-1.6v5.45c0,.14-.08.22-.22.22h-.43v1.5h0Z"></path><path class="cls-1" d="M18.83,62.03s.92,1.18,2.59,1.18,2.52-1.02,2.52-2.22c0-2.36-3.22-2.24-3.22-3.11,0-.33.37-.48.73-.48.33,0,.7.16.7.42v.31h1.59v-.78c0-1.09-1.32-1.56-2.27-1.56-1.41,0-2.53.86-2.53,2.16,0,2.25,3.22,2.34,3.22,3.13,0,.4-.36.53-.72.53-.89,0-1.63-.84-1.63-.84l-.98,1.25h0Z"></path><path class="cls-1" d="M26.63,59.37v-1.95h.7c.55,0,.82.39.82.96s-.28.98-.85.98h-.67ZM24.85,63.09h1.78v-2.22h1.02c1.38,0,2.32-1.04,2.32-2.49s-.93-2.47-2.32-2.47h-3.45v1.5h.65v5.67h0Z"></path><polygon class="cls-1" points="30.21 63.09 33.39 63.09 33.39 61.58 32.64 61.58 32.64 57.42 33.39 57.42 33.39 55.91 30.21 55.91 30.21 57.42 30.96 57.42 30.96 61.58 30.21 61.58 30.21 63.09"></polygon><path class="cls-1" d="M36.27,59.17v-1.75h.65c.5,0,.78.29.78.86s-.28.88-.8.88h-.63ZM34.5,63.09h1.78v-2.42h.24c.37,0,.52.05.64.27l.84,1.62c.23.44.51.53,1,.53h.97v-1.5h-.12c-.2,0-.38-.02-.49-.23l-.45-.86c-.16-.31-.44-.43-.44-.43v-.02s1.04-.43,1.04-1.87-.96-2.26-2.35-2.26h-3.32v1.5h.65v5.67h0Z"></path><polygon class="cls-1" points="40.41 63.09 43.58 63.09 43.58 61.58 42.84 61.58 42.84 57.42 43.58 57.42 43.58 55.91 40.41 55.91 40.41 57.42 41.16 57.42 41.16 61.58 40.41 61.58 40.41 63.09"></polygon><path class="cls-1" d="M44.05,63.09h1.7c.51,0,.73-.22.73-.73v-2.34c0-.45-.08-1.07-.08-1.07h.02s.3.62.6,1.07l1.98,3.07h1.59v-5.45c0-.14.08-.22.22-.22h.43v-1.5h-1.7c-.51,0-.73.22-.73.73v2.35c0,.45.08,1.07.08,1.07h-.02s-.3-.61-.6-1.07l-1.97-3.08h-1.6v5.45c0,.14-.08.22-.22.22h-.43v1.5h0Z"></path><path class="cls-1" d="M51.26,59.44c0,2.45,1.65,3.77,3.44,3.77,1.21,0,1.92-.62,1.92-.62h.02v.5h1.49v-3.32c0-.51-.22-.73-.73-.73h-1.5v1.5h.43c.14,0,.22.08.22.22v.27s-.54.52-1.47.52c-1.01,0-1.96-.71-1.96-2.13,0-1.25.92-2,1.87-2s1.64.57,1.64.57l.99-1.27s-.85-.93-2.67-.93c-2.12,0-3.68,1.59-3.68,3.64"></path><rect class="cls-1" x="7.69" y="52.57" width="50.42" height=".5"></rect><rect class="cls-1" x="7.69" y="73.21" width="50.42" height=".5"></rect><rect class="cls-1" x="7.69" y="83.45" width="50.42" height=".5"></rect><rect class="cls-1" x="7.69" y="13.88" width="16.15" height=".45"></rect><rect class="cls-1" x="41.98" y="13.88" width="16.15" height=".45"></rect><path class="cls-1" d="M37.57,14v-1.31h.47c.37,0,.56.26.56.65s-.19.66-.58.66h-.45ZM36.36,16.51h1.21v-1.5h.7c.94,0,1.58-.7,1.58-1.68s-.64-1.67-1.58-1.67h-2.35v1.02h.44v3.82h0ZM31.76,14.06c0-.77.57-1.35,1.27-1.35s1.27.58,1.27,1.35-.57,1.41-1.27,1.41-1.27-.61-1.27-1.41ZM30.51,14.06c0,1.42,1.07,2.53,2.53,2.53s2.53-1.11,2.53-2.53-1.07-2.47-2.53-2.47-2.53,1.08-2.53,2.47h0ZM27.57,16.51h1.21v-3.82h.39c.1,0,.15.05.15.15v.26h1.05v-.96c0-.35-.12-.47-.47-.47h-3.46c-.35,0-.47.12-.47.47v.96h1.05v-.26c0-.1.05-.15.15-.15h.39v3.82h.01Z"></path><g class="cls-7"><g class="cls-7"><text class="cls-3" transform="translate(18.75 80.83)"><tspan x="0" y="0">WINNER</tspan></text></g></g><g class="cls-7"><g class="cls-7"><text class="cls-5" transform="translate(27.21 92.64)"><tspan x="0" y="0">2</tspan></text></g><g class="cls-7"><text class="cls-5" transform="translate(29.95 92.64)"><tspan x="0" y="0">0</tspan></text></g><g class="cls-7"><text class="cls-5" transform="translate(32.81 92.64)"><tspan x="0" y="0">2</tspan></text></g><g class="cls-7"><text class="cls-5" transform="translate(35.54 92.64)"><tspan x="0" y="0">5</tspan></text></g></g><g class="cls-7"><g class="cls-7"><text class="cls-4" transform="translate(27.36 98.71)"><tspan x="0" y="0">A</tspan></text></g><g class="cls-7"><text class="cls-5" transform="translate(30.6 98.71)"><tspan x="0" y="0">S</tspan></text></g><g class="cls-7"><text class="cls-5" transform="translate(33.28 98.71)"><tspan x="0" y="0">I</tspan></text></g><g class="cls-7"><text class="cls-4" transform="translate(35.04 98.71)"><tspan x="0" y="0">A</tspan></text></g></g><g class="cls-7"><g class="cls-7"><text class="cls-2" transform="translate(7.66 50.4)"><tspan x="0" y="0">1</tspan></text></g></g><g class="cls-7"><g class="cls-7"><text class="cls-2" transform="translate(32.12 50.58)"><tspan x="0" y="0">0</tspan></text></g></g></svg>