<svg xmlns="http://www.w3.org/2000/svg" width="105" height="97" viewBox="0 0 105 97" fill="none"><path d="M7.27098 24.2505L51.5887 0L95.9064 23.974V72.7516L51.3091 97L7.14062 72.3358V24.2505" fill="#D2AE73"></path><path d="M11.9927 26.8391L51.5797 5.17871L91.1646 26.5938V70.162L51.3295 91.8224L11.875 69.792V26.8391" fill="white"></path><path d="M100.282 39.7178H2.76562V57.281H100.282V39.7178Z" fill="#17313B"></path><path d="M3.03627 57.2842H7.13836V60.2422L3.3117 57.6313L2.80078 57.2863C2.80078 57.2842 3.06991 57.2842 3.03627 57.2842Z" fill="#1E414C"></path><path d="M100.118 57.2773H95.9023V60.3165L99.8362 57.6328L100.362 57.2773C100.362 57.2773 100.084 57.2773 100.118 57.2773Z" fill="#1E414C"></path><path d="M44.6211 15.3447H47.2724V15.9912H46.3557V21.4333H45.5483V15.9912H44.6211V15.3447Z" fill="#17313B"></path><path d="M49.0625 19.9136V16.8621C49.0625 15.9641 49.5082 15.2822 50.5511 15.2822C51.6045 15.2822 52.0502 15.9641 52.0502 16.8621V19.9136C52.0502 20.8033 51.6045 21.4935 50.5511 21.4935C49.5061 21.4956 49.0625 20.8033 49.0625 19.9136ZM51.2513 20.0321V16.7457C51.2513 16.2883 51.0515 15.937 50.5511 15.937C50.0696 15.937 49.8615 16.2863 49.8615 16.7457V20.0321C49.8615 20.4895 50.0696 20.8408 50.5511 20.8408C51.0515 20.8387 51.2513 20.4895 51.2513 20.0321Z" fill="#17313B"></path><path d="M54.1445 15.3447H55.5427C56.5141 15.3447 56.8779 15.8124 56.8779 16.6107V18.0201C56.8779 18.81 56.5141 19.3047 55.5427 19.3047H54.9435V21.4333H54.1445V15.3447ZM54.9456 15.9912V18.6853H55.4544C55.8812 18.6853 56.0894 18.4795 56.0894 18.0741V16.5837C56.0894 16.1887 55.8812 15.9912 55.4544 15.9912H54.9456Z" fill="#17313B"></path><path d="M24.6875 26.7412H26.0415C27.0129 26.7412 27.3493 27.1715 27.3493 27.9885V28.7077C27.3493 29.2107 27.158 29.533 26.7228 29.6681C27.2505 29.7658 27.5133 30.0984 27.5133 30.6638V31.5805C27.5133 32.3974 27.1223 32.8277 26.1698 32.8277H24.6896V26.7412H24.6875ZM25.4865 27.3877V29.3895H25.9764C26.3843 29.3895 26.5945 29.192 26.5945 28.7888V27.9801C26.5945 27.5852 26.3864 27.3877 25.9595 27.3877H25.4865ZM26.0773 32.1813C26.5041 32.1813 26.7228 31.9838 26.7228 31.5888V30.5827C26.7228 30.1961 26.5314 29.9986 26.0689 29.9986H25.4886V32.1813H26.0773Z" fill="#17313B"></path><path d="M29.5117 31.7697C29.5117 31.1419 29.7304 30.7823 30.2665 30.1981L30.8847 29.5433C31.2379 29.1671 31.3473 28.9052 31.3473 28.4291V27.9094C31.3473 27.4521 31.1202 27.317 30.8195 27.317C30.502 27.317 30.2749 27.4791 30.2749 27.9448V28.6807H29.5306V27.9614C29.5306 27.1258 29.9932 26.6768 30.8384 26.6768C31.7005 26.6768 32.1273 27.0904 32.1273 27.9074V28.4915C32.1273 29.0569 31.9738 29.4352 31.465 29.9819L30.7648 30.7178C30.4558 31.0504 30.2749 31.2396 30.2749 31.7676V32.1812H32.0916V32.8277H29.5117V31.7697Z" fill="#17313B"></path><path d="M34.2109 26.7412H35.565C36.5364 26.7412 36.8728 27.1715 36.8728 27.9885V28.7077C36.8728 29.2107 36.6814 29.533 36.2462 29.6681C36.7719 29.7658 37.0368 30.0984 37.0368 30.6638V31.5805C37.0368 32.3974 36.6457 32.8277 35.6932 32.8277H34.213V26.7412H34.2109ZM35.0099 27.3877V29.3895H35.4998C35.9077 29.3895 36.118 29.192 36.118 28.7888V27.9801C36.118 27.5852 35.9098 27.3877 35.483 27.3877H35.0099ZM35.6007 32.1813C36.0275 32.1813 36.2462 31.9838 36.2462 31.5888V30.5827C36.2462 30.1961 36.0549 29.9986 35.5923 29.9986H35.012V32.1813H35.6007Z" fill="#17313B"></path><path d="M40.8281 31.071V28.0173C40.8281 27.1193 41.2465 26.4375 42.2999 26.4375C43.389 26.4375 43.6813 27.0383 43.6813 27.9009V28.6202H42.937V27.849C42.937 27.3729 42.8087 27.0944 42.3104 27.0944C41.81 27.0944 41.6292 27.4436 41.6292 27.903V31.1895C41.6292 31.6468 41.81 31.9981 42.3104 31.9981C42.8108 31.9981 42.9454 31.7009 42.9454 31.2435V30.148H43.6813V31.1895C43.6813 32.0251 43.3554 32.6529 42.2999 32.6529C41.2465 32.6508 40.8281 31.9607 40.8281 31.071Z" fill="#17313B"></path><path d="M45.5625 31.071V28.0173C45.5625 27.1193 46.0082 26.4375 47.0511 26.4375C48.1045 26.4375 48.5502 27.1193 48.5502 28.0173V31.071C48.5502 31.9607 48.1045 32.6508 47.0511 32.6508C46.0061 32.6508 45.5625 31.9607 45.5625 31.071ZM47.7513 31.1874V27.9009C47.7513 27.4436 47.5515 27.0923 47.0511 27.0923C46.5696 27.0923 46.3615 27.4415 46.3615 27.9009V31.1874C46.3615 31.6447 46.5696 31.996 47.0511 31.996C47.5515 31.996 47.7513 31.6447 47.7513 31.1874Z" fill="#17313B"></path><path d="M53.3147 28.1256H53.2874L52.4337 32.5886H52.0343L51.1449 28.1256H51.1259V32.5886H50.4531V26.5H51.435L52.234 30.514H52.2424L52.9972 26.5H54.0695V32.5886H53.3168V28.1256H53.3147Z" fill="#17313B"></path><path d="M55.9805 26.4998H57.3787C58.3501 26.4998 58.7138 26.9675 58.7138 27.7657V29.1751C58.7138 29.965 58.3501 30.4597 57.3787 30.4597H56.7794V32.5884H55.9805V26.4998ZM56.7794 27.1462V29.8403H57.2883C57.7151 29.8403 57.9232 29.6345 57.9232 29.2291V27.7387C57.9232 27.3437 57.7151 27.1462 57.2883 27.1462H56.7794Z" fill="#17313B"></path><path d="M60.0352 32.5884L61.2252 26.4998H62.1608L63.3593 32.5884H62.5414L62.3059 31.3141H61.0255L60.7984 32.5884H60.0352ZM61.1432 30.6676H62.1882L61.6709 27.8031H61.6625L61.1432 30.6676Z" fill="#17313B"></path><path d="M65.7828 28.2524V32.5886H65.1016V26.5H65.9005L67.2441 30.5681V26.5H67.9253V32.5886H67.2083L65.7828 28.2524Z" fill="#17313B"></path><path d="M69.8359 26.5H70.6349V32.5886H69.8359V26.5Z" fill="#17313B"></path><path d="M72.5547 26.4998H74.9264V27.1462H73.3558V29.1751H74.4911V29.8133H73.3558V31.9419H74.9264V32.5884H72.5547V26.4998Z" fill="#17313B"></path><path d="M76.6406 31.3308V30.4599H77.3933V31.3496C77.3933 31.7715 77.5847 32.0147 78.0472 32.0147C78.4741 32.0147 78.6654 31.7362 78.6654 31.3496V31.071C78.6654 30.6677 78.5203 30.4432 78.1292 30.0836L77.5111 29.4828C76.9308 28.9091 76.6574 28.5848 76.6574 27.9113V27.6951C76.6574 26.9509 77.1116 26.4375 78.0199 26.4375C78.9745 26.4375 79.3824 26.8948 79.3824 27.7305V28.3042H78.6465V27.7035C78.6465 27.2815 78.4383 27.0757 78.0283 27.0757C77.6562 27.0757 77.4102 27.2815 77.4102 27.6868V27.8573C77.4102 28.2439 77.6288 28.4767 77.9821 28.8093L78.6275 29.4371C79.1805 29.9838 79.4538 30.3268 79.4538 30.9899V31.3038C79.4538 32.0667 79.0186 32.6508 78.0367 32.6508C77.059 32.6508 76.6406 32.1124 76.6406 31.3308Z" fill="#17313B"></path><path d="M40.68 64.8154H42.0614V67.9937H41.4537V67.393C41.3171 67.7796 41.0543 68.0582 40.4719 68.0582C39.5635 68.0582 39.1641 67.366 39.1641 66.4783V63.4226C39.1641 62.5246 39.6098 61.8428 40.6443 61.8428C41.7334 61.8428 42.0614 62.4435 42.0614 63.3062V63.8446H41.3171V63.2522C41.3171 62.7761 41.172 62.4976 40.6632 62.4976C40.1628 62.4976 39.963 62.8468 39.963 63.3062V66.5927C39.963 67.05 40.1544 67.4013 40.6359 67.4013C41.0984 67.4013 41.2982 67.1144 41.2982 66.6384V65.4431H40.68V64.8154Z" fill="#17313B"></path><path d="M43.7031 61.9053H44.5021V67.3474H45.873V67.9939H43.7031V61.9053Z" fill="#17313B"></path><path d="M47.2656 66.4763V63.4226C47.2656 62.5246 47.7114 61.8428 48.7542 61.8428C49.8076 61.8428 50.2534 62.5246 50.2534 63.4226V66.4763C50.2534 67.366 49.8076 68.0561 48.7542 68.0561C47.7114 68.0561 47.2656 67.3639 47.2656 66.4763ZM49.4544 66.5927V63.3062C49.4544 62.8489 49.2546 62.4976 48.7542 62.4976C48.2728 62.4976 48.0646 62.8468 48.0646 63.3062V66.5927C48.0646 67.05 48.2728 67.4013 48.7542 67.4013C49.2546 67.4013 49.4544 67.05 49.4544 66.5927Z" fill="#17313B"></path><path d="M51.8672 61.9053H53.2212C54.1926 61.9053 54.529 62.3356 54.529 63.1525V63.8718C54.529 64.3748 54.3377 64.697 53.9025 64.8321C54.4302 64.9319 54.693 65.2624 54.693 65.8299V66.7466C54.693 67.5636 54.3019 67.9939 53.3495 67.9939H51.8693V61.9053H51.8672ZM52.6662 62.5518V64.5536H53.1561C53.564 64.5536 53.7742 64.3561 53.7742 63.9528V63.1442C53.7742 62.7492 53.5661 62.5518 53.1392 62.5518H52.6662ZM53.257 67.3474C53.6838 67.3474 53.9025 67.1499 53.9025 66.755V65.7489C53.9025 65.3622 53.7111 65.1647 53.2486 65.1647H52.6683V67.3474H53.257Z" fill="#17313B"></path><path d="M56.0195 67.9939L57.2096 61.9053H58.1452L59.3437 67.9939H58.5258L58.2903 66.7196H57.0098L56.7828 67.9939H56.0195ZM57.1276 66.0711H58.1725L57.6553 63.2066H57.6469L57.1276 66.0711Z" fill="#17313B"></path><path d="M60.7969 61.9053H61.5958V67.3474H62.9667V67.9939H60.7969V61.9053Z" fill="#17313B"></path><path d="M43.3711 79.8068C43.3711 79.179 43.5898 78.8194 44.1238 78.2352L44.742 77.5804C45.0952 77.2042 45.2045 76.9423 45.2045 76.4662V75.9466C45.2045 75.4892 44.9774 75.3541 44.6789 75.3541C44.3614 75.3541 44.1343 75.5163 44.1343 75.9819V76.7178H43.39V75.9985C43.39 75.1629 43.8526 74.7139 44.6978 74.7139C45.5599 74.7139 45.9867 75.1275 45.9867 75.9445V76.5286C45.9867 77.094 45.8332 77.4723 45.3244 78.0191L44.6242 78.7549C44.3151 79.0875 44.1343 79.2767 44.1343 79.8047V80.2184H45.9509V80.8648H43.3711V79.8068Z" fill="#17313B"></path><path d="M47.5781 79.3493V76.2957C47.5781 75.3976 48.0407 74.7158 49.0415 74.7158C50.0423 74.7158 50.5049 75.3976 50.5049 76.2957V79.3493C50.5049 80.2473 50.0423 80.9292 49.0415 80.9292C48.0407 80.9292 47.5781 80.2473 47.5781 79.3493ZM49.7038 79.4761V76.1709C49.7038 75.7136 49.5041 75.3727 49.0415 75.3727C48.5789 75.3727 48.3792 75.7136 48.3792 76.1709V79.4761C48.3792 79.9334 48.5789 80.2744 49.0415 80.2744C49.5041 80.2744 49.7038 79.9334 49.7038 79.4761Z" fill="#17313B"></path><path d="M52.0781 79.8068C52.0781 79.179 52.2968 78.8194 52.8329 78.2352L53.4511 77.5804C53.8043 77.2042 53.9137 76.9423 53.9137 76.4662V75.9466C53.9137 75.4892 53.6866 75.3541 53.3859 75.3541C53.0684 75.3541 52.8414 75.5163 52.8414 75.9819V76.7178H52.097V75.9985C52.097 75.1629 52.5596 74.7139 53.4048 74.7139C54.2669 74.7139 54.6937 75.1275 54.6937 75.9445V76.5286C54.6937 77.094 54.5402 77.4723 54.0314 78.0191L53.3313 78.7549C53.0222 79.0875 52.8414 79.2767 52.8414 79.8047V80.2184H54.658V80.8648H52.0781V79.8068Z" fill="#17313B"></path><path d="M56.2227 79.8068C56.2227 79.179 56.4413 78.8194 56.9754 78.2352L57.5935 77.5804C57.9468 77.2042 58.0561 76.9423 58.0561 76.4662V75.9466C58.0561 75.4892 57.829 75.3541 57.5304 75.3541C57.213 75.3541 56.9859 75.5163 56.9859 75.9819V76.7178H56.2416V75.9985C56.2416 75.1629 56.7041 74.7139 57.5494 74.7139C58.4114 74.7139 58.8382 75.1275 58.8382 75.9445V76.5286C58.8382 77.094 58.6848 77.4723 58.1759 78.0191L57.4758 78.7549C57.1667 79.0875 56.9859 79.2767 56.9859 79.8047V80.2184H58.8025V80.8648H56.2227V79.8068Z" fill="#17313B"></path><path d="M44.1736 43.292H42.4844V53.7303H44.1736V43.292Z" fill="white"></path><path d="M50.0866 50.4015C50.1034 50.634 50.0692 50.8673 49.9863 51.0855C49.9034 51.3037 49.7738 51.5017 49.6064 51.6658C49.439 51.8299 49.2377 51.9563 49.0163 52.0364C48.7948 52.1164 48.5586 52.1483 48.3235 52.1297C47.3137 52.1297 47.1317 51.1949 47.1317 50.6316V46.6309H45.4409V50.6175C45.4211 51.0463 45.4874 51.4748 45.6359 51.8782C45.7844 52.2816 46.0122 52.6519 46.3062 52.9678C46.8496 53.4672 47.5701 53.7347 48.3116 53.7125C48.9486 53.7271 49.5727 53.5338 50.0874 53.1627V53.733H51.7766V46.6309H50.0866V50.4015Z" fill="white"></path><path d="M55.1518 44.126H53.4626V46.6311H52.1953V48.3011H53.4626V53.7293H55.1518V48.3011H56.4191V46.6311H55.1518V44.126Z" fill="white"></path><path d="M61.7444 51.6087C61.3622 51.9426 60.8679 52.1238 60.3579 52.117C60.0873 52.125 59.8178 52.078 59.5663 51.979C59.3147 51.88 59.0864 51.731 58.8954 51.5412C58.7044 51.3515 58.5548 51.1251 58.4558 50.8759C58.3568 50.6267 58.3105 50.3601 58.3199 50.0926C58.309 49.8264 58.3545 49.5608 58.4534 49.3129C58.5523 49.065 58.7025 48.8403 58.8944 48.6531C59.0862 48.4659 59.3155 48.3205 59.5675 48.226C59.8196 48.1315 60.0888 48.0901 60.3579 48.1044C60.8692 48.0976 61.3655 48.2752 61.7539 48.604L62.0106 48.8216L63.1499 47.6959L62.8647 47.4414C62.1751 46.8337 61.2817 46.5008 60.3579 46.5074C59.8767 46.4893 59.3969 46.5692 58.9482 46.7421C58.4996 46.9151 58.0917 47.1773 57.7498 47.5126C57.408 47.848 57.1395 48.2492 56.9611 48.6914C56.7826 49.1336 56.698 49.6073 56.7125 50.0832C56.7006 50.5605 56.7867 51.0352 56.9654 51.4788C57.1442 51.9223 57.412 52.3255 57.7526 52.6639C58.0933 53.0023 58.4998 53.269 58.9475 53.4479C59.3953 53.6267 59.8751 53.714 60.3579 53.7045C61.2899 53.7171 62.192 53.3803 62.883 52.7619L63.1587 52.5074L62.0018 51.3825L61.7444 51.6087Z" fill="white"></path><path d="M69.7581 47.2511C69.3023 46.8095 68.6996 46.5468 68.0623 46.5121C67.425 46.4774 66.7968 46.6731 66.2947 47.0626V43.292H64.6055V53.7303H66.2947V49.8199C66.2947 48.2221 67.4428 48.0917 67.8464 48.0917C68.8563 48.0917 68.8285 49.0265 68.8285 49.5897V53.7264H70.5161V49.6023C70.5526 49.1801 70.5042 48.7551 70.3737 48.3515C70.2432 47.948 70.0332 47.574 69.7557 47.2511" fill="white"></path><path d="M60.3032 48.9014C60.5448 48.9014 60.7809 48.9722 60.9817 49.1048C61.1825 49.2375 61.3391 49.4261 61.4315 49.6467C61.5239 49.8673 61.5481 50.1101 61.501 50.3443C61.4539 50.5785 61.3376 50.7936 61.1668 50.9625C60.996 51.1314 60.7784 51.2463 60.5415 51.2929C60.3046 51.3395 60.0591 51.3156 59.8359 51.2242C59.6128 51.1328 59.422 50.9781 59.2878 50.7795C59.1537 50.581 59.082 50.3475 59.082 50.1087C59.082 49.7885 59.2107 49.4814 59.4397 49.255C59.6687 49.0286 59.9794 48.9014 60.3032 48.9014Z" fill="#FF3D2E"></path><path d="M40.1196 51.1101C39.8034 51.4311 39.425 51.6858 39.007 51.859C38.589 52.0321 38.1399 52.1202 37.6867 52.118C37.2385 52.1154 36.7956 52.022 36.3853 51.8435C35.9751 51.665 35.6062 51.4051 35.3015 51.0801C34.9969 50.755 34.7629 50.3716 34.6141 49.9536C34.4652 49.5356 34.4047 49.0919 34.4362 48.6498C34.4039 48.2072 34.4639 47.7627 34.6123 47.3439C34.7608 46.9252 34.9946 46.5409 35.2993 46.2151C35.604 45.8893 35.9731 45.6287 36.3837 45.4496C36.7944 45.2705 37.2379 45.1766 37.6867 45.1738C38.1373 45.1737 38.5835 45.2619 38.9995 45.4332C39.4154 45.6046 39.7929 45.8558 40.1101 46.1722L40.3667 46.4267L41.4966 45.3136L41.2519 45.0552C40.5583 44.3479 39.6634 43.8662 38.6861 43.6741C37.7088 43.4821 36.6956 43.5888 35.7812 43.9801C34.8668 44.3714 34.0946 45.0287 33.5673 45.8646C33.0401 46.7004 32.7828 47.6752 32.8297 48.6592C32.7873 49.6422 33.0484 50.6147 33.5782 51.4475C34.108 52.2803 34.8815 52.9342 35.796 53.3222C36.7104 53.7103 37.7226 53.8142 38.6982 53.6201C39.6738 53.4261 40.5667 52.9433 41.2582 52.2358L41.5061 51.9813L40.3858 50.847L40.1196 51.1101Z" fill="white"></path></svg>