<svg xmlns="http://www.w3.org/2000/svg" width="97" height="97" viewBox="0 0 97 97" fill="none"><g clip-path="url(#clip0_7351_52027)"><path d="M0 45.1551C0.300287 44.3456 0.246903 43.4828 0.351447 42.6467C1.48809 33.4914 4.9158 25.2946 10.7191 18.1341C18.0528 9.08785 27.4595 3.3416 38.8682 0.988857C64.5438 -4.30816 90.0925 12.21 95.8022 37.7477C101.136 61.5977 88.2419 85.4117 65.3245 94.0027C61.0271 95.6121 56.5762 96.5578 51.9963 96.8755C51.8606 96.8844 51.6849 96.8133 51.6003 97C49.4873 97 47.3763 97 45.2632 97C45.1987 96.84 45.0541 96.8796 44.934 96.8731C42.8698 96.7284 40.8189 96.4617 38.7971 96.0324C26.8834 93.4951 17.192 87.4002 9.80273 77.7266C4.54434 70.8419 1.43248 63.0542 0.358119 54.4526C0.251351 53.5943 0.309184 52.7115 0 51.8798C0 49.6359 0 47.3966 0 45.1551ZM93.1108 48.5063C93.1019 23.8781 73.172 3.94201 48.5308 3.91311C23.8895 3.88197 3.89706 23.8425 3.87926 48.4952C3.86147 73.1368 23.8361 93.1152 48.4907 93.1192C73.1431 93.124 93.1222 73.1501 93.1108 48.5063Z" fill="#213C73"></path><path d="M53.2079 45.889C53.9197 45.5955 54.6271 45.3442 55.3989 45.4687C57.0694 45.7378 58.1927 47.31 58.1371 49.2958C58.0592 52.1222 56.3487 53.7567 53.5216 53.6588C52.7742 53.6322 52.0291 53.4809 51.2839 53.3965C50.9079 53.3542 50.8234 53.1674 50.8368 52.7938C50.9435 49.9985 50.9502 47.2032 50.8345 44.408C50.8101 43.8187 50.7478 43.2627 49.9804 43.2072C49.8536 43.1983 49.7869 43.1315 49.7891 43.0026C49.7913 42.8647 49.8869 42.838 50.0004 42.8158C50.9903 42.6156 51.9757 42.4066 52.9677 42.2153C53.3147 42.1487 53.2057 42.4221 53.2057 42.5934C53.2102 43.6674 53.2079 44.7437 53.2079 45.889ZM53.1479 49.6894C53.1723 49.6894 53.1968 49.6894 53.2213 49.6894C53.2213 50.5923 53.2035 51.4951 53.228 52.398C53.2458 53.0829 53.4126 53.1919 54.0821 53.0518C54.4402 52.9784 54.6938 52.7516 54.9073 52.4736C55.8483 51.246 56.0017 48.4152 55.1987 47.1099C54.8139 46.485 54.2289 46.2181 53.5616 46.3493C53.2769 46.4049 53.1279 46.505 53.139 46.8497C53.1679 47.797 53.1479 48.7443 53.1479 49.6894Z" fill="#213C73"></path><path d="M32.3098 42.4261C33.6445 42.4261 34.979 42.4394 36.3136 42.4172C36.7118 42.4105 36.8875 42.4861 36.8675 42.9353C36.8342 43.6648 36.8631 44.3986 36.8875 45.1302C36.8964 45.4015 36.8474 45.5994 36.5472 45.6439C36.2514 45.6883 36.2758 45.4327 36.2135 45.2681C35.5062 43.4401 34.1271 42.733 32.1941 43.1911C31.9517 43.2489 31.9517 43.3912 31.9495 43.5624C31.9228 44.7899 31.905 46.0152 31.8672 47.2406C31.8583 47.5541 31.9717 47.6297 32.2764 47.6386C33.6311 47.672 33.8046 47.5764 34.3073 46.3622C34.3762 46.1931 34.4341 46.0353 34.6632 46.082C34.8789 46.1264 34.8322 46.3021 34.8322 46.4422C34.8367 47.4541 34.8367 48.4658 34.8322 49.4776C34.8322 49.6133 34.8901 49.7935 34.6565 49.8246C34.4318 49.8557 34.3495 49.7222 34.3028 49.5399C33.9558 48.1946 33.2685 48.3213 32.183 48.2679C31.9517 48.2568 31.8783 48.3635 31.8894 48.5748C31.9472 49.6689 31.876 50.7697 32.0429 51.8615C32.1452 52.522 32.47 52.9111 33.164 52.9756C33.3353 52.9912 33.6577 52.9111 33.6155 53.2714C33.5732 53.6294 33.2774 53.4604 33.1039 53.4626C31.4891 53.4782 29.8741 53.476 28.2593 53.4649C28.0992 53.4649 27.8433 53.5894 27.8144 53.2625C27.7877 52.9512 28.0479 52.9868 28.2125 52.9667C28.8843 52.8889 29.1846 52.4775 29.258 51.8526C29.4538 50.1826 29.4582 48.5037 29.4137 46.8247C29.3893 45.9018 29.4204 44.9745 29.2669 44.0561C29.1579 43.4067 28.8732 42.9753 28.1637 42.9309C27.9902 42.9198 27.81 42.8953 27.8167 42.6484C27.8256 42.3149 28.0814 42.4305 28.2437 42.4305C29.5961 42.4216 30.953 42.4261 32.3098 42.4261Z" fill="#213C73"></path><path d="M43.6044 49.474C43.6089 52.3738 41.4245 54.1551 38.5974 53.5591C36.8802 53.1966 35.8703 51.8357 35.768 49.7454C35.619 46.6943 38.1236 44.6863 41.0309 45.5291C42.6813 46.0072 43.6022 47.4193 43.6044 49.474ZM41.1799 49.5986C41.1666 48.6402 41.1443 47.6261 40.6905 46.6899C40.4659 46.2274 40.1478 45.856 39.5561 45.8938C38.9978 45.9294 38.6908 46.3052 38.5574 46.77C38.0435 48.5868 37.9968 50.4125 38.6419 52.2137C38.8265 52.7252 39.1601 53.1499 39.7541 53.141C40.3791 53.1321 40.6771 52.6785 40.8684 52.1359C41.1577 51.3331 41.142 50.4903 41.1799 49.5986Z" fill="#213C73"></path><path d="M63.5206 49.1511C62.8956 49.1511 62.2706 49.1845 61.65 49.14C61.1873 49.1089 61.1317 49.2979 61.1518 49.6916C61.2651 51.982 63.2626 53.1495 65.3157 52.1065C65.467 52.031 65.6093 51.8708 65.745 52.1021C65.8673 52.3133 65.6583 52.4178 65.5515 52.5202C64.4327 53.592 63.0936 53.9056 61.6188 53.5275C60.1597 53.1517 59.2566 52.1688 58.8874 50.7189C58.2912 48.375 59.4879 46.0957 61.5966 45.513C63.9433 44.8615 65.8318 46.2603 65.9363 48.7108C65.9497 49.0421 65.874 49.1712 65.5203 49.1578C64.8552 49.1333 64.188 49.1511 63.5206 49.1511ZM62.2928 48.5419C63.5874 48.5151 63.5874 48.5151 63.4962 47.4923C63.4139 46.5694 63.0869 45.9778 62.622 45.9133C62.086 45.8399 61.6477 46.3025 61.3563 47.2454C60.9582 48.5374 60.9804 48.5663 62.2928 48.5419Z" fill="#213C73"></path><path d="M66.4267 52.0134C66.4267 51.7332 66.429 51.453 66.4267 51.1728C66.4246 51.0194 66.4112 50.8748 66.618 50.8237C66.8338 50.7703 66.8783 50.9238 66.9317 51.0594C67.0829 51.4397 67.2587 51.8088 67.5056 52.1379C67.906 52.6717 68.4264 52.9607 69.1071 52.9408C69.721 52.9229 70.1303 52.6316 70.2971 52.0446C70.4639 51.4642 70.237 51.0105 69.7254 50.7436C69.0982 50.4167 68.4197 50.1877 67.7992 49.8497C66.3022 49.0358 66.1687 47.0878 67.5122 46.0337C67.8926 45.7357 68.3241 45.5289 68.7912 45.4511C69.7365 45.2909 70.6752 45.351 71.6028 45.6223C71.9254 45.7179 72.0588 45.8691 72.0432 46.2116C72.0276 46.5986 72.0743 46.9854 72.0877 47.3724C72.0944 47.5526 72.1945 47.7794 71.9186 47.8572C71.6162 47.9439 71.6429 47.6593 71.5606 47.5125C71.416 47.2501 71.3114 46.9655 71.1534 46.712C70.9177 46.3317 70.5663 46.0915 70.128 45.9825C69.5186 45.8313 69.0203 46.047 68.7801 46.5718C68.5332 47.1123 68.6622 47.6303 69.1605 47.995C69.6498 48.3553 70.2237 48.551 70.7776 48.7889C72.1211 49.3671 72.5971 50.0788 72.4636 51.2863C72.3279 52.5182 71.5294 53.3054 70.197 53.5745C69.1983 53.7769 68.2285 53.6189 67.252 53.4321C66.6982 53.3254 66.3245 53.123 66.4624 52.4671C66.4935 52.3225 66.4668 52.1669 66.4668 52.0156C66.4557 52.0134 66.4401 52.0134 66.4267 52.0134Z" fill="#213C73"></path><path d="M47.0905 47.0074C47.3018 46.7004 47.433 46.487 47.5865 46.2935C48.0492 45.7042 48.652 45.3551 49.4083 45.3373C50.2068 45.3173 50.3381 45.5174 50.0578 46.2446C50.0111 46.3647 49.9666 46.4848 49.9199 46.6048C49.7864 46.945 49.7375 47.3853 49.4928 47.5922C49.2437 47.8034 48.91 47.3853 48.5786 47.3631C48.236 47.3387 47.8935 47.2987 47.5577 47.4187C47.2417 47.53 47.0616 47.7012 47.0683 48.0748C47.0883 49.28 47.0593 50.4853 47.0928 51.6883C47.1217 52.6891 47.2195 52.7758 48.1893 53.0093C48.3473 53.0471 48.4896 53.0604 48.4652 53.2739C48.4407 53.4985 48.2694 53.4674 48.1248 53.4674C46.748 53.4696 45.3688 53.4696 43.992 53.4674C43.8675 53.4674 43.7251 53.4874 43.7006 53.3028C43.6762 53.1249 43.7339 53.0159 43.9275 52.9915C44.6393 52.9004 44.7194 52.3666 44.7461 51.8062C44.8128 50.4075 44.8172 49.011 44.7461 47.6122C44.7171 47.0362 44.6727 46.4625 43.9052 46.3869C43.7918 46.3758 43.7029 46.3135 43.705 46.1801C43.7073 46.0467 43.8074 45.9978 43.9141 45.9755C44.884 45.7843 45.8538 45.5997 46.8236 45.4062C47.0861 45.3551 47.0994 45.5041 47.0972 45.6997C47.0839 46.0911 47.0905 46.4781 47.0905 47.0074Z" fill="#213C73"></path><path d="M30.5805 19.8129C28.7076 19.8129 26.8325 19.8129 24.9596 19.8129C24.7105 19.8129 24.4436 19.8796 24.4302 19.4571C24.4169 19.0212 24.6637 19.0367 24.9618 19.0367C28.7521 19.0412 32.5424 19.039 36.3349 19.039C36.584 19.039 36.851 18.9722 36.8643 19.3948C36.8777 19.8307 36.6308 19.8151 36.3327 19.8151C34.4153 19.8106 32.4979 19.8129 30.5805 19.8129Z" fill="#213C73"></path><path d="M66.3426 19.0394C68.2378 19.0394 70.1328 19.0416 72.028 19.0372C72.3283 19.0372 72.573 19.0217 72.5596 19.4575C72.5463 19.88 72.2794 19.8133 72.0302 19.8133C68.2399 19.8155 64.4496 19.8133 60.6572 19.8178C60.3569 19.8178 60.1122 19.8333 60.1255 19.3975C60.1389 18.9749 60.4058 19.0416 60.655 19.0416C62.5523 19.0372 64.4475 19.0394 66.3426 19.0394Z" fill="#213C73"></path><path d="M48.7464 19.4008C48.7398 21.2243 47.8145 22.1227 46.3731 21.8869C45.7814 21.7891 45.3255 21.4845 45.0852 20.9329C44.6893 20.0212 44.687 19.0872 45.0986 18.1866C45.4255 17.4661 46.1484 17.1436 47.0449 17.2348C47.8189 17.3148 48.3906 17.7885 48.6018 18.5691C48.6909 18.8959 48.7197 19.2406 48.7464 19.4008ZM45.6079 19.5586C45.6479 19.8544 45.668 20.1546 45.7347 20.4437C45.8615 20.993 46.2174 21.2843 46.7891 21.2843C47.3429 21.2843 47.6765 20.9774 47.8011 20.4726C47.9613 19.8211 47.9813 19.1583 47.7455 18.5134C47.5787 18.0621 47.2472 17.8463 46.7556 17.8552C46.2663 17.8641 45.9527 18.1043 45.7792 18.5446C45.6524 18.8693 45.6257 19.2095 45.6079 19.5586Z" fill="#213C73"></path><path d="M55.8657 19.8216C55.0675 20.3619 54.2914 20.4153 53.7198 19.9994C53.2506 19.6547 53.0549 18.8964 53.2617 18.2405C53.4419 17.6667 53.851 17.3464 54.4203 17.2531C55.0896 17.1441 55.7123 17.2664 56.1771 17.8135C56.9021 18.6674 56.8376 20.542 56.0637 21.3581C55.5011 21.9541 54.2468 22.1098 53.5375 21.6873C53.3729 21.5894 53.3173 21.4916 53.4174 21.3337C53.4996 21.2091 53.4974 20.9645 53.7621 21.0602C53.9222 21.118 54.0845 21.1869 54.2513 21.218C55.2498 21.4137 55.8457 20.9112 55.8657 19.8216ZM54.8139 17.9069C54.2468 17.9225 53.891 18.296 53.9155 18.8453C53.9377 19.3412 54.3402 19.6814 54.8695 19.6503C55.4055 19.6192 55.7902 19.2523 55.7924 18.7764C55.7924 18.2627 55.3743 17.8891 54.8139 17.9069Z" fill="#213C73"></path><path d="M29.875 63.5163C29.875 65.1952 29.875 66.8742 29.875 68.5531C29.875 68.8199 29.9573 69.0913 29.4858 69.0913C29.0077 69.0913 29.1011 68.811 29.1011 68.5487C29.0989 65.1463 29.0989 61.7461 29.1011 58.3438C29.1011 58.0769 29.0188 57.8057 29.4903 57.8057C29.9684 57.8057 29.875 58.0858 29.875 58.3482C29.8772 60.0717 29.875 61.7928 29.875 63.5163Z" fill="#213C73"></path><path d="M41.336 21.1583C42.0276 21.1583 42.5368 21.165 43.0461 21.1561C43.3307 21.1494 43.5398 21.1605 43.5353 21.5519C43.5309 21.9322 43.304 21.8877 43.0683 21.8877C42.2944 21.8854 41.5206 21.8943 40.7489 21.881C40.5799 21.8788 40.3309 22.0011 40.2486 21.7498C40.1729 21.5185 40.2441 21.2984 40.4287 21.1072C40.9046 20.6134 41.3627 20.102 41.8297 19.5972C41.8875 19.535 41.9587 19.4816 42.0075 19.4127C42.2767 19.0412 42.7503 18.661 42.3544 18.1807C41.9564 17.6937 41.4272 17.945 40.9401 18.154C40.7512 18.2363 40.571 18.6899 40.3042 18.1873C40.0863 17.7715 40.4086 17.7093 40.6266 17.5758C41.1203 17.2734 41.6606 17.1556 42.2322 17.2534C43.1973 17.4201 43.5776 18.2141 43.1128 19.0769C42.8015 19.6506 42.3122 20.0798 41.883 20.5601C41.7474 20.7135 41.605 20.8648 41.336 21.1583Z" fill="#213C73"></path><path d="M60.4229 29.2112C60.2139 29.6204 60.0094 30.0318 59.7892 30.4365C59.6935 30.6122 59.6802 30.888 59.3889 30.8745C59.1132 30.8612 59.0931 30.5899 58.9953 30.4143C58.7929 30.0474 58.615 29.6649 58.3126 29.3069C58.3126 29.7872 58.3193 30.2653 58.3104 30.7456C58.3059 30.939 58.406 31.2126 58.0368 31.1971C57.6566 31.1815 57.8145 30.8901 57.81 30.7167C57.7922 30.0273 57.7944 29.338 57.8078 28.6486C57.81 28.4907 57.6788 28.2305 58.0146 28.215C58.2325 28.2038 58.426 28.1994 58.5461 28.4551C58.8018 28.9955 59.0865 29.5225 59.4045 30.143C59.7069 29.5515 59.9804 29.0511 60.2161 28.533C60.3362 28.2706 60.4985 28.1794 60.7677 28.2171C61.1256 28.2639 60.9767 28.544 60.9833 28.7242C61.0011 29.3691 61.0034 30.0162 60.9833 30.6633C60.9767 30.859 61.139 31.2104 60.7299 31.1881C60.3385 31.1659 60.5386 30.8256 60.5275 30.6344C60.4963 30.1719 60.5186 29.7049 60.5186 29.2401C60.4874 29.229 60.4541 29.2201 60.4229 29.2112Z" fill="#213C73"></path><path d="M50.6852 29.3137C50.6852 29.8274 50.6829 30.3411 50.6852 30.8526C50.6852 31.0349 50.6852 31.1906 50.4272 31.1973C50.1537 31.2039 50.176 31.0349 50.176 30.8593C50.176 30.1054 50.1715 29.3516 50.1804 28.5977C50.1826 28.4532 50.078 28.2241 50.3716 28.2129C50.5829 28.2063 50.7897 28.1774 50.912 28.4353C51.1677 28.9758 51.4524 29.505 51.7748 30.1388C52.075 29.5494 52.3486 29.0558 52.5843 28.5444C52.6999 28.293 52.8445 28.1796 53.1246 28.2085C53.4893 28.2463 53.3537 28.5199 53.3581 28.7C53.3737 29.4116 53.3648 30.121 53.3626 30.8326C53.3626 31.0016 53.3893 31.1862 53.1202 31.1929C52.8333 31.1995 52.8933 30.9972 52.8933 30.8392C52.8889 30.3056 52.8912 29.7718 52.7933 29.2003C52.5598 29.6651 52.3285 30.1321 52.0906 30.5946C51.886 30.9927 51.6703 30.9993 51.4635 30.5969C51.2388 30.1632 51.0209 29.7252 50.8008 29.2893C50.763 29.2982 50.723 29.3071 50.6852 29.3137Z" fill="#213C73"></path><path d="M62.0732 29.6531C62.0732 29.5886 62.0687 29.5241 62.0732 29.4596C62.1088 29.0593 61.8887 28.4434 62.1644 28.301C62.6314 28.0609 63.2562 28.1454 63.7989 28.2744C64.3748 28.4123 64.5527 28.9215 64.1947 29.4152C64.0502 29.6131 64.0769 29.6531 64.2325 29.7821C64.5061 30.0089 64.5905 30.3069 64.4571 30.6516C64.3237 31.0007 64.0302 31.143 63.701 31.1719C63.2518 31.2119 62.7982 31.1831 62.3468 31.1986C62.1022 31.2075 62.0666 31.0786 62.071 30.8806C62.0776 30.4714 62.0732 30.0622 62.0732 29.6531ZM63.194 29.8999C62.8871 29.92 62.5535 29.7732 62.5647 30.2958C62.5736 30.7049 62.7515 30.7539 63.0695 30.725C63.4141 30.6916 63.9145 30.8228 63.939 30.3224C63.9634 29.8599 63.492 29.92 63.194 29.8999ZM63.214 29.4262C63.3852 29.4152 63.8189 29.5063 63.8189 29.046C63.8189 28.6324 63.4119 28.6902 63.1184 28.6857C62.8516 28.6813 62.558 28.599 62.5691 29.0705C62.5758 29.4863 62.8182 29.4374 63.214 29.4262Z" fill="#213C73"></path><path d="M51.419 19.5772C51.419 20.2221 51.4033 20.8648 51.4256 21.5097C51.4368 21.841 51.29 21.8922 51.0053 21.8966C50.7095 21.9011 50.6495 21.7832 50.6517 21.5186C50.6628 20.509 50.645 19.5016 50.6628 18.492C50.6696 18.1406 50.6272 17.8983 50.1914 17.9539C49.9312 17.9872 49.7422 17.9539 49.7422 17.5981C49.74 17.2445 49.9223 17.2445 50.1869 17.2356C51.4234 17.2 51.4211 17.1933 51.4211 18.4164C51.419 18.8034 51.419 19.1902 51.419 19.5772Z" fill="#213C73"></path><path d="M27.1812 31.2273C26.2983 31.2229 25.5934 30.5268 25.6178 29.684C25.6423 28.8501 26.3205 28.2141 27.1834 28.2119C28.084 28.2119 28.7934 28.879 28.7845 29.7196C28.7778 30.5691 28.0729 31.2318 27.1812 31.2273ZM28.2397 29.7107C28.2397 29.157 27.7772 28.6967 27.2101 28.6856C26.6185 28.6744 26.1138 29.1592 26.1271 29.7263C26.1382 30.2711 26.6163 30.7492 27.1656 30.7648C27.7393 30.7848 28.2397 30.2934 28.2397 29.7107Z" fill="#213C73"></path><path d="M71.2379 31.1385C70.7798 31.3097 70.5975 31.0829 70.4218 30.7738C70.3061 30.5713 70.2572 30.2867 69.9037 30.2823C69.53 30.2801 69.2098 30.2556 69.2988 30.7915C69.3277 30.9672 69.361 31.1874 69.0497 31.1963C68.7162 31.2073 68.8006 30.9739 68.7984 30.8004C68.7917 30.0711 68.8073 29.3416 68.7895 28.6145C68.7828 28.3231 68.8429 28.1786 69.172 28.2053C69.5767 28.2387 69.9926 28.1853 70.3906 28.2542C71.1557 28.3855 71.5581 29.2682 71.04 29.8153C70.6242 30.2534 70.7642 30.5025 71.0511 30.8427C71.1178 30.9227 71.1646 31.0206 71.2379 31.1385ZM69.3188 29.2705C69.1898 29.7641 69.4478 29.8553 69.8725 29.8219C70.2705 29.7908 70.7153 29.7997 70.722 29.2661C70.7286 28.6857 70.255 28.719 69.8392 28.6767C69.3588 28.6301 69.2187 28.8324 69.3188 29.2705Z" fill="#213C73"></path><path d="M54.5703 29.6597C54.5703 28.2098 54.5703 28.2098 56.0358 28.2121C56.1648 28.2121 56.2937 28.2143 56.4227 28.2121C56.5606 28.2098 56.6784 28.2254 56.6784 28.41C56.6784 28.5945 56.6095 28.688 56.4138 28.6835C56.0914 28.6768 55.7689 28.6969 55.4465 28.6791C55.1707 28.6657 55.0662 28.7635 55.0729 29.046C55.0795 29.3128 55.0952 29.5085 55.4465 29.4774C55.7022 29.453 55.9624 29.4752 56.2204 29.4729C56.376 29.4729 56.5184 29.4685 56.5228 29.6953C56.525 29.9111 56.4071 29.9399 56.2382 29.9355C56.0447 29.931 55.8512 29.931 55.6577 29.9355C55.3731 29.9399 55.0596 29.8309 55.0662 30.3446C55.0751 30.8828 55.4309 30.7005 55.6889 30.7205C55.9668 30.7405 56.2471 30.7271 56.5272 30.7294C56.6807 30.7316 56.7541 30.8072 56.7607 30.9673C56.7674 31.1385 56.6784 31.1941 56.5295 31.1941C55.949 31.1941 55.3687 31.1919 54.7882 31.1964C54.5592 31.1986 54.5726 31.0407 54.5726 30.8873C54.5703 30.4781 54.5703 30.0689 54.5703 29.6597Z" fill="#213C73"></path><path d="M65.5673 29.6772C65.5673 28.2118 65.5673 28.2118 67.015 28.214C67.144 28.214 67.2729 28.214 67.4019 28.214C67.5331 28.214 67.6688 28.2073 67.6733 28.3963C67.6777 28.5676 67.6332 28.6921 67.4242 28.6855C67.253 28.6787 67.0661 28.6454 66.9105 28.6943C66.6169 28.7877 66.0632 28.363 66.0721 29.0968C66.081 29.784 66.6014 29.3659 66.8771 29.4682C66.9905 29.5104 67.1329 29.4793 67.2619 29.4749C67.4064 29.4704 67.5042 29.5015 67.5131 29.6795C67.5242 29.8818 67.4308 29.9418 67.2462 29.9352C66.9883 29.9285 66.7281 29.9507 66.4724 29.9308C66.1655 29.9041 66.0632 30.0152 66.0632 30.3288C66.0632 30.6402 66.1633 30.7536 66.4701 30.7291C66.7482 30.709 67.0283 30.7157 67.3085 30.7291C67.4798 30.738 67.7266 30.6423 67.7466 30.9515C67.7688 31.2851 67.5087 31.1872 67.3419 31.1916C66.8683 31.2028 66.3946 31.1805 65.9231 31.2005C65.6429 31.2117 65.5406 31.1227 65.5562 30.838C65.5828 30.4511 65.5673 30.0641 65.5673 29.6772Z" fill="#213C73"></path><path d="M49.3622 59.8876C49.7291 59.7231 50.0249 59.6052 50.3585 59.643C50.8811 59.7008 51.1946 59.9655 51.2124 60.5058C51.228 61.0218 51.2257 61.54 51.2124 62.0558C51.2079 62.216 51.3347 62.4739 50.9989 62.4828C50.6876 62.4917 50.7387 62.2649 50.7365 62.0781C50.732 61.6266 50.7254 61.173 50.7365 60.7216C50.7454 60.3435 50.6098 60.0744 50.2139 60.0456C49.8114 60.0166 49.4645 60.1723 49.4156 60.6171C49.3599 61.1063 49.3756 61.6044 49.3644 62.1003C49.36 62.3004 49.3756 62.5006 49.0775 62.4851C48.784 62.4695 48.8841 62.2471 48.8819 62.1003C48.873 61.0462 48.8752 59.99 48.8797 58.9359C48.8797 58.7847 48.7996 58.569 49.0909 58.5645C49.3934 58.5623 49.3599 58.7691 49.3599 58.9626C49.3599 59.2427 49.3622 59.5207 49.3622 59.8876Z" fill="#213C73"></path><path d="M42.0469 31.1329C42.4338 30.2611 42.8163 29.3983 43.1966 28.5333C43.2766 28.3487 43.3522 28.2019 43.6035 28.2041C43.8503 28.2064 43.9305 28.3331 44.0127 28.5288C44.3818 29.3961 44.7665 30.2589 45.149 31.1329C44.8511 31.2351 44.6042 31.2663 44.5019 30.9216C44.304 30.25 43.757 30.6103 43.3634 30.5391C43.0609 30.4857 42.7651 30.5013 42.6762 30.9127C42.6006 31.2707 42.3382 31.2307 42.0469 31.1329ZM43.5879 28.7756C43.37 29.2982 43.2255 29.6429 43.0742 30.0076C43.4457 30.0076 43.7548 30.0076 44.1106 30.0076C43.946 29.6185 43.8015 29.276 43.5879 28.7756Z" fill="#213C73"></path><path d="M45.4784 61.4235C45.4784 61.5947 45.4806 61.7682 45.4784 61.9394C45.4739 62.4131 45.4717 62.4198 45.0092 62.2686C44.8179 62.2063 44.7668 62.402 44.6333 62.4353C44.2086 62.5354 43.7727 62.6266 43.4214 62.273C43.1545 62.0039 43.1123 61.6615 43.2947 61.3235C43.517 60.9098 43.9395 60.8876 44.3376 60.7898C44.5577 60.7342 45.0514 61.0677 44.9691 60.4851C44.9002 60.0092 44.5289 59.9848 44.1196 60.0826C43.9484 60.1249 43.6927 60.394 43.5904 60.0626C43.4725 59.689 43.8706 59.7402 44.053 59.6912C44.9647 59.451 45.4472 59.8313 45.4784 60.7808C45.4851 60.9944 45.4784 61.2078 45.4784 61.4235ZM44.6067 61.1678C43.9395 61.2033 43.6771 61.3768 43.7105 61.7349C43.7416 62.0951 43.9996 62.1084 44.2731 62.1018C44.7223 62.0929 44.9314 61.8194 44.9847 61.4168C45.0336 61.0277 44.7423 61.1722 44.6067 61.1678Z" fill="#213C73"></path><path d="M46.6472 67.048C46.6472 66.77 46.6451 66.4898 46.6472 66.2118C46.6494 65.7359 46.6472 65.747 47.1121 65.8716C47.1921 65.8938 47.3077 65.7737 47.41 65.7248C48.264 65.3179 48.9711 65.747 48.9934 66.6921C49.0045 67.1635 48.9911 67.6372 48.9978 68.1086C49 68.3022 48.9733 68.4445 48.7242 68.4312C48.5063 68.42 48.5019 68.2799 48.5019 68.1221C48.5019 67.6506 48.4952 67.177 48.5041 66.7055C48.5108 66.3096 48.3862 66.0228 47.9415 66.0072C47.5301 65.9939 47.2432 66.1562 47.1543 66.5965C47.0542 67.0858 47.1276 67.5794 47.1009 68.0709C47.092 68.2288 47.1587 68.4289 46.8763 68.4312C46.5961 68.4334 46.6494 68.2377 46.6472 68.0753C46.6451 67.7329 46.6472 67.3904 46.6472 67.048Z" fill="#213C73"></path><path d="M38.6342 68.459C37.6847 68.4546 37.1732 68.1611 36.9397 67.4872C36.6506 66.6489 36.6728 65.8283 37.3133 65.139C37.7536 64.6675 38.6831 64.5296 39.3058 64.7831C39.4525 64.8432 39.5971 64.8654 39.5082 65.0856C39.4126 65.3235 39.2591 65.2346 39.0901 65.2012C37.7691 64.9522 37.0331 65.7394 37.3488 67.058C37.5379 67.8453 38.0449 68.1366 38.9678 68.0232C39.1123 68.0054 39.3502 67.7297 39.4325 68.0788C39.5037 68.3923 39.248 68.4101 39.0256 68.4279C38.8544 68.4435 38.6831 68.4568 38.6342 68.459Z" fill="#213C73"></path><path d="M38.6757 62.5067C37.7929 62.5268 37.2481 62.271 36.9567 61.5861C36.6076 60.7656 36.7566 59.6936 37.3214 59.18C37.9063 58.6485 38.5957 58.6262 39.3162 58.8375C39.434 58.8731 39.5964 58.8843 39.5297 59.0711C39.4807 59.2067 39.4251 59.3712 39.2138 59.2823C39.1739 59.2667 39.1316 59.2556 39.0916 59.2444C38.5111 59.0777 37.9641 59.1044 37.5839 59.6314C37.188 60.1829 37.1925 60.8033 37.4482 61.4126C37.6817 61.9708 38.1998 62.1709 38.9737 62.0664C39.1227 62.0465 39.3629 61.784 39.4362 62.1331C39.5007 62.4489 39.2316 62.4534 39.0182 62.4756C38.8448 62.4978 38.6735 62.5067 38.6757 62.5067Z" fill="#213C73"></path><path d="M51.9806 61.0652C51.9895 60.1779 52.4609 59.6309 53.2103 59.6398C53.8997 59.6464 54.3978 60.2513 54.3222 60.9384C54.2933 61.1986 54.1621 61.1942 53.9842 61.1919C53.5973 61.1897 53.2081 61.2097 52.8212 61.1853C52.4364 61.1608 52.4253 61.3676 52.541 61.6167C52.81 62.1948 53.3082 62.1459 53.8174 62.0503C53.9575 62.0236 54.1532 61.819 54.2065 62.1348C54.2466 62.3661 54.0531 62.415 53.8886 62.4639C52.7945 62.7952 51.9694 62.1904 51.9806 61.0652ZM53.1948 60.8584C53.3171 60.5781 53.7863 61.0963 53.7885 60.5582C53.7885 60.209 53.5083 60.0289 53.1747 60.04C52.8189 60.0511 52.5032 60.2713 52.5299 60.6204C52.5565 61.0007 52.9502 60.6894 53.1948 60.8584Z" fill="#213C73"></path><path d="M41.3857 65.593C42.1552 65.6041 42.6755 66.2045 42.6555 67.0651C42.6355 67.9501 42.1374 68.4727 41.3235 68.4616C40.5251 68.4505 40.0715 67.919 40.0782 66.9984C40.0871 66.0933 40.5629 65.5818 41.3857 65.593ZM42.1507 67.0384C42.1507 66.3779 41.8683 66.0088 41.3524 66.0021C40.8431 65.9954 40.5585 66.3669 40.5585 67.034C40.5585 67.7078 40.8298 68.0569 41.3524 68.0569C41.8772 68.0591 42.1507 67.7078 42.1507 67.0384Z" fill="#213C73"></path><path d="M45.7444 67.0751C45.7444 67.3108 45.7756 67.5532 45.7355 67.7845C45.6888 68.0491 45.998 68.7318 45.2019 68.2671C45.0684 68.1892 44.6793 68.4694 44.3657 68.4672C43.8075 68.465 43.4428 68.2337 43.4028 67.6555C43.365 67.0774 43.3761 66.4969 43.3672 65.9165C43.365 65.7409 43.4317 65.6296 43.6274 65.6252C43.8542 65.6186 43.8498 65.7786 43.8498 65.9321C43.852 66.3835 43.8476 66.835 43.852 67.2886C43.8542 67.68 43.9121 68.0269 44.419 68.058C44.9284 68.0892 45.1974 67.8245 45.2418 67.3553C45.2842 66.9061 45.2507 66.4524 45.2619 66.001C45.2664 65.8454 45.1974 65.6296 45.4776 65.6275C45.7222 65.6252 45.7444 65.792 45.7423 65.9766C45.7423 66.3435 45.7444 66.7104 45.7444 67.0751Z" fill="#213C73"></path><path d="M41.3425 59.6368C42.1163 59.6279 42.6478 60.2061 42.6589 61.0667C42.67 61.9474 42.1763 62.5032 41.3781 62.5121C40.5708 62.521 40.0905 61.994 40.086 61.0934C40.0794 60.1816 40.5419 59.6457 41.3425 59.6368ZM40.5619 61.089C40.5619 61.7627 40.8377 62.1141 41.3647 62.1074C41.8828 62.1008 42.1586 61.7405 42.1563 61.0756C42.1542 60.4196 41.854 60.0327 41.3514 60.0327C40.8599 60.0327 40.5619 60.4351 40.5619 61.089Z" fill="#213C73"></path><path d="M38.5315 31.2273C37.8577 31.2296 37.3196 30.8538 37.1017 30.2289C36.8793 29.5951 37.0594 28.9413 37.5642 28.5432C38.0801 28.1385 38.8139 28.0919 39.3788 28.4432C39.4988 28.5188 39.7413 28.5455 39.5968 28.8034C39.4589 29.048 39.3188 28.9769 39.1298 28.8568C38.7006 28.5833 38.258 28.6233 37.8733 28.9391C37.5531 29.2037 37.4219 29.564 37.5487 29.982C37.7488 30.6425 38.4203 30.9071 39.1209 30.578C39.3076 30.4912 39.4566 30.3734 39.5923 30.6114C39.7568 30.8982 39.4544 30.9227 39.3299 31.0072C39.0986 31.1718 38.8206 31.234 38.5315 31.2273Z" fill="#213C73"></path><path d="M29.7402 29.6772C29.7402 28.1851 29.7402 28.1807 31.2435 28.2207C31.4147 28.2251 31.7238 28.0628 31.7127 28.4475C31.7038 28.8055 31.4125 28.6654 31.2279 28.681C31.0145 28.701 30.7987 28.701 30.5853 28.6832C30.2049 28.6498 30.2628 28.9056 30.245 29.1413C30.225 29.4149 30.3161 29.535 30.6031 29.5083C30.8165 29.4882 31.0322 29.5038 31.2457 29.506C31.4125 29.5083 31.606 29.4638 31.5882 29.744C31.5726 30.0041 31.3947 29.9797 31.2212 29.9774C31.199 29.9774 31.179 29.9797 31.1567 29.9774C30.503 29.8818 30.0716 30.0175 30.2428 30.8247C30.285 31.0249 30.2517 31.2073 29.9581 31.1984C29.6735 31.1872 29.7424 30.9893 29.7402 30.8336C29.7358 30.449 29.7402 30.062 29.7402 29.6772Z" fill="#213C73"></path><path d="M33.6279 28.2113C33.8636 28.2113 34.0993 28.2157 34.335 28.2113C34.4951 28.2068 34.5729 28.2713 34.564 28.4358C34.5551 28.5804 34.5084 28.6827 34.3417 28.6827C34.0837 28.6827 33.8257 28.7027 33.57 28.6805C33.2231 28.6493 33.083 28.7449 33.0808 29.1297C33.0786 29.5366 33.2965 29.5144 33.5678 29.5055C33.7813 29.4966 33.997 29.5077 34.2105 29.5032C34.3728 29.4988 34.444 29.57 34.4351 29.7323C34.4262 29.8791 34.375 29.9792 34.2082 29.9769C34.1437 29.9769 34.0771 29.9881 34.0148 29.9769C33.2721 29.8346 32.9518 30.1125 33.0897 30.8776C33.1253 31.0754 33.0541 31.2 32.814 31.1978C32.5938 31.1956 32.5827 31.0688 32.5827 30.9087C32.5849 30.1148 32.5915 29.3231 32.5783 28.5293C32.5738 28.2669 32.6783 28.1935 32.9184 28.209C33.1564 28.2223 33.3922 28.2113 33.6279 28.2113Z" fill="#213C73"></path><path d="M55.6546 62.518C55.5457 62.5024 55.3522 62.489 55.1653 62.4467C55.0053 62.4112 54.8985 62.3022 54.9319 62.1199C54.9808 61.8486 55.1386 62.0176 55.2699 62.0331C55.6569 62.0821 56.2039 62.32 56.3573 61.8575C56.5352 61.3193 55.8969 61.3059 55.5589 61.1436C55.1564 60.9524 54.8429 60.71 54.9497 60.2207C55.0497 59.7605 55.4367 59.6604 55.8414 59.6448C56.0526 59.6381 56.2706 59.6582 56.4752 59.7049C56.6175 59.7383 56.8554 59.7383 56.7665 60.0117C56.6998 60.2186 56.5397 60.1585 56.3951 60.1296C56.3329 60.1162 56.275 60.0851 56.2105 60.0718C55.9058 60.0073 55.5456 59.9517 55.4344 60.3053C55.321 60.6655 55.708 60.7033 55.9437 60.8146C55.9815 60.8323 56.0215 60.8523 56.0615 60.8679C56.513 61.0436 56.9955 61.2215 56.8866 61.8374C56.7754 62.4734 56.2506 62.5046 55.6546 62.518Z" fill="#213C73"></path><path d="M47.6563 60.0853C47.3382 60.0364 47.038 60.0898 46.8668 60.3811C46.6133 60.8169 46.6111 61.2884 46.8313 61.7376C46.9981 62.0734 47.3115 62.1023 47.6563 62.1067C47.8275 62.109 48.1211 61.7954 48.1699 62.169C48.2211 62.5515 47.8408 62.4915 47.6051 62.5093C46.7023 62.5759 46.1842 62.0534 46.1797 61.0949C46.1753 60.1298 46.7467 59.5627 47.6541 59.6517C47.8586 59.6717 48.2033 59.6161 48.1678 59.9519C48.1388 60.2766 47.8564 60.1209 47.6563 60.0853Z" fill="#213C73"></path><path d="M49.7501 67.0751C49.7434 65.9922 50.395 65.394 51.3579 65.6164C51.5024 65.6497 51.7448 65.6342 51.7092 65.8943C51.6736 66.139 51.489 66.1211 51.3112 66.0678C50.9153 65.9499 50.555 66.0211 50.3571 66.388C50.1326 66.8038 50.1415 67.2664 50.3616 67.6933C50.5684 68.0936 50.9442 68.0669 51.3222 68.0292C51.4557 68.0158 51.6781 67.809 51.7069 68.1403C51.727 68.3694 51.5513 68.4027 51.3689 68.4405C50.3727 68.6451 49.7568 68.1292 49.7501 67.0751Z" fill="#213C73"></path><path d="M46.4114 29.4974C46.4114 29.6041 46.4114 29.7131 46.4114 29.8199C46.4114 30.6849 46.4114 30.6804 47.2675 30.7271C47.441 30.736 47.6857 30.6448 47.699 30.9584C47.7124 31.292 47.4521 31.183 47.2876 31.1919C45.9044 31.2608 45.9044 31.2586 45.9044 29.8621C45.9044 29.4329 45.9 29.0015 45.9066 28.5723C45.9089 28.4144 45.8466 28.2187 46.1313 28.2121C46.4337 28.2054 46.4159 28.3944 46.4137 28.5945C46.4092 28.8947 46.4114 29.1949 46.4114 29.4974Z" fill="#213C73"></path><path d="M53.8019 66.4722C53.8019 65.9363 53.8019 65.4003 53.8019 64.8666C53.8019 64.6954 53.7707 64.5064 54.0376 64.5108C54.2911 64.5153 54.2844 64.6887 54.2844 64.8666C54.2822 65.9385 54.2844 67.0082 54.2822 68.08C54.2822 68.2512 54.3 68.4336 54.0376 68.4358C53.7663 68.438 53.8041 68.2445 53.8041 68.08C53.7996 67.5441 53.8019 67.0082 53.8019 66.4722Z" fill="#213C73"></path><path d="M41.1063 29.7531C41.1063 30.0955 41.1129 30.438 41.1041 30.7805C41.0996 30.9561 41.1774 31.1785 40.8639 31.1985C40.5347 31.2185 40.6037 30.9939 40.6037 30.8138C40.5992 30.0644 40.5992 29.315 40.6037 28.5656C40.6037 28.4077 40.5503 28.2164 40.8305 28.212C41.133 28.2075 41.1084 28.401 41.1084 28.5967C41.1063 28.9814 41.1063 29.3661 41.1063 29.7531Z" fill="#213C73"></path><path d="M36.0672 29.7202C36.0672 30.0627 36.0738 30.4051 36.0649 30.7476C36.0605 30.941 36.1539 31.2035 35.7914 31.1946C35.4579 31.1879 35.569 30.941 35.5669 30.7787C35.5557 30.0515 35.5601 29.3243 35.5646 28.595C35.5646 28.4171 35.4979 28.1903 35.8248 28.2102C36.1406 28.2281 36.0627 28.4526 36.0672 28.6283C36.0716 28.993 36.0672 29.3577 36.0672 29.7202Z" fill="#213C73"></path><path d="M52.8866 67.1135C52.8866 67.456 52.8866 67.7984 52.8866 68.1409C52.8866 68.3032 52.8688 68.4367 52.6531 68.4367C52.444 68.4367 52.4062 68.3144 52.4062 68.1475C52.4062 67.3981 52.4063 66.6487 52.4084 65.8993C52.4084 65.7214 52.4907 65.6147 52.6798 65.6258C52.8465 65.6369 52.8843 65.7548 52.8843 65.8949C52.8866 66.2996 52.8866 66.7066 52.8866 67.1135Z" fill="#213C73"></path></g><defs><clipPath id="clip0_7351_52027"><rect width="97" height="97" fill="white"></rect></clipPath></defs></svg>