<svg width="87" height="46" viewBox="0 0 87 46" fill="none" xmlns="http://www.w3.org/2000/svg">
<g id="Group 1000005271">
<path id="Vector" d="M43.2129 30.6559C43.1007 30.6252 41.3731 30.1797 39.5372 30.1797C36.0614 30.1797 33.9688 32.0566 33.9688 34.8516C33.9688 37.3256 35.7194 38.5595 37.8204 39.2232C38.0534 39.3001 38.3966 39.4076 38.6251 39.4832C39.5603 39.7774 40.3069 40.2146 40.3069 40.9719C40.3069 41.8187 39.4441 42.367 37.5684 42.367C35.9201 42.367 34.3398 41.8956 34.007 41.8116V45.2504C34.1925 45.2898 36.0706 45.6585 38.0768 45.6585C40.9626 45.6585 44.2637 44.3975 44.2637 40.6438C44.2637 38.8231 43.1488 37.1469 40.7014 36.3689L39.6611 36.0376C39.0404 35.8417 37.9323 35.5244 37.9323 34.6147C37.9323 33.896 38.7533 33.39 40.2651 33.39C41.5694 33.39 43.1568 33.8283 43.2129 33.8458V30.6559ZM75.0811 37.9193C75.0811 40.0936 73.4156 41.8526 71.1808 41.8526C68.9436 41.8526 67.2826 40.0936 67.2826 37.9193C67.2826 35.7494 68.9436 33.9896 71.1808 33.9896C73.4156 33.9896 75.0811 35.7494 75.0811 37.9193ZM71.1808 30.1845C66.5846 30.1845 63.2883 33.6511 63.2883 37.9193C63.2883 42.1942 66.5846 45.6585 71.1808 45.6585C75.7767 45.6585 79.0777 42.1942 79.0777 37.9193C79.0777 33.6511 75.7767 30.1845 71.1808 30.1845ZM28.9119 45.3925H25.1406V30.4492H28.9119" fill="#1B232E"/>
<path id="a" d="M19.9352 30.7191C19.5809 30.614 18.271 30.1836 16.4968 30.1836C11.9078 30.1836 8.53906 33.4556 8.53906 37.9184C8.53906 42.7332 12.2578 45.6576 16.4968 45.6576C18.181 45.6576 19.4666 45.2587 19.9352 45.1257V41.1143C19.7732 41.2043 18.5405 41.9074 16.7672 41.9074C14.2549 41.9074 12.6344 40.1393 12.6344 37.9184C12.6344 35.6299 14.3249 33.9326 16.7672 33.9326C18.5708 33.9326 19.7835 34.6512 19.9352 34.7304" fill="#1B232E"/>
<path id="a_2" d="M59.3102 30.7191C58.9559 30.614 57.646 30.1836 55.8718 30.1836C51.2828 30.1836 47.9141 33.4556 47.9141 37.9184C47.9141 42.7332 51.6328 45.6576 55.8718 45.6576C57.556 45.6576 58.8416 45.2587 59.3102 45.1257V41.1143C59.1482 41.2043 57.9155 41.9074 56.1422 41.9074C53.6299 41.9074 52.0094 40.1393 52.0094 37.9184C52.0094 35.6299 53.6999 33.9326 56.1422 33.9326C57.9458 33.9326 59.1585 34.6512 59.3102 34.7304" fill="#1B232E"/>
<g id="c">
<path id="b" d="M25.1082 2.20516C25.1082 1.17516 24.2669 0.339844 23.2357 0.339844C22.2049 0.339844 21.3636 1.17516 21.3636 2.20516V22.0488C21.3638 22.5452 21.5611 23.0211 21.9122 23.3719C22.2633 23.7228 22.7393 23.9198 23.2357 23.9197C23.4815 23.9198 23.7249 23.8715 23.952 23.7776C24.1791 23.6836 24.3855 23.5458 24.5594 23.3721C24.7333 23.1984 24.8712 22.9921 24.9654 22.765C25.0595 22.538 25.1081 22.2946 25.1082 22.0488V2.20516ZM14.8244 9.24919C14.8244 8.21958 13.9835 7.38307 12.9523 7.38307C11.9211 7.38307 11.0802 8.21958 11.0802 9.24919V18.321C11.0804 18.8173 11.2778 19.2932 11.6289 19.6441C11.9799 19.9949 12.456 20.192 12.9523 20.1919C13.4487 20.192 13.9247 19.9949 14.2758 19.6441C14.6269 19.2932 14.8242 18.8173 14.8244 18.321V9.24919ZM4.54105 14.398C4.54105 13.368 3.70017 12.5331 2.66896 12.5331C1.63896 12.5331 0.796875 13.368 0.796875 14.398V18.321C0.806978 18.8108 1.00865 19.2772 1.35864 19.62C1.70862 19.9628 2.17904 20.1549 2.66896 20.1549C3.15889 20.1549 3.62931 19.9628 3.97929 19.62C4.32928 19.2772 4.53095 18.8108 4.54105 18.321" fill="#1B232E"/>
<path id="b_2" d="M21.3411 2.20516C21.3411 1.17516 22.1823 0.339844 23.2135 0.339844C24.2444 0.339844 25.0856 1.17516 25.0856 2.20516V22.0488C25.0854 22.5452 24.8881 23.0211 24.537 23.3719C24.1859 23.7228 23.7099 23.9198 23.2135 23.9197C22.9678 23.9198 22.7243 23.8715 22.4972 23.7776C22.2701 23.6836 22.0637 23.5458 21.8898 23.3721C21.716 23.1984 21.578 22.9921 21.4838 22.765C21.3897 22.538 21.3412 22.2946 21.3411 22.0488V2.20516ZM31.6248 9.24919C31.6248 8.21958 32.4657 7.38307 33.4969 7.38307C34.5281 7.38307 35.369 8.21958 35.369 9.24919V18.321C35.3688 18.8173 35.1714 19.2932 34.8204 19.6441C34.4693 19.9949 33.9932 20.192 33.4969 20.1919C33.0006 20.192 32.5245 19.9949 32.1734 19.6441C31.8224 19.2932 31.625 18.8173 31.6248 18.321V9.24919ZM41.9082 14.398C41.9082 13.368 42.7491 12.5331 43.7803 12.5331C44.8103 12.5331 45.6523 13.368 45.6523 14.398V18.321C45.6422 18.8108 45.4406 19.2772 45.0906 19.62C44.7406 19.9628 44.2702 20.1549 43.7803 20.1549C43.2903 20.1549 42.8199 19.9628 42.4699 19.62C42.1199 19.2772 41.9183 18.8108 41.9082 18.321" fill="#1B232E"/>
</g>
<g id="c_2">
<path id="b_3" d="M62.4856 2.20516C62.4856 1.17516 63.3269 0.339844 64.3581 0.339844C65.3889 0.339844 66.2302 1.17516 66.2302 2.20516V22.0488C66.23 22.5452 66.0326 23.0211 65.6815 23.3719C65.3305 23.7228 64.8544 23.9198 64.3581 23.9197C64.1123 23.9198 63.8689 23.8715 63.6418 23.7776C63.4146 23.6836 63.2082 23.5458 63.0344 23.3721C62.8605 23.1984 62.7225 22.9921 62.6284 22.765C62.5342 22.538 62.4857 22.2946 62.4856 22.0488V2.20516ZM72.7693 9.24919C72.7693 8.21958 73.6102 7.38307 74.6414 7.38307C75.6726 7.38307 76.5135 8.21958 76.5135 9.24919V18.321C76.5133 18.8173 76.316 19.2932 75.9649 19.6441C75.6138 19.9949 75.1378 20.192 74.6414 20.1919C74.1451 20.192 73.669 19.9949 73.318 19.6441C72.9669 19.2932 72.7696 18.8173 72.7693 18.321V9.24919ZM83.0527 14.398C83.0527 13.368 83.8936 12.5331 84.9248 12.5331C85.9548 12.5331 86.7969 13.368 86.7969 14.398V18.321C86.7868 18.8108 86.5851 19.2772 86.2351 19.62C85.8851 19.9628 85.4147 20.1549 84.9248 20.1549C84.4349 20.1549 83.9644 19.9628 83.6145 19.62C83.2645 19.2772 83.0628 18.8108 83.0527 18.321" fill="#1B232E"/>
<path id="b_4" d="M66.2527 2.20516C66.2527 1.17516 65.4114 0.339844 64.3802 0.339844C63.3494 0.339844 62.5081 1.17516 62.5081 2.20516V22.0488C62.5083 22.5452 62.7057 23.0211 63.0567 23.3719C63.4078 23.7228 63.8839 23.9198 64.3802 23.9197C64.626 23.9198 64.8694 23.8715 65.0965 23.7776C65.3237 23.6836 65.53 23.5458 65.7039 23.3721C65.8778 23.1984 66.0158 22.9921 66.1099 22.765C66.2041 22.538 66.2526 22.2946 66.2527 22.0488V2.20516ZM55.9689 9.24919C55.9689 8.21958 55.1281 7.38307 54.0968 7.38307C53.0656 7.38307 52.2248 8.21958 52.2248 9.24919V18.321C52.225 18.8173 52.4223 19.2932 52.7734 19.6441C53.1245 19.9949 53.6005 20.192 54.0968 20.1919C54.5932 20.192 55.0692 19.9949 55.4203 19.6441C55.7714 19.2932 55.9687 18.8173 55.9689 18.321V9.24919ZM45.6856 14.398C45.6856 13.368 44.8447 12.5331 43.8135 12.5331C42.7835 12.5331 41.9414 13.368 41.9414 14.398V18.321C41.9515 18.8108 42.1532 19.2772 42.5032 19.62C42.8532 19.9628 43.3236 20.1549 43.8135 20.1549C44.3034 20.1549 44.7738 19.9628 45.1238 19.62C45.4738 19.2772 45.6755 18.8108 45.6856 18.321" fill="#1B232E"/>
</g>
</g>
</svg>
