<svg width="66" height="27" viewBox="0 0 66 27" fill="none" xmlns="http://www.w3.org/2000/svg">
<g id="IBM_logo 1" clip-path="url(#clip0_6967_15113)">
<g id="Group">
<g id="Group_2">
<path id="Rectangle-path" d="M0.757812 24.6895H13.3598V26.4934H0.757812V24.6895Z" fill="#1B232E"/>
<path id="Rectangle-path_1_" d="M0.757812 21.2295H13.3598V23.0398H0.757812V21.2295Z" fill="#1B232E"/>
<path id="Rectangle-path_2_" d="M4.35156 17.7754H9.75697V19.5858H4.35156V17.7754Z" fill="#1B232E"/>
<path id="Rectangle-path_3_" d="M4.35156 14.3218H9.75697V16.1322H4.35156V14.3218Z" fill="#1B232E"/>
<path id="Rectangle-path_4_" d="M4.35156 10.8677H9.75697V12.6781H4.35156V10.8677Z" fill="#1B232E"/>
<path id="Rectangle-path_5_" d="M4.35156 7.40771H9.75697V9.21809H4.35156V7.40771Z" fill="#1B232E"/>
<path id="Rectangle-path_6_" d="M13.3598 3.95361H0.757812V5.76399H13.3598V3.95361Z" fill="#1B232E"/>
<path id="Rectangle-path_7_" d="M13.3598 0.5H0.757812V2.31038H13.3598V0.5Z" fill="#1B232E"/>
</g>
<g id="Group_3">
<path id="Shape_16_" d="M15.1562 23.0399H34.5375C34.8648 22.4814 35.1088 21.8715 35.2565 21.2295H15.1562V23.0399Z" fill="#1B232E"/>
<path id="Shape_17_" d="M33.0289 14.3218H18.7578V16.1322H34.5376C34.1267 15.4388 33.6195 14.8289 33.0289 14.3218Z" fill="#1B232E"/>
<path id="Shape_18_" d="M18.7578 10.8677V12.6781H33.0289C33.6324 12.1709 34.1395 11.561 34.5376 10.8677H18.7578Z" fill="#1B232E"/>
<path id="Shape_19_" d="M34.5375 3.95361H15.1562V5.76399H35.2565C35.0896 5.12201 34.8457 4.51218 34.5375 3.95361Z" fill="#1B232E"/>
<path id="Shape_20_" d="M28.58 0.5H15.1562V2.31038H33.2086C32.0017 1.19331 30.3647 0.5 28.58 0.5Z" fill="#1B232E"/>
<path id="Rectangle-path_8_" d="M24.1568 7.40771H18.7578V9.21809H24.1568V7.40771Z" fill="#1B232E"/>
<path id="Shape_21_" d="M29.5625 9.21809H35.2119C35.3723 8.64034 35.4558 8.03045 35.4558 7.40771H29.5625V9.21809Z" fill="#1B232E"/>
<path id="Rectangle-path_9_" d="M18.7578 17.7754H24.1568V19.5858H18.7578V17.7754Z" fill="#1B232E"/>
<path id="Shape_22_" d="M29.5625 17.7754V19.5858H35.4558C35.4558 18.963 35.3723 18.3532 35.2119 17.7754H29.5625Z" fill="#1B232E"/>
<path id="Shape_23_" d="M15.1562 26.4806L28.58 26.4998C30.3775 26.4998 32.0017 25.8065 33.215 24.6895H15.1562V26.4806Z" fill="#1B232E"/>
</g>
<g id="Group_4">
<path id="Rectangle-path_10_" d="M36.7656 24.6895H45.7661V26.4934H36.7656V24.6895Z" fill="#1B232E"/>
<path id="Rectangle-path_11_" d="M36.7656 21.2295H45.7661V23.0398H36.7656V21.2295Z" fill="#1B232E"/>
<path id="Rectangle-path_12_" d="M40.3594 17.7754H45.7648V19.5858H40.3594V17.7754Z" fill="#1B232E"/>
<path id="Rectangle-path_13_" d="M40.3594 14.3218H45.7648V16.1322H40.3594V14.3218Z" fill="#1B232E"/>
<path id="Shape_24_" d="M48.2698 3.95361H36.7656V5.76399H48.8925L48.2698 3.95361Z" fill="#1B232E"/>
<path id="Shape_25_" d="M47.0757 0.5H36.7656V2.31038H47.6984L47.0757 0.5Z" fill="#1B232E"/>
<path id="Rectangle-path_14_" d="M56.5625 24.6895H65.5694V26.4934H56.5625V24.6895Z" fill="#1B232E"/>
<path id="Rectangle-path_15_" d="M56.5625 21.2295H65.5694V23.0398H56.5625V21.2295Z" fill="#1B232E"/>
<path id="Rectangle-path_16_" d="M56.5625 17.7754H61.9679V19.5858H56.5625V17.7754Z" fill="#1B232E"/>
<path id="Rectangle-path_17_" d="M56.5625 14.3218H61.9679V16.1322H56.5625V14.3218Z" fill="#1B232E"/>
<path id="Shape_26_" d="M56.5628 12.6781H61.9682V10.8677H56.5628H51.671L51.1638 12.3314L50.6567 10.8677H45.7648H40.3594V12.6781H45.7648V11.0153L46.3362 12.6781H55.9915L56.5628 11.0153V12.6781Z" fill="#1B232E"/>
<path id="Shape_27_" d="M61.9681 7.40771H52.8649L52.2422 9.21809H61.9681V7.40771Z" fill="#1B232E"/>
<path id="Shape_28_" d="M55.2595 0.5L54.6367 2.31038H65.5696V0.5H55.2595Z" fill="#1B232E"/>
<path id="Shape_29_" d="M51.1657 26.4806L51.7884 24.6895H50.543L51.1657 26.4806Z" fill="#1B232E"/>
<path id="Shape_30_" d="M49.9715 23.0398H52.3596L53.0016 21.2295H49.3359L49.9715 23.0398Z" fill="#1B232E"/>
<path id="Shape_31_" d="M48.7567 19.5858H53.5715L54.207 17.7754H48.1211L48.7567 19.5858Z" fill="#1B232E"/>
<path id="Shape_32_" d="M47.5524 16.1322H54.7875L55.4038 14.3218H46.9297L47.5524 16.1322Z" fill="#1B232E"/>
<path id="Shape_33_" d="M40.3594 9.21809H50.0853L49.4626 7.40771H40.3594V9.21809Z" fill="#1B232E"/>
<path id="Shape_34_" d="M53.4453 5.76399H65.5722V3.95361H54.0616L53.4453 5.76399Z" fill="#1B232E"/>
</g>
</g>
</g>
<defs>
<clipPath id="clip0_6967_15113">
<rect width="64.8138" height="26" fill="white" transform="translate(0.757812 0.5)"/>
</clipPath>
</defs>
</svg>
