<svg xmlns="http://www.w3.org/2000/svg" width="98" height="98" viewBox="0 0 98 98" fill="none"><g clip-path="url(#clip0_7351_52197)"><path d="M86.729 40.2465C85.992 38.4285 84.479 36.8048 82.638 35.6363C77.3231 32.4624 69.2232 32.2347 63.7475 35.104C60.7605 36.5369 58.7986 39.3723 58.1866 42.2884C57.0794 47.0828 57.3643 52.7872 61.2913 56.3804C65.8734 60.1566 72.5381 60.9907 78.4659 59.4402C78.7466 59.3895 79.6402 59.1793 80.2563 58.8709L80.4311 58.8008C82.2712 58.0812 84.0268 56.9092 85.3369 55.3221C88.3629 51.1643 88.5699 44.93 86.729 40.2465ZM77.0772 51.0132C76.8709 51.9213 76.2192 52.8651 75.194 53.2062C73.56 53.8822 71.3523 53.6953 69.8392 52.9049C68.5714 52.0708 68.4082 50.6753 68.2443 49.3529C68.1201 46.748 67.9205 43.9892 68.6965 41.6054C69.3051 40.1293 70.9821 39.7509 72.4984 39.6402C74.0934 39.6402 75.6428 39.868 76.6283 41.0767C77.2411 41.9438 77.2022 43.0788 77.3231 44.0998C77.28 46.2527 77.4862 48.8202 77.0772 51.0132Z" fill="#0055A6"></path><path d="M28.6199 53.3607C27.2709 53.2836 25.7575 53.3942 24.4511 53.2439L24.49 39.9789L24.5721 39.8683L28.6199 39.8313C28.663 37.6788 28.7019 35.3686 28.5773 33.4066L13.1649 33.3665L10.6268 33.4066C10.5874 35.4087 10.5874 37.7489 10.6268 39.7912C12.0189 39.8313 13.3252 39.7912 14.6746 39.9084V52.7548L14.6357 53.2836L10.5874 53.3607C10.5021 55.4727 10.5021 57.5154 10.5874 59.5946H28.6199V53.3607Z" fill="#0055A6"></path><path d="M74.0056 62.4273C72.2898 64.734 70.1218 66.9636 67.7541 68.6979C67.6688 68.8147 67.4228 68.7711 67.345 68.6613C66.319 68.0585 65.2159 67.5663 64.2329 66.9636C65.543 65.4909 66.8109 64.0175 67.7931 62.3868H66.5227C65.5041 63.7901 64.44 65.2628 63.0901 66.508C61.2889 65.8289 59.655 65.2231 57.8141 64.7675L57.6111 64.6234C57.8961 63.8602 58.4261 63.1437 58.59 62.3868H57.4862L56.3831 64.4287C53.9724 63.9373 51.3133 63.6725 48.8599 63.5222C48.7352 63.1842 48.8988 62.6921 48.7352 62.3868H47.674C47.5887 62.8424 47.7953 63.1842 47.5498 63.5627C45.0773 63.6589 42.6167 63.9376 40.1906 64.396L39.0834 62.3868C38.6776 62.3868 38.2255 62.3136 37.9405 62.4273L38.9625 64.6569L38.8412 64.7675C37.0089 65.2666 35.2072 65.8601 33.4442 66.5454L33.2802 66.4683C32.1268 65.303 31.0733 64.0536 30.1296 62.7318C29.9264 62.0862 29.1077 62.4639 28.6593 62.3868C29.6381 64.051 30.9482 65.5236 32.2551 67.0376C31.1512 67.6434 30.051 68.3194 28.9011 68.8147C26.3999 67.0232 24.2196 64.8668 22.443 62.4273C21.9515 62.3541 21.6276 62.3868 21.1328 62.4273C24.0773 66.7362 28.6593 70.5124 33.4442 72.7427C33.4444 72.7377 33.4457 72.7329 33.448 72.7284C33.4503 72.7239 33.4535 72.7199 33.4575 72.7167C33.4616 72.7135 33.4662 72.7111 33.4713 72.7097C33.4764 72.7083 33.4817 72.7079 33.4869 72.7085C33.5225 72.7085 33.6041 72.7786 33.5225 72.8191C36.7551 74.2925 40.1906 75.35 43.829 75.8056C56.3831 77.353 68.3661 72.33 75.3158 62.4273C74.8802 62.3868 74.4413 62.3868 74.0056 62.4273ZM56.9562 65.8289L57.077 65.7518C58.8018 66.1098 60.4768 66.6547 62.0682 67.3755C60.7581 68.7711 59.0811 69.9836 57.5292 71.0015C56.5893 71.5302 55.646 72.1026 54.6631 72.5511L52.9082 71.8347L53.0291 71.5738C54.4898 69.7544 55.8026 67.834 56.9562 65.8289ZM48.8988 64.6935C51.2313 64.734 53.5633 64.9613 55.728 65.4504L55.7702 65.5641C54.6274 67.6029 53.1931 69.5716 51.6403 71.4204C50.943 71.4967 50.2913 71.2358 49.5969 71.1961L48.8988 71.1182C48.8172 68.8886 48.7742 66.9239 48.8988 64.6935ZM41.0096 65.3733C43.135 64.9956 45.3425 64.6935 47.6314 64.6935L47.674 71.0855C46.8127 71.2693 45.8728 71.2693 45.0538 71.4633C43.4173 69.6305 41.9923 67.6394 40.803 65.5236L41.0096 65.3733ZM34.4231 67.416C36.0234 66.7083 37.6941 66.1508 39.4109 65.7518L39.5782 65.7916C40.7603 67.8708 42.234 69.8333 43.7048 71.7981C43.135 72.1026 42.4374 72.2864 41.8676 72.5917C39.1021 71.307 36.5857 69.5948 34.4231 67.5266V67.416ZM39.6996 73.8774C36.2636 73.0433 33.0737 71.6073 30.1296 69.6448V69.528C31.1122 68.9657 32.0948 68.3599 33.1557 67.9409C35.4877 70.1011 37.8979 71.7241 40.5181 73.2708C40.2821 73.5134 40.0056 73.7183 39.6996 73.8774ZM54.8701 74.3657C50.5372 75.2394 45.7089 75.2737 41.3761 74.2925C41.2945 74.1048 41.579 74.0651 41.7036 73.9545C45.5059 71.6478 51.4342 71.6478 55.1583 74.1382C55.2791 74.3657 54.9512 74.2925 54.8701 74.3657ZM58.7962 73.3112L56.8741 73.8774C56.5462 73.7271 56.2613 73.4989 55.9731 73.2708L56.0551 73.157C58.672 71.7241 61.0429 69.9836 63.293 67.9043C64.4043 68.3336 65.4611 68.8782 66.444 69.528C64.155 71.2358 61.4951 72.3642 58.7962 73.3112Z" fill="#0055A6"></path><path d="M22.3649 30.4941C23.3756 29.1772 24.482 27.9277 25.6761 26.7545C26.7369 25.8102 27.7195 24.9029 28.8661 24.22C29.9303 24.8628 31.1161 25.3982 32.1376 26.001C30.8702 27.4674 29.5637 28.9474 28.6201 30.531C28.905 30.6478 29.4392 30.6112 29.8487 30.531C30.8702 29.1348 31.974 27.7353 33.2841 26.4897C35.0394 27.0959 36.759 27.7353 38.5602 28.1905L38.7204 28.3411L37.6989 30.531C38.1511 30.6112 38.4359 30.5711 38.8844 30.531C39.2513 29.8913 39.5357 29.1749 39.9452 28.5289C42.3199 29.0242 44.8159 29.2854 47.3508 29.359C47.6779 29.627 47.4323 30.1927 47.5537 30.531H48.6572C48.778 30.1592 48.6178 29.7375 48.778 29.4026C51.1531 29.2854 53.645 29.0577 55.9414 28.5289L56.1409 28.569L57.2449 30.531C57.615 30.531 58.1028 30.6112 58.391 30.454L57.3658 28.2676L57.4511 28.1905C59.3277 27.7353 61.0899 27.0558 62.8878 26.3795C64.1589 27.6247 65.3407 29.0982 66.4089 30.531C66.857 30.531 67.3059 30.5711 67.6338 30.454C67.1285 29.6101 66.5395 28.813 65.8749 28.0733C65.3333 27.3505 64.7306 26.6699 64.0728 26.038V25.8437L66.9356 24.2971L67.3489 24.1464C69.8394 25.9179 72.0186 28.0464 73.8067 30.454C74.2978 30.454 74.7077 30.6112 75.1168 30.4205C69.6346 22.7135 60.598 17.7583 50.8294 17.0453L50.7863 17.1189L50.7043 17.0453C49.4946 16.9197 48.2748 16.9051 47.0622 17.0017C46.5574 16.9788 46.0515 16.9934 45.5492 17.0453C35.7371 17.7583 26.7013 22.4857 21.0547 30.531C21.4643 30.4941 21.9554 30.6479 22.3649 30.4941ZM39.3365 27.173L39.1726 27.2065C37.5098 26.8115 35.8827 26.2942 34.3061 25.6596L34.3843 25.4317C36.6343 23.43 39.0053 21.7657 41.6222 20.4835C42.2379 20.7113 42.8503 20.8986 43.4627 21.1665L43.3418 21.4612C41.7857 23.2793 40.5614 25.241 39.3365 27.173ZM47.4717 28.1905C46.3288 28.3412 45.307 28.157 44.1571 28.0733C43.0569 27.923 41.6648 27.8124 40.5614 27.4674C41.7468 25.3982 43.1389 23.393 44.8159 21.545L47.4323 21.8798C47.5537 23.8415 47.4717 26.1116 47.4717 28.1905ZM48.7391 28.231C48.6572 26.2222 48.6998 23.9957 48.7391 21.9164C49.5578 21.8062 50.4551 21.6891 51.2741 21.5785C52.8691 23.4634 54.4251 25.3982 55.4892 27.4674C53.2788 27.9698 51.0132 28.2261 48.7391 28.231ZM61.7872 25.5825C60.1889 26.2222 58.5516 26.8281 56.796 27.173C55.5097 25.1209 54.1024 23.138 52.5808 21.2335C53.1539 20.9391 53.852 20.7113 54.464 20.4099C57.1272 21.6556 59.7011 23.43 61.8658 25.4652L61.7872 25.5825ZM56.5501 19.121C60.0016 19.9671 63.2587 21.4014 66.1597 23.3529L66.0777 23.5035L63.2579 24.9766H63.0518C60.887 22.9409 58.3521 21.1665 55.7741 19.764C55.8561 19.4992 56.2652 19.3084 56.5501 19.121ZM54.9162 18.7426V18.8197C51.3561 21.2335 45.5918 21.4612 41.8321 19.2317C41.6222 19.0809 41.2164 19.007 41.1737 18.7426C45.5098 17.8018 50.619 17.7248 54.9162 18.7426ZM29.9695 23.43C32.5427 21.6732 35.402 20.3209 38.4359 19.4256C38.5602 19.3084 38.6389 19.1982 38.8024 19.1982V19.2749C39.1299 19.3485 39.3759 19.007 39.6604 19.2317C39.9063 19.4256 40.1945 19.5762 40.3974 19.764C37.8625 21.2335 35.3669 22.9744 33.0775 25.0872C31.974 24.7153 30.9521 24.1464 29.9695 23.5035V23.43Z" fill="#0055A6"></path><path d="M47.5154 53.6553C43.6703 54.6396 39.4978 53.8896 36.7174 51.1648C36.3932 50.7863 36.1869 50.3377 35.859 49.9593L30.3408 49.9967C30.2555 53.0556 30.2161 56.571 30.3408 59.5948L36.4714 59.5582L36.5534 57.7438C37.2511 58.0443 37.9454 58.4228 38.6399 58.7608C42.894 60.425 48.37 60.8035 52.5819 58.7608C55.6509 57.1776 57.2881 54.1179 56.836 50.8229C56.388 47.6152 53.116 44.703 49.8047 43.913L39.9073 41.2278L39.1736 40.8864C38.8461 40.6251 38.6399 40.2871 38.7215 39.8685C39.4978 38.6229 41.2994 39.0014 42.6484 39.0348C45.5108 39.4133 48.4553 40.3206 50.1322 42.778C51.9302 42.778 54.0162 42.8115 55.978 42.7379C56.06 39.6407 55.9424 36.9225 55.896 33.7852C54.056 33.7451 51.8059 33.7451 49.9683 33.8254C49.8863 34.2739 50.0469 34.9136 49.8437 35.3688L47.9638 34.4246C43.4638 32.6502 37.1658 32.4629 33.0786 35.2217C30.4191 37.0327 29.6037 40.2871 30.2981 43.1561C30.8286 45.8747 33.609 47.8769 36.2685 48.8207C39.9073 50.0294 43.7097 50.9031 47.3944 52.0713C47.7609 52.2254 48.2486 52.5673 48.1705 52.9825C48.1705 53.3173 47.8002 53.512 47.5154 53.6553Z" fill="#0055A6"></path><path d="M8.85451 62.3602L9.05371 62.7917C9.06965 62.8326 9.06776 62.8778 9.04846 62.9175C9.02915 62.9572 8.99399 62.9881 8.95059 63.0035L3.05848 65.3966C3.03845 65.4059 3.01663 65.4113 2.99432 65.4125C2.97202 65.4136 2.94969 65.4105 2.92871 65.4033C2.90772 65.3961 2.88851 65.3849 2.87223 65.3706C2.85595 65.3562 2.84295 65.3388 2.83401 65.3196L2.6349 64.8881C2.62596 64.8688 2.62127 64.848 2.6211 64.8269C2.62093 64.8059 2.62529 64.785 2.63392 64.7656C2.64254 64.7462 2.65526 64.7286 2.6713 64.7139C2.68734 64.6992 2.70637 64.6878 2.72725 64.6802L8.62309 62.287C8.64338 62.2774 8.66549 62.2717 8.68814 62.2702C8.71079 62.2687 8.73353 62.2714 8.75505 62.2782C8.77657 62.285 8.79645 62.2958 8.81352 62.3098C8.8306 62.3239 8.84453 62.3411 8.85451 62.3602Z" fill="#0055A6"></path><path d="M7.11328 57.884L7.25243 58.2719C7.26026 58.2932 7.26352 58.3158 7.26203 58.3383C7.26053 58.3609 7.25432 58.3829 7.24373 58.4032C7.23315 58.4234 7.2184 58.4415 7.20035 58.4564C7.1823 58.4713 7.1613 58.4827 7.13855 58.4899L4.29018 59.394C3.41818 59.672 3.25053 60.0333 3.47118 60.6533C3.59253 60.9944 3.86991 61.3324 4.20114 61.6439L7.85409 60.4851C7.89996 60.4716 7.9496 60.4752 7.99271 60.4952C8.03581 60.5152 8.06905 60.5501 8.08552 60.5925L8.22798 60.9912C8.24079 61.0334 8.23568 61.0785 8.21373 61.1172C8.19179 61.1559 8.15472 61.185 8.11037 61.1984L3.69937 62.6018C3.67735 62.6096 3.65388 62.6132 3.63036 62.6123C3.60684 62.6114 3.58375 62.606 3.56246 62.5966C3.54117 62.5872 3.52212 62.5738 3.50644 62.5573C3.49076 62.5408 3.47876 62.5215 3.47118 62.5005L3.32541 62.0956C3.31798 62.0745 3.31514 62.0522 3.31707 62.0301C3.319 62.008 3.32566 61.9865 3.33664 61.9669C3.34762 61.9472 3.3627 61.9299 3.38098 61.9159C3.39926 61.9018 3.42037 61.8914 3.44302 61.8853L3.60661 61.8308C3.17599 61.4694 2.9159 61.1455 2.74495 60.6657C2.39251 59.6884 2.88402 59.0459 4.03391 58.6776L6.88228 57.7766C6.92807 57.7623 6.97799 57.7656 7.02123 57.7857C7.06446 57.8058 7.09754 57.8411 7.11328 57.884Z" fill="#0055A6"></path><path d="M6.30337 54.6802C6.37625 54.8538 6.43684 55.0317 6.48476 55.2128C6.67683 55.9823 6.55963 56.3943 5.58409 56.6146L2.4865 57.3077L2.59335 58.1379C2.59975 58.1581 2.60167 58.1794 2.59899 58.2004C2.5963 58.2214 2.58907 58.2416 2.57774 58.2598C2.5664 58.2781 2.55121 58.294 2.53309 58.3065C2.51498 58.319 2.49433 58.3278 2.47242 58.3325L2.23396 58.3863C2.21238 58.3917 2.18983 58.3929 2.16775 58.3896C2.14568 58.3864 2.12456 58.3788 2.10577 58.3675C2.08697 58.3561 2.07091 58.3412 2.05861 58.3237C2.04631 58.3061 2.03804 58.2864 2.03434 58.2656L1.82819 57.4557L0.959406 57.6496C0.915565 57.6591 0.869519 57.6531 0.830098 57.6327C0.790678 57.6123 0.760658 57.5789 0.745793 57.539L0.56398 57.1208C0.560676 57.1138 0.560676 57.1037 0.556942 57.0975C0.553546 57.0794 0.553991 57.061 0.558248 57.0431C0.562504 57.0253 0.570488 57.0084 0.581738 56.9935C0.592988 56.9785 0.60728 56.9659 0.623782 56.9562C0.640284 56.9465 0.658667 56.94 0.677867 56.937L1.64307 56.7221L1.41487 55.8187C1.40463 55.7747 1.41305 55.7287 1.43834 55.6905C1.46363 55.6522 1.5038 55.6248 1.5503 55.614L1.85295 55.547C1.87631 55.5416 1.90056 55.5407 1.9243 55.5442C1.94805 55.5477 1.97083 55.5556 1.99133 55.5674C2.01184 55.5792 2.02966 55.5947 2.04379 55.6129C2.05793 55.6312 2.06809 55.6519 2.07369 55.6739L2.30146 56.5749L5.39532 55.8787C5.8831 55.772 5.92575 55.638 5.84044 55.3032L5.72283 54.8375C5.69425 54.7207 5.71579 54.6537 5.80483 54.6335L6.11452 54.5634C6.19279 54.5462 6.25698 54.5758 6.30337 54.6802Z" fill="#0055A6"></path><path d="M3.3846 50.8228L3.80114 53.6693L3.92953 53.6521C5.00446 53.5119 5.34273 53.0633 5.22884 52.2799C5.15586 51.7741 5.04882 51.2731 4.90838 50.78C4.90448 50.7657 4.90212 50.7511 4.90134 50.7364C4.89618 50.7198 4.89495 50.7024 4.89772 50.6853C4.90049 50.6682 4.90721 50.6519 4.91738 50.6375C4.92756 50.6231 4.94096 50.611 4.95665 50.602C4.97233 50.593 4.98993 50.5873 5.00819 50.5854L5.31415 50.5448C5.43177 50.5285 5.49927 50.555 5.54566 50.6858C5.72458 51.1739 5.85217 51.6773 5.92657 52.1888C6.06904 53.1661 5.72034 54.1809 4.03968 54.402L3.2244 54.5056C1.93204 54.677 1.01365 54.1108 0.831924 52.8952C0.650536 51.6538 1.38754 50.9171 2.67244 50.7489L3.16021 50.6858C3.18458 50.6797 3.21004 50.6785 3.23495 50.6822C3.25985 50.6859 3.28366 50.6945 3.30481 50.7074C3.32596 50.7203 3.344 50.7373 3.35774 50.7572C3.37149 50.777 3.38063 50.7994 3.3846 50.8228ZM2.78302 51.5059C1.76109 51.6398 1.41943 52.0549 1.52958 52.8048C1.63643 53.5353 2.13871 53.8865 3.11425 53.7596L3.19583 53.7487L2.86494 51.4965L2.78302 51.5059Z" fill="#0055A6"></path><path d="M1.07341 47.863C1.09453 48.2586 1.22292 48.6106 1.51854 49.0249L5.33125 48.838C5.37879 48.8381 5.42459 48.8549 5.45956 48.8852C5.49453 48.9155 5.51614 48.957 5.5201 49.0016L5.54495 49.4206C5.54532 49.4648 5.52729 49.5073 5.49471 49.5392C5.46212 49.5711 5.41758 49.5897 5.3706 49.5911L0.731411 49.8193C0.708206 49.8211 0.68485 49.8185 0.662725 49.8117C0.6406 49.8049 0.620153 49.7939 0.602589 49.7796C0.585026 49.7652 0.570702 49.7476 0.560465 49.728C0.550228 49.7083 0.544284 49.6869 0.542984 49.6651L0.521443 49.2632C0.520101 49.2413 0.523523 49.2193 0.531499 49.1986C0.539475 49.178 0.551839 49.159 0.567839 49.143C0.58384 49.127 0.603141 49.1142 0.624569 49.1054C0.645998 49.0966 0.669108 49.092 0.692488 49.0919L0.884643 49.0825C0.542982 48.6706 0.4006 48.282 0.379061 47.8973C0.375756 47.7765 0.425449 47.7166 0.535941 47.7096L0.906096 47.6932C1.00591 47.6862 1.06637 47.743 1.07341 47.863Z" fill="#0055A6"></path><path d="M5.55517 43.3968L5.53737 43.8088C5.53528 43.854 5.51425 43.8966 5.47887 43.9274C5.44349 43.9581 5.39664 43.9744 5.34852 43.9727L2.35438 43.859C1.43599 43.8255 1.14037 44.1067 1.11552 44.7562C1.09772 45.1144 1.22611 45.5228 1.42191 45.9247L5.25948 46.0688C5.30694 46.0724 5.35122 46.0927 5.38358 46.1256C5.41593 46.1585 5.43401 46.2016 5.43425 46.2463L5.41644 46.6645C5.41484 46.6863 5.40868 46.7076 5.39832 46.7272C5.38795 46.7467 5.37358 46.7641 5.35604 46.7785C5.33849 46.7928 5.31812 46.8037 5.29608 46.8106C5.27403 46.8175 5.25076 46.8202 5.22759 46.8187L0.58883 46.6478C0.565374 46.6476 0.542192 46.643 0.520643 46.6343C0.499094 46.6256 0.479612 46.6129 0.463341 46.597C0.44707 46.5812 0.434335 46.5624 0.425886 46.5418C0.417438 46.5212 0.413444 46.4993 0.41414 46.4772L0.43195 46.0485C0.433258 46.0266 0.439223 46.0052 0.449493 45.9856C0.459762 45.9659 0.474125 45.9484 0.491731 45.9341C0.509336 45.9197 0.529826 45.9089 0.551983 45.9021C0.574139 45.8953 0.597512 45.8928 0.620715 45.8948L0.791757 45.9014C0.531673 45.4193 0.410837 45.0307 0.43195 44.5253C0.474519 43.4973 1.17599 43.0624 2.38669 43.1091L5.3771 43.2197C5.40117 43.2203 5.42489 43.2253 5.44689 43.2346C5.46889 43.2438 5.48873 43.257 5.50528 43.2735C5.52183 43.2899 5.53476 43.3093 5.54332 43.3305C5.55188 43.3516 5.55591 43.3742 5.55517 43.3968Z" fill="#0055A6"></path><path d="M6.15251 39.2018L6.08832 39.5935C6.08487 39.6158 6.07678 39.6371 6.06452 39.6564C6.05226 39.6757 6.03607 39.6925 6.01688 39.7059C5.99768 39.7193 5.97586 39.729 5.95267 39.7345C5.92948 39.7399 5.90538 39.741 5.88174 39.7376L5.68255 39.7107C5.8714 40.1527 5.99606 40.6012 5.9211 41.0767C5.80721 41.7966 5.36912 42.4091 4.24407 42.2549L4.134 42.2386C3.16176 42.1046 2.75973 41.5019 2.99445 39.9918L3.09426 39.3657L2.73487 39.3155C1.97625 39.2119 1.67733 39.4194 1.57421 40.0791C1.505 40.5129 1.46104 40.9499 1.44251 41.3882C1.43879 41.4049 1.43878 41.4115 1.43505 41.4283C1.42097 41.505 1.38171 41.5789 1.26782 41.5622L0.951008 41.5186C0.851282 41.505 0.80863 41.438 0.80863 41.3177C0.793214 40.8719 0.823029 40.4257 0.89767 39.9852C1.08271 38.8101 1.78791 38.4218 2.85198 38.569L5.99605 39.0075C6.04407 39.014 6.08742 39.0381 6.1167 39.0744C6.14599 39.1108 6.15885 39.1566 6.15251 39.2018ZM3.66404 39.4463L3.56423 40.0721C3.40396 41.0969 3.60357 41.4014 4.24407 41.4918L4.35092 41.505C4.99897 41.5957 5.21631 41.3344 5.29458 40.8422C5.35505 40.4505 5.28381 40.0857 5.11286 39.6469L3.66404 39.4463Z" fill="#0055A6"></path><path d="M6.94886 36.038C6.93092 36.2238 6.89993 36.4082 6.85608 36.5901C6.6602 37.3568 6.35424 37.6749 5.37869 37.4573L2.28109 36.7641L1.97835 37.5511C1.97433 37.5718 1.96592 37.5914 1.95363 37.6089C1.94134 37.6264 1.92542 37.6413 1.90682 37.6529C1.88823 37.6645 1.86735 37.6724 1.84542 37.6761C1.8235 37.6799 1.80099 37.6795 1.77924 37.6749L1.5407 37.6216C1.51869 37.6171 1.49791 37.6084 1.47967 37.596C1.46144 37.5836 1.44614 37.5677 1.43477 37.5495C1.4234 37.5312 1.41619 37.5109 1.41361 37.4899C1.41103 37.4688 1.41313 37.4475 1.41978 37.4273L1.62601 36.617L0.757318 36.4227C0.713463 36.4122 0.675172 36.3871 0.649631 36.3519C0.624089 36.3168 0.61305 36.2742 0.618583 36.2319L0.654199 35.7834C0.658285 35.7749 0.660671 35.7658 0.661237 35.7565C0.666848 35.7393 0.676005 35.7234 0.688184 35.7095C0.700363 35.6957 0.715326 35.6842 0.732214 35.6759C0.749102 35.6675 0.767586 35.6623 0.786604 35.6606C0.805623 35.6589 0.824804 35.6608 0.84305 35.6661L1.81113 35.8803L2.03925 34.98C2.05169 34.9362 2.08153 34.8986 2.1226 34.875C2.16368 34.8513 2.21286 34.8433 2.25998 34.8527L2.56264 34.9228C2.60911 34.9335 2.64927 34.9609 2.67451 34.9991C2.69975 35.0373 2.70805 35.0833 2.69764 35.1272L2.46986 36.0279L5.56381 36.724C6.0515 36.8311 6.15462 36.7306 6.23662 36.3962L6.35754 35.9305C6.38612 35.8137 6.43582 35.7635 6.52486 35.7834L6.83455 35.8538C6.91655 35.8705 6.95921 35.9239 6.94886 36.038Z" fill="#0055A6"></path><path d="M1.84198 33.0222L1.70655 33.4404C1.69202 33.4837 1.66002 33.5198 1.61744 33.5412C1.57485 33.5625 1.52507 33.5673 1.47877 33.5545L0.781122 33.3536C0.734976 33.3401 0.696362 33.31 0.673707 33.2699C0.651052 33.2298 0.646194 33.1828 0.660194 33.1394L0.795198 32.7208C0.809981 32.6776 0.842073 32.6415 0.884662 32.6203C0.927251 32.599 0.976985 32.5941 1.02331 32.6067L1.72105 32.8076C1.76699 32.8215 1.80535 32.8517 1.82795 32.8918C1.85054 32.9319 1.85557 32.9787 1.84198 33.0222ZM7.38878 34.6424L7.26082 35.0341C7.24641 35.0775 7.21435 35.1138 7.17161 35.1351C7.12887 35.1564 7.07892 35.161 7.03262 35.1478L2.59306 33.8691C2.54713 33.8554 2.50876 33.8252 2.48615 33.7852C2.46355 33.7452 2.45852 33.6984 2.47213 33.6549L2.60052 33.2597C2.61514 33.2165 2.64716 33.1805 2.68972 33.1592C2.73228 33.138 2.78199 33.1333 2.82821 33.1461L7.26786 34.4283C7.29092 34.4346 7.31241 34.4452 7.33104 34.4595C7.34968 34.4738 7.36509 34.4914 7.37636 34.5113C7.38763 34.5313 7.39454 34.5532 7.39667 34.5757C7.39881 34.5982 7.39612 34.6209 7.38878 34.6424Z" fill="#0055A6"></path><path d="M8.50805 31.8531C8.01281 33.0216 6.94128 33.3094 5.69903 32.8441L5.05811 32.6062C3.81213 32.1409 3.24575 31.2371 3.7409 30.0686C4.23571 28.9 5.31064 28.6022 6.55323 29.0675L7.19754 29.3085C8.44013 29.7738 9.00286 30.6846 8.50805 31.8531ZM6.25761 29.7672C5.39638 29.4425 4.70898 29.5632 4.39225 30.3096C4.07883 31.0494 4.48129 31.5786 5.35372 31.9064L5.99431 32.1444C6.85596 32.4691 7.54285 32.3554 7.86009 31.6086C8.16978 30.8688 7.77105 30.333 6.89862 30.0082L6.25761 29.7672Z" fill="#0055A6"></path><path d="M11.2987 26.3023L11.0921 26.664C11.0693 26.7038 11.0307 26.7335 10.9847 26.7466C10.9387 26.7597 10.889 26.7552 10.8465 26.7341L8.20153 25.4016C7.38957 24.9897 6.99449 25.1237 6.66698 25.6964C6.48526 26.0146 6.41071 26.4363 6.39621 26.8747L9.78909 28.5856C9.83007 28.6092 9.86037 28.6461 9.87418 28.6893C9.888 28.7326 9.88436 28.7791 9.86397 28.82L9.65035 29.1883C9.62665 29.2264 9.58811 29.2544 9.54289 29.2662C9.49767 29.2781 9.44932 29.2729 9.40808 29.2518L5.31051 27.1827C5.28914 27.1734 5.27003 27.1601 5.25437 27.1435C5.23871 27.127 5.22683 27.1076 5.21949 27.0866C5.21215 27.0655 5.20949 27.0433 5.21168 27.0212C5.21388 26.9992 5.22088 26.9778 5.23224 26.9584L5.44594 26.5803C5.45741 26.5612 5.47283 26.5445 5.49127 26.5311C5.50971 26.5177 5.53081 26.5079 5.55333 26.5023C5.57585 26.4967 5.59935 26.4953 5.62242 26.4984C5.6455 26.5014 5.66769 26.5088 5.68771 26.52L5.84094 26.597C5.83018 26.0547 5.90513 25.6528 6.15767 25.2074C6.67402 24.3001 7.51041 24.1965 8.57873 24.7355L11.2238 26.0679C11.2663 26.0901 11.2979 26.127 11.3119 26.1708C11.3259 26.2146 11.3211 26.2617 11.2987 26.3023Z" fill="#0055A6"></path><path d="M13.7585 22.8144L13.52 23.1391C13.4925 23.1762 13.4505 23.2016 13.4032 23.2097C13.3559 23.2178 13.307 23.208 13.2674 23.1824L13.1034 23.0788C13.0679 23.5507 12.9685 24.0063 12.6798 24.4011C12.2417 25.0039 11.5619 25.3753 10.622 24.7695L10.5329 24.7127C9.72137 24.1905 9.63937 23.4838 10.5582 22.2249L10.9391 21.7028L10.6365 21.5084C10.0062 21.1035 9.63937 21.167 9.23733 21.7194C8.97377 22.0795 8.73131 22.4529 8.51101 22.8378C8.50024 22.851 8.49651 22.8576 8.48574 22.8713C8.47716 22.8895 8.46425 22.9057 8.44801 22.9186C8.43176 22.9315 8.4126 22.9407 8.392 22.9455C8.37139 22.9504 8.34989 22.9507 8.32911 22.9466C8.30834 22.9424 8.28885 22.9338 8.27213 22.9215L8.00874 22.7541C7.92682 22.7003 7.91639 22.6201 7.97312 22.5131C8.17061 22.1084 8.40532 21.7208 8.67459 21.3546C9.39005 20.3737 10.2021 20.3166 11.0886 20.8893L13.7125 22.5765C13.7519 22.6025 13.7789 22.642 13.7875 22.6866C13.7961 22.7311 13.7857 22.7771 13.7585 22.8144ZM11.4091 22.0072L11.0282 22.5298C10.4083 23.3833 10.4439 23.7415 10.978 24.0865L11.0671 24.1434C11.6083 24.4915 11.925 24.3443 12.2243 23.9324C12.4629 23.6076 12.5697 23.2529 12.6193 22.7875L11.4091 22.0072Z" fill="#0055A6"></path><path d="M14.9723 21.3808L14.6733 21.7289C14.6585 21.7449 14.6404 21.7581 14.6202 21.7675C14.5999 21.7769 14.5778 21.7824 14.5552 21.7836C14.5326 21.7848 14.51 21.7818 14.4887 21.7747C14.4674 21.7675 14.4478 21.7565 14.4311 21.7421L9.35429 17.9188C9.33632 17.9067 9.32111 17.8913 9.30956 17.8735C9.29801 17.8558 9.29035 17.8361 9.28703 17.8155C9.28371 17.7949 9.28481 17.7739 9.29024 17.7538C9.29567 17.7336 9.30534 17.7147 9.31867 17.6981L9.61802 17.3495C9.63184 17.3334 9.64896 17.3201 9.66835 17.3104C9.68774 17.3007 9.70902 17.2947 9.73091 17.2929C9.7528 17.291 9.77487 17.2933 9.7958 17.2996C9.81673 17.3059 9.83609 17.3162 9.85274 17.3296L14.9297 21.153C14.967 21.1782 14.9924 21.2161 15.0004 21.2587C15.0083 21.3013 14.9983 21.3451 14.9723 21.3808Z" fill="#0055A6"></path><path d="M18.948 17.4573C17.9046 18.3743 16.5734 18.4682 15.1916 17.0824L14.3871 16.2752C13.0025 14.8859 13.1875 13.6438 14.2306 12.7233C15.2774 11.8024 16.6015 11.7155 17.9828 13.1049L18.7878 13.9116C20.1691 15.2978 19.9911 16.5364 18.948 17.4573ZM17.3708 13.6438C16.3241 12.5924 15.4732 12.5924 14.7432 13.2353C14.017 13.8746 13.9528 14.6849 14.9995 15.7363L15.8007 16.5431C16.8474 17.5909 17.7054 17.5878 18.4387 16.9414C19.1613 16.3056 19.2221 15.4988 18.1754 14.4505L17.3708 13.6438Z" fill="#0055A6"></path><path d="M20.4467 10.8554C20.1121 11.0965 19.8769 11.3943 19.6811 11.8596L21.999 14.7087C22.027 14.7453 22.0392 14.7905 22.0332 14.8352C22.0272 14.8799 22.0035 14.9208 21.9668 14.9498L21.6106 15.2044C21.572 15.2295 21.5247 15.2397 21.4783 15.2328C21.432 15.2259 21.3902 15.2025 21.3618 15.1674L18.542 11.6992C18.5267 11.6825 18.5151 11.6631 18.5081 11.6421C18.501 11.6211 18.4985 11.5989 18.5009 11.577C18.5032 11.5551 18.5102 11.5338 18.5216 11.5145C18.5329 11.4952 18.5483 11.4783 18.5669 11.4648L18.9051 11.2203C18.9239 11.2068 18.9453 11.197 18.9682 11.1916C18.9911 11.1861 19.0149 11.1851 19.0382 11.1886C19.0615 11.192 19.0838 11.1999 19.1037 11.2117C19.1237 11.2235 19.1409 11.239 19.1544 11.2573L19.2716 11.3978C19.4389 10.9021 19.6989 10.5743 20.0264 10.3399C20.1262 10.2663 20.2115 10.2695 20.2757 10.3531L20.5034 10.6312C20.5643 10.7047 20.5465 10.7818 20.4467 10.8554Z" fill="#0055A6"></path><path d="M24.5747 8.27369L24.3329 8.48789C24.5644 8.54466 24.831 8.68525 25.0981 9.07696L25.1375 9.13382C25.6749 9.92736 25.4504 10.6809 24.2688 11.3907C23.971 11.5831 23.634 11.7153 23.2791 11.7789C23.1901 11.916 23.1826 12.0332 23.2539 12.1406C23.3396 12.2644 23.4426 12.2909 23.6493 12.2274L24.9809 11.819C25.8529 11.548 26.7146 11.3167 27.1738 11.9966L27.2131 12.0534C27.6831 12.7465 27.4798 13.466 26.2198 14.2195C25.0091 14.9492 24.1549 14.839 23.6779 14.1323L23.6315 14.0657C23.5129 13.8877 23.4391 13.6866 23.4156 13.4777C23.3921 13.2688 23.4196 13.0576 23.496 12.8602L23.4248 12.8703C23.1114 12.9171 22.8448 12.743 22.6915 12.5187L22.6878 12.512C22.6149 12.4076 22.5729 12.2868 22.566 12.1621C22.5592 12.0374 22.5878 11.9132 22.6489 11.8022C22.268 11.7388 21.976 11.548 21.7268 11.1796L21.6874 11.1193C21.2531 10.4764 21.2067 9.61276 22.5275 8.81922L24.2083 7.81149C24.2541 7.78474 24.3091 7.77542 24.362 7.7854C24.4149 7.79538 24.4618 7.82393 24.4931 7.86524L24.6174 8.05256C24.6816 8.14634 24.6497 8.2067 24.5747 8.27369ZM24.4289 9.47529C24.1371 9.04347 23.699 8.82935 22.8696 9.32465C22.0079 9.84052 22.0828 10.316 22.357 10.7209L22.3959 10.7778C22.6095 11.0959 23.0476 11.4207 23.9304 10.8915C24.7598 10.3962 24.7636 9.96747 24.4679 9.53565L24.4289 9.47529ZM26.4972 12.4015C26.3051 12.1168 25.9813 12.1503 25.1801 12.3984L24.1689 12.7095C24.0691 13.0241 24.0372 13.2955 24.2936 13.6705L24.3362 13.7375C24.6103 14.1393 25.0339 14.2397 25.8885 13.7309C26.7643 13.2052 26.8069 12.8536 26.5366 12.4584L26.4972 12.4015Z" fill="#0055A6"></path><path d="M30.6559 10.0116L30.2787 10.1857C30.2572 10.1955 30.2339 10.2012 30.21 10.2024C30.1862 10.2037 30.1623 10.2005 30.1398 10.193C30.1173 10.1856 30.0966 10.174 30.0788 10.159C30.0611 10.1439 30.0467 10.1258 30.0364 10.1055L29.9475 9.93801C29.6663 10.3328 29.3425 10.6845 28.8833 10.899C28.1889 11.2202 27.4022 11.2304 26.8999 10.2694L26.8502 10.1791C26.4159 9.34894 26.7115 8.6924 28.1673 8.01959L28.7727 7.73841L28.6125 7.43043C28.2709 6.78402 27.9181 6.67039 27.2808 6.96823C26.8633 7.16101 26.4569 7.37455 26.0635 7.60795C26.05 7.61582 26.0357 7.6225 26.0209 7.62788C25.9459 7.6613 25.8606 7.67493 25.8105 7.57453L25.6681 7.30308C25.6221 7.21935 25.6578 7.14582 25.7645 7.07884C26.1456 6.81406 26.552 6.58319 26.9786 6.38921C28.1139 5.86353 28.8547 6.18833 29.3317 7.09559L30.7379 9.78075C30.7593 9.82163 30.7627 9.86881 30.7474 9.91204C30.732 9.95527 30.6991 9.99105 30.6559 10.0116ZM29.0254 8.22397L28.4204 8.50164C27.4303 8.96026 27.2808 9.29168 27.5658 9.83753L27.6158 9.92788C27.904 10.4835 28.2601 10.5003 28.7334 10.2795C29.111 10.1055 29.3889 9.84104 29.677 9.45906L29.0254 8.22397Z" fill="#0055A6"></path><path d="M35.1781 8.37723L34.7649 8.51774C34.7425 8.52525 34.7187 8.52853 34.6949 8.52739C34.6712 8.52625 34.6479 8.52071 34.6264 8.5111C34.6049 8.50149 34.5856 8.48798 34.5697 8.47136C34.5537 8.45474 34.5414 8.43533 34.5335 8.41423L33.5082 5.76607C33.1952 4.95227 32.8068 4.80155 32.1555 5.02268C31.7957 5.14653 31.4433 5.41439 31.1195 5.73257L32.4333 9.13377C32.4485 9.17603 32.4459 9.22214 32.426 9.26263C32.4061 9.30312 32.3705 9.33491 32.3265 9.35147L31.9062 9.49549C31.8618 9.50901 31.8135 9.50572 31.7716 9.48632C31.7297 9.46692 31.6975 9.43294 31.6818 9.39159L30.0905 5.2805C30.082 5.26029 30.0778 5.23868 30.0782 5.21692C30.0785 5.19517 30.0835 5.17371 30.0928 5.15378C30.1021 5.13385 30.1155 5.11586 30.1322 5.10084C30.149 5.08582 30.1687 5.07409 30.1903 5.06631L30.621 4.91878C30.6429 4.91148 30.6662 4.90839 30.6895 4.90969C30.7128 4.91098 30.7355 4.91664 30.7564 4.92632C30.7774 4.936 30.796 4.94951 30.8113 4.96606C30.8266 4.9826 30.8382 5.00186 30.8454 5.02268L30.9058 5.17651C31.2798 4.76495 31.618 4.51383 32.1236 4.33975C33.1522 3.98815 33.8465 4.43672 34.2631 5.50785L35.2883 8.15642C35.3036 8.19948 35.3008 8.24645 35.2803 8.28757C35.2597 8.32869 35.2232 8.3608 35.1781 8.37723Z" fill="#0055A6"></path><path d="M35.5509 2.62238L35.1021 2.73609C35.0554 2.74756 35.0059 2.74138 34.964 2.71888C34.9221 2.69639 34.8913 2.65937 34.8781 2.61576L34.6855 1.9526C34.6735 1.90908 34.6802 1.86284 34.7043 1.82397C34.7283 1.7851 34.7677 1.75675 34.8139 1.74511L35.2624 1.62788C35.3091 1.61648 35.3588 1.62273 35.4007 1.64529C35.4427 1.66785 35.4736 1.70493 35.4868 1.74862L35.6789 2.41129C35.6906 2.45521 35.6839 2.50169 35.66 2.54102C35.6362 2.58036 35.5971 2.60951 35.5509 2.62238ZM37.0602 7.89886L36.6366 8.00596C36.5899 8.01768 36.5401 8.01158 36.498 7.98897C36.456 7.96636 36.4252 7.92908 36.4122 7.88522L35.1949 3.67015C35.1883 3.64839 35.1864 3.62562 35.1893 3.60317C35.1922 3.58072 35.1998 3.55903 35.2117 3.53939C35.2237 3.51974 35.2396 3.50252 35.2587 3.48875C35.2778 3.47497 35.2996 3.4649 35.3228 3.45914L35.7431 3.35205C35.7898 3.34109 35.8393 3.34752 35.8811 3.37002C35.9229 3.39251 35.9539 3.42933 35.9676 3.47278L37.1849 7.68777C37.1916 7.70933 37.1937 7.73193 37.1911 7.75427C37.1885 7.7766 37.1811 7.79822 37.1695 7.81786C37.1579 7.8375 37.1423 7.85478 37.1235 7.86869C37.1048 7.88259 37.0832 7.89285 37.0602 7.89886Z" fill="#0055A6"></path><path d="M41.42 7.0047L38.7141 7.50351C38.3298 7.574 38.1194 7.37615 38.0697 7.13867L38.0378 6.97783C37.9854 6.77981 38.0186 6.57031 38.1302 6.39529L39.8784 3.26507C39.8917 3.24005 39.899 3.21252 39.8995 3.18453C39.8924 3.14792 39.8676 3.12767 39.7964 3.1413L37.6213 3.53963C37.5977 3.54432 37.5733 3.54457 37.5496 3.54037C37.5258 3.53616 37.5032 3.52759 37.483 3.51514C37.4628 3.50269 37.4454 3.48661 37.4319 3.46782C37.4183 3.44903 37.4088 3.42791 37.404 3.40566L37.3468 3.11754C37.3381 3.07321 37.3481 3.02744 37.3747 2.98992C37.4013 2.95241 37.4423 2.9261 37.4892 2.91658L40.1239 2.43453C40.4908 2.36443 40.6581 2.50151 40.7114 2.75271L40.7541 2.95709C40.7878 3.13055 40.7482 3.30953 40.6436 3.4559L38.8635 6.65973C38.8519 6.67447 38.8437 6.69133 38.8394 6.70923C38.8352 6.72712 38.8349 6.74565 38.8387 6.76364C38.8457 6.80375 38.8602 6.82711 38.9244 6.81698L41.2883 6.38206C41.3117 6.37744 41.3358 6.37726 41.3593 6.38152C41.3828 6.38578 41.4051 6.3944 41.425 6.40687C41.4449 6.41935 41.462 6.43542 41.4752 6.45417C41.4884 6.47291 41.4975 6.49394 41.502 6.51603L41.5624 6.80375C41.5709 6.84807 41.5609 6.89378 41.5343 6.93126C41.5077 6.96873 41.4667 6.99506 41.42 7.0047Z" fill="#0055A6"></path><path d="M45.686 6.58259L45.2657 6.61959C45.2176 6.62298 45.17 6.60834 45.1333 6.57887C45.0966 6.5494 45.0738 6.50748 45.0698 6.46226L45.052 6.27462C44.6392 6.55261 44.2049 6.77023 43.6955 6.81385C42.9229 6.88084 42.1863 6.62621 42.0828 5.56162L42.072 5.45763C41.983 4.53722 42.5064 4.02828 44.1228 3.88769L44.792 3.83084L44.7601 3.48937C44.6889 2.77286 44.404 2.54862 43.6955 2.60859C43.232 2.64891 42.771 2.71154 42.3142 2.79623C42.2964 2.79973 42.2856 2.79973 42.2678 2.80284C42.1863 2.80946 42.1043 2.78961 42.0936 2.67908L42.065 2.38115C42.0542 2.28737 42.1114 2.23052 42.2393 2.20364C42.6945 2.085 43.1606 2.00651 43.6313 1.96919C44.8918 1.86217 45.4578 2.41465 45.5576 3.41887L45.8496 6.39527C45.8535 6.44035 45.8386 6.48509 45.8081 6.52005C45.7775 6.555 45.7338 6.57743 45.686 6.58259ZM44.8454 4.36624L44.1763 4.42661C43.0761 4.52047 42.809 4.7747 42.8695 5.381L42.8803 5.48451C42.9407 6.09742 43.2649 6.2314 43.7883 6.18777C44.2049 6.15077 44.568 6.00006 44.9808 5.73922L44.8454 4.36624Z" fill="#0055A6"></path><path d="M49.1763 6.54596C48.9796 6.57559 48.7809 6.59238 48.5817 6.59621C47.7416 6.60944 47.3395 6.40849 47.3217 5.46463L47.2753 2.47148L46.3888 2.39126C46.3437 2.39231 46.2999 2.37682 46.2666 2.34806C46.2334 2.31929 46.2134 2.27951 46.2108 2.23711L46.2071 2.00617C46.2065 1.98508 46.2106 1.96411 46.2191 1.94456C46.2275 1.92502 46.2401 1.90732 46.2562 1.89257C46.2722 1.87781 46.2913 1.86633 46.3123 1.85882C46.3332 1.85131 46.3556 1.84793 46.378 1.84891L47.2646 1.83528L47.2505 0.995005C47.251 0.952841 47.2673 0.912193 47.2967 0.880308C47.326 0.848423 47.3664 0.827375 47.4107 0.820919L47.884 0.747314H47.9126C47.932 0.74746 47.9512 0.751395 47.9689 0.75887C47.9866 0.766344 48.0025 0.777196 48.0156 0.790739C48.0286 0.804282 48.0385 0.820222 48.0447 0.837551C48.0508 0.85488 48.0531 0.87322 48.0513 0.891413L48.0658 1.82515L49.0517 1.81191C49.0756 1.81125 49.0994 1.81508 49.1218 1.82318C49.1441 1.83127 49.1645 1.84346 49.1818 1.85904C49.199 1.87462 49.2128 1.89328 49.2223 1.91393C49.2318 1.93457 49.2369 1.95679 49.2372 1.97929L49.2442 2.2706C49.2441 2.31619 49.2251 2.35993 49.1911 2.39245C49.1571 2.42498 49.111 2.4437 49.0625 2.44461L48.0766 2.46135L48.1263 5.4545C48.1333 5.92643 48.2616 5.99341 48.6281 5.9868L49.1374 5.98018C49.2653 5.97667 49.3295 6.01016 49.3333 6.0974L49.3366 6.39876C49.3366 6.47547 49.2939 6.52571 49.1763 6.54596Z" fill="#0055A6"></path><path d="M50.7652 6.62637L50.328 6.5995C50.2798 6.59676 50.2348 6.57622 50.2026 6.54237C50.1705 6.50852 50.1539 6.4641 50.1565 6.4188L50.4274 2.05659C50.431 2.01162 50.4531 1.96973 50.4889 1.93974C50.5247 1.90975 50.5715 1.89401 50.6194 1.89583L51.0575 1.91911C51.1059 1.92277 51.1509 1.94409 51.1828 1.97852C51.2146 2.01294 51.2309 2.05774 51.2281 2.10333L50.9581 6.46242C50.9552 6.50805 50.9333 6.55077 50.8973 6.58143C50.8612 6.61208 50.8138 6.62821 50.7652 6.62637ZM51.1213 1.16919L50.6551 1.14232C50.607 1.13954 50.5621 1.11898 50.5301 1.08513C50.4982 1.05127 50.4818 1.00689 50.4845 0.961698L50.5268 0.278682C50.5298 0.233496 50.5517 0.191265 50.5876 0.161163C50.6236 0.13106 50.6707 0.115519 50.7188 0.117917L51.1859 0.141602C51.2337 0.145068 51.2782 0.165844 51.31 0.19955C51.3418 0.233257 51.3585 0.277264 51.3565 0.322301L51.3134 1.00843C51.3106 1.0537 51.2888 1.09607 51.2528 1.12622C51.2167 1.15637 51.1694 1.17182 51.1213 1.16919Z" fill="#0055A6"></path><path d="M53.9021 6.97394C52.5705 6.80337 52.0115 5.8926 52.1937 4.64388L52.2856 3.99794C52.4636 2.74922 53.2612 2.00895 54.5895 2.17992C55.9211 2.35049 56.4867 3.26118 56.3087 4.50999L56.2167 5.15632C56.0346 6.40504 55.2304 7.14492 53.9021 6.97394ZM55.5112 4.40951C55.6363 3.54236 55.348 2.94308 54.4967 2.83247C53.657 2.72896 53.2082 3.22426 53.0798 4.09834L52.987 4.74435C52.8628 5.6115 53.1436 6.21078 53.9949 6.32131C54.8354 6.4249 55.2942 5.9296 55.4193 5.05584L55.5112 4.40951Z" fill="#0055A6"></path><path d="M60.2972 8.18293L59.8739 8.08253C59.8505 8.07705 59.8284 8.06721 59.809 8.05359C59.7896 8.03997 59.7733 8.02285 59.761 8.00322C59.7488 7.9836 59.7408 7.96187 59.7376 7.93931C59.7344 7.91675 59.736 7.89381 59.7423 7.87185L60.4826 5.13644C60.7104 4.29617 60.4793 3.96794 59.8061 3.80398C59.4359 3.71674 58.9837 3.75024 58.5241 3.8441L57.5742 7.35279C57.5611 7.39602 57.5309 7.43291 57.4898 7.45592C57.4487 7.47894 57.3999 7.48634 57.3532 7.47663L56.9192 7.37305C56.8745 7.36053 56.8366 7.33236 56.8133 7.29432C56.7901 7.25629 56.7832 7.21131 56.7942 7.16866L57.9445 2.92671C57.9492 2.90496 57.9585 2.88432 57.9719 2.86605C57.9853 2.84777 58.0025 2.83224 58.0225 2.82038C58.0424 2.80852 58.0647 2.80058 58.0881 2.79703C58.1114 2.79349 58.1352 2.79442 58.1581 2.79976L58.5995 2.90685C58.6223 2.91188 58.6438 2.92128 58.6626 2.93446C58.6814 2.94765 58.6972 2.96433 58.7088 2.98347C58.7205 3.00262 58.7278 3.02381 58.7304 3.04574C58.7329 3.06767 58.7307 3.08985 58.7237 3.11092L58.6815 3.26818C59.2363 3.12767 59.667 3.09768 60.1903 3.22464C61.252 3.47926 61.5617 4.21595 61.262 5.32416L60.5183 8.05917C60.5061 8.10297 60.4761 8.14051 60.4347 8.16367C60.3933 8.18682 60.3439 8.19375 60.2972 8.18293Z" fill="#0055A6"></path><path d="M68.0247 4.58412L67.619 4.42686C67.224 4.27303 67.0567 4.33651 66.8679 4.77184L66.6153 5.34425L67.5013 5.68571C67.5224 5.69307 67.5417 5.70434 67.5581 5.71885C67.5744 5.73335 67.5875 5.75081 67.5965 5.77016C67.6056 5.78952 67.6104 5.81038 67.6107 5.83152C67.611 5.85266 67.6068 5.87364 67.5983 5.89321L67.4624 6.20126C67.4539 6.21997 67.4414 6.23683 67.4257 6.25079C67.41 6.26475 67.3913 6.27552 67.371 6.28243C67.3506 6.28933 67.329 6.29223 67.3074 6.29092C67.2858 6.28962 67.2648 6.28416 67.2455 6.27487L66.3586 5.93021L64.7743 9.546C64.7547 9.58555 64.7204 9.61695 64.6778 9.63425C64.6352 9.65156 64.5874 9.65355 64.5433 9.63986L64.13 9.47902C64.0869 9.46067 64.0527 9.42772 64.0343 9.38673C64.0159 9.34574 64.0146 9.29973 64.0307 9.25788L65.6182 5.64209L64.839 5.23715C64.7978 5.22153 64.7644 5.19172 64.7458 5.1538C64.7272 5.11588 64.7246 5.07271 64.7387 5.03308L64.8348 4.81857C64.8529 4.78043 64.8863 4.75059 64.9277 4.73555C64.9691 4.72052 65.0152 4.72152 65.0559 4.73835L65.875 5.05645L66.1242 4.48723C66.4976 3.63683 67.0459 3.5531 67.7863 3.84122C67.9463 3.9009 68.0981 3.97844 68.2384 4.07216C68.3204 4.13244 68.3742 4.1893 68.3453 4.26291L68.2277 4.52415C68.1921 4.61099 68.1175 4.61761 68.0247 4.58412Z" fill="#0055A6"></path><path d="M67.8004 11.1532C66.6145 10.5672 66.4191 9.53298 67.0419 8.41783L67.3623 7.84191C67.9851 6.72716 68.9996 6.28872 70.1854 6.87469C71.3713 7.45722 71.5742 8.49494 70.9507 9.60969L70.6302 10.1891C70.0074 11.3039 68.9855 11.7357 67.8004 11.1532ZM70.2426 9.26161C70.6732 8.48832 70.6161 7.83218 69.8575 7.45722C69.1106 7.08888 68.5085 7.41009 68.0704 8.1904L67.7499 8.76942C67.3193 9.54271 67.369 10.1957 68.1276 10.5672C68.8753 10.939 69.484 10.6174 69.9221 9.83745L70.2426 9.26161Z" fill="#0055A6"></path><path d="M74.4487 10.0181C74.0967 9.80738 73.7191 9.69685 73.1883 9.68321L71.1237 12.6966C71.0969 12.7333 71.0561 12.759 71.0097 12.7683C70.9634 12.7777 70.915 12.77 70.8745 12.7469L70.4969 12.5225C70.4593 12.4961 70.4336 12.4573 70.425 12.4139C70.4164 12.3704 70.4255 12.3256 70.4505 12.2882L72.9606 8.62213C72.9726 8.60304 72.9885 8.58639 73.0075 8.57317C73.0264 8.55994 73.0479 8.5504 73.0708 8.5451C73.0937 8.53981 73.1175 8.53886 73.1408 8.54233C73.1641 8.54579 73.1865 8.55359 73.2065 8.56527L73.5659 8.78297C73.5855 8.79496 73.6022 8.81054 73.6152 8.82878C73.6282 8.84702 73.6371 8.86753 73.6415 8.8891C73.6458 8.91067 73.6454 8.93284 73.6404 8.95427C73.6354 8.97571 73.6258 8.99597 73.6123 9.01384L73.5087 9.16455C74.0644 9.1443 74.481 9.26503 74.8231 9.47253C74.9298 9.536 74.9547 9.61312 74.8975 9.69996L74.6947 9.9947C74.6408 10.0749 74.5555 10.085 74.4487 10.0181Z" fill="#0055A6"></path><path d="M75.6893 16.1681C75.3071 15.8551 74.9523 15.5137 74.6284 15.1471C74.529 15.0331 74.5398 14.9965 74.6036 14.9229L74.8421 14.6651C74.8548 14.6503 74.8706 14.6381 74.8886 14.6295C74.9066 14.6209 74.9263 14.6159 74.9465 14.6149C74.9667 14.614 74.9869 14.6171 75.0057 14.624C75.0245 14.6309 75.0416 14.6415 75.0557 14.655C75.062 14.6615 75.0693 14.6671 75.0773 14.6717C75.3688 14.9564 75.8607 15.3781 76.177 15.6358C77.0068 16.3087 77.5128 16.1747 77.9294 15.7196C78.2283 15.3983 78.1927 15.0534 77.9004 14.1796L77.5799 13.2556C77.2809 12.3748 77.2668 11.7892 77.7438 11.2701C78.4627 10.4832 79.396 10.6074 80.4461 11.4574C80.8448 11.7858 81.2217 12.1369 81.5748 12.5087C81.6049 12.5351 81.6231 12.5713 81.6257 12.6099C81.6283 12.6485 81.6151 12.6865 81.5888 12.7163L81.3322 12.9943C81.3197 13.0087 81.3041 13.0206 81.2865 13.029C81.2689 13.0374 81.2495 13.0423 81.2298 13.0433C81.21 13.0442 81.1903 13.0412 81.1718 13.0346C81.1533 13.0279 81.1366 13.0176 81.1226 13.0044C81.1176 13.0002 81.1129 12.9956 81.1085 12.9908C80.8195 12.7264 80.3575 12.3148 79.9583 11.9901C79.2461 11.4142 78.8121 11.3102 78.3774 11.7826C78.0967 12.0905 78.1571 12.4554 78.4097 13.1785L78.7161 14.0522C79.1037 15.1471 79.0614 15.7328 78.5844 16.2519C78.0147 16.8745 77.0499 17.2697 75.6893 16.1681Z" fill="#0055A6"></path><path d="M79.525 19.556C79.3679 19.4428 79.2191 19.3197 79.0795 19.1877C78.4923 18.6251 78.3714 18.2134 79.0868 17.5539L81.3585 15.4614L80.8103 14.8017C80.7939 14.7874 80.7809 14.7702 80.7718 14.751C80.7628 14.7319 80.758 14.7112 80.7577 14.6903C80.7574 14.6693 80.7616 14.6485 80.77 14.6291C80.7785 14.6097 80.7911 14.5922 80.8069 14.5775L80.9842 14.4166C80.9996 14.4015 81.0183 14.3896 81.039 14.3818C81.0597 14.3741 81.0819 14.3705 81.1042 14.3715C81.1265 14.3725 81.1483 14.3779 81.1681 14.3874C81.188 14.3969 81.2054 14.4104 81.2193 14.4268L81.8388 15.0194L82.4764 14.4334C82.5088 14.4036 82.5517 14.3861 82.597 14.3843C82.6423 14.3825 82.6866 14.3965 82.7216 14.4236L83.1066 14.6946C83.1099 14.6981 83.1174 14.7047 83.124 14.7114C83.1492 14.739 83.1619 14.7749 83.1592 14.8112C83.1566 14.8476 83.1389 14.8815 83.11 14.9057L82.3977 15.5583L83.0884 16.2179C83.1214 16.2512 83.1396 16.2952 83.1389 16.3408C83.1383 16.3863 83.119 16.4299 83.0851 16.4624L82.864 16.6665C82.8288 16.6975 82.7821 16.7146 82.7337 16.714C82.6854 16.7134 82.6392 16.6953 82.6048 16.6634L81.9174 16.0003L79.6458 18.0928C79.2898 18.421 79.3254 18.555 79.5821 18.7991L79.9382 19.1406C80.0268 19.2278 80.045 19.2948 79.9805 19.3552L79.7527 19.5658C79.6922 19.6195 79.621 19.623 79.525 19.556Z" fill="#0055A6"></path><path d="M82.1728 22.5092L81.9094 22.2011C81.8941 22.1838 81.8826 22.1638 81.8756 22.1423C81.8686 22.1208 81.8661 22.0982 81.8684 22.0758C81.8707 22.0534 81.8778 22.0316 81.8891 22.0118C81.9003 21.9919 81.9157 21.9744 81.9343 21.9602L82.0908 21.8429C81.6171 21.6755 81.1799 21.4547 80.8594 21.0829C80.3675 20.5206 80.1795 19.8007 81.0623 19.1243L81.1476 19.0574C81.9128 18.4748 82.6573 18.5987 83.6792 19.7839L84.1065 20.2761L84.3905 20.0584C84.9818 19.6032 85.0208 19.2551 84.5728 18.7361C84.2781 18.3958 83.9644 18.0706 83.6328 17.7618C83.6244 17.7498 83.6147 17.7386 83.6038 17.7284C83.5541 17.668 83.5218 17.5944 83.6146 17.5239L83.8605 17.3331C83.9384 17.2732 84.0203 17.2865 84.1164 17.3701C84.4744 17.6615 84.8044 17.9819 85.1027 18.3276C85.9002 19.2516 85.7296 20.005 84.8965 20.6409L82.4295 22.5326C82.3919 22.5609 82.3441 22.5744 82.2961 22.57C82.2481 22.5656 82.2039 22.5438 82.1728 22.5092ZM83.661 20.6145L83.2337 20.1254C82.5397 19.3186 82.162 19.2551 81.6635 19.6367L81.5782 19.7037C81.0689 20.0919 81.1293 20.4201 81.4647 20.8084C81.7281 21.1133 82.0627 21.3106 82.5256 21.4882L83.661 20.6145Z" fill="#0055A6"></path><path d="M84.8374 26.246L84.6023 25.901C84.5889 25.8822 84.5797 25.8611 84.5751 25.8388C84.5706 25.8166 84.5708 25.7937 84.5758 25.7716C84.5809 25.7494 84.5905 25.7284 84.6043 25.7099C84.6181 25.6913 84.6357 25.6755 84.656 25.6635L87.1728 24.1332C87.9455 23.6613 88.0133 23.2731 87.6357 22.7272C87.4295 22.4258 87.0734 22.1614 86.6709 21.9371L83.442 23.9024C83.4009 23.9257 83.3519 23.9335 83.3048 23.9241C83.2578 23.9148 83.2163 23.8891 83.1887 23.8521L82.9468 23.5005C82.9229 23.4622 82.9158 23.4166 82.9271 23.3735C82.9384 23.3303 82.9672 23.2931 83.0073 23.2696L86.9061 20.8959C86.9255 20.8831 86.9473 20.8741 86.9704 20.8693C86.9935 20.8646 87.0173 20.8642 87.0405 20.8683C87.0638 20.8724 87.0859 20.8808 87.1056 20.893C87.1254 20.9052 87.1423 20.9211 87.1554 20.9395L87.4005 21.2977C87.4133 21.3163 87.422 21.3371 87.4261 21.3589C87.4301 21.3807 87.4294 21.4031 87.4241 21.4246C87.4188 21.4462 87.4089 21.4665 87.395 21.4844C87.3811 21.5023 87.3636 21.5173 87.3434 21.5287L87.1976 21.6155C87.7069 21.8666 88.0448 22.1214 88.3372 22.5466C88.9317 23.4102 88.6253 24.1469 87.6075 24.766L85.0901 26.2993C85.0489 26.3233 84.9994 26.3311 84.9522 26.3211C84.905 26.3112 84.8638 26.2842 84.8374 26.246Z" fill="#0055A6"></path><path d="M87.0712 30.1156C86.7304 29.6948 86.4334 29.2441 86.1843 28.7699C85.579 27.6283 86.0916 26.7311 87.3131 26.1552L87.9002 25.8807C89.1789 25.2814 90.19 25.4988 90.7805 26.617C90.9402 26.9173 91.0727 27.2298 91.1763 27.5511L92.6926 26.8413C92.7337 26.8228 92.7809 26.8201 92.8241 26.8339C92.8672 26.8476 92.903 26.8767 92.9236 26.9149L93.1306 27.3066C93.1404 27.3253 93.146 27.3455 93.1471 27.3663C93.1483 27.387 93.1449 27.4077 93.1372 27.4272C93.1296 27.4466 93.1178 27.4644 93.1026 27.4794C93.0873 27.4945 93.069 27.5064 93.0487 27.5145L87.3454 30.1896C87.2385 30.2394 87.1706 30.2429 87.0712 30.1156ZM90.5742 27.8358C90.4606 27.5178 90.3202 27.2089 90.1544 26.9118C89.7552 26.1583 89.1292 26.1482 88.2563 26.5567L87.6725 26.8316C86.7822 27.2467 86.4121 27.7186 86.8145 28.4752C86.9495 28.7365 87.1739 29.1013 87.3379 29.3489L90.5742 27.8358Z" fill="#0055A6"></path><path d="M88.6288 34.1135L88.4822 33.7451C88.4656 33.7024 88.4674 33.6553 88.4874 33.614C88.5074 33.5726 88.5439 33.5403 88.589 33.524L88.7778 33.457C88.3862 33.156 88.0482 32.8176 87.8702 32.369C87.6035 31.6861 87.6706 30.9494 88.7389 30.5744L88.8425 30.5409C89.7642 30.2162 90.4225 30.5611 90.9889 31.9906L91.2241 32.5867L91.5653 32.466C92.2816 32.2149 92.4382 31.8971 92.1889 31.271C92.0264 30.8607 91.8421 30.4584 91.6366 30.0655C91.6299 30.0488 91.6266 30.0422 91.6192 30.0254C91.6087 30.0082 91.6025 29.989 91.601 29.9692C91.5996 29.9495 91.6029 29.9297 91.6108 29.9113C91.6187 29.8929 91.6309 29.8764 91.6466 29.8632C91.6622 29.8499 91.6809 29.8401 91.7011 29.8346L92.0001 29.731C92.0929 29.6975 92.1674 29.7341 92.2278 29.8412C92.4672 30.2249 92.6687 30.6284 92.8299 31.0467C93.2713 32.1646 92.8506 32.8211 91.8436 33.1727L88.8632 34.2139C88.8179 34.2293 88.768 34.2273 88.7242 34.2085C88.6804 34.1898 88.6462 34.1556 88.6288 34.1135ZM90.6867 32.774L90.4515 32.1783C90.0672 31.2072 89.736 31.0331 89.1273 31.2442L89.0271 31.2776C88.411 31.4953 88.358 31.8232 88.5393 32.2888C88.6851 32.6603 88.9344 32.9449 89.3087 33.2529L90.6867 32.774Z" fill="#0055A6"></path><path d="M93.7312 35.941C93.6177 35.5629 93.4107 35.2413 93.0265 34.8967L89.3454 35.8506C89.2988 35.8613 89.2495 35.8548 89.2078 35.8325C89.166 35.8101 89.135 35.7736 89.121 35.7304L89 35.325C88.9904 35.282 88.9986 35.2372 89.0232 35.1998C89.0477 35.1624 89.0866 35.1353 89.1317 35.1241L93.6136 33.9626C93.6358 33.9556 93.6593 33.9529 93.6826 33.9546C93.7059 33.9564 93.7286 33.9627 93.7493 33.973C93.77 33.9833 93.7883 33.9974 93.8029 34.0146C93.8176 34.0317 93.8284 34.0515 93.8347 34.0727L93.949 34.4614C93.9551 34.4827 93.9566 34.505 93.9534 34.5269C93.9502 34.5487 93.9424 34.5698 93.9305 34.5888C93.9185 34.6078 93.9026 34.6244 93.8838 34.6375C93.8649 34.6507 93.8434 34.6601 93.8206 34.6654L93.6351 34.7125C94.0625 35.0474 94.2902 35.3954 94.397 35.767C94.4326 35.8841 94.397 35.9546 94.2902 35.9846L93.9308 36.0749C93.8347 36.1018 93.7635 36.0582 93.7312 35.941Z" fill="#0055A6"></path><path d="M90.3972 40.8056C90.193 40.3127 90.0391 39.8027 89.9376 39.2824C89.6892 38.027 90.4436 37.2938 91.786 37.0594L92.4336 36.9457C93.8398 36.7011 94.7482 37.17 94.99 38.3985C95.0545 38.7289 95.0902 39.0637 95.0969 39.3995L96.7631 39.1083C96.7854 39.1043 96.8083 39.1045 96.8304 39.109C96.8526 39.1134 96.8736 39.122 96.8922 39.1342C96.9108 39.1464 96.9266 39.1619 96.9387 39.18C96.9508 39.198 96.9589 39.2181 96.9626 39.2392L97.0479 39.6675C97.0521 39.688 97.0517 39.7091 97.0469 39.7295C97.0421 39.7499 97.0328 39.7691 97.0198 39.786C97.0068 39.803 96.9902 39.8172 96.9711 39.8279C96.952 39.8385 96.9308 39.8454 96.9088 39.8481L90.6391 40.9466C90.5214 40.9665 90.4544 40.9532 90.3972 40.8056ZM94.4344 39.5168C94.4152 39.1816 94.3701 38.8482 94.2994 38.5192C94.1354 37.6921 93.5375 37.5181 92.5794 37.689L91.9351 37.7992C90.9562 37.9702 90.4651 38.3284 90.6283 39.1621C90.6854 39.4498 90.7923 39.8582 90.8775 40.1394L94.4344 39.5168Z" fill="#0055A6"></path><path d="M90.5051 42.6137L90.462 42.2021C90.4594 42.1799 90.4615 42.1574 90.4682 42.1359C90.4749 42.1144 90.4861 42.0944 90.501 42.0769C90.5159 42.0595 90.5343 42.045 90.5552 42.0343C90.5761 42.0235 90.599 42.0168 90.6227 42.0144L95.247 41.5627C95.2706 41.5602 95.2945 41.5621 95.3174 41.5683C95.3403 41.5745 95.3616 41.585 95.3802 41.599C95.3987 41.613 95.4141 41.6303 95.4255 41.65C95.4369 41.6696 95.4441 41.6912 95.4466 41.7134L95.4929 42.125C95.4975 42.1703 95.4829 42.2155 95.4522 42.2507C95.4214 42.2859 95.3771 42.3082 95.329 42.3127L90.708 42.7644C90.6599 42.7695 90.6116 42.7565 90.5736 42.7283C90.5356 42.7 90.511 42.6589 90.5051 42.6137ZM96.2937 42.0615L96.244 41.6262C96.2396 41.5809 96.2543 41.5358 96.285 41.5007C96.3157 41.4656 96.3599 41.4432 96.408 41.4386L97.1343 41.3685C97.1579 41.366 97.1818 41.3679 97.2047 41.3742C97.2275 41.3804 97.2488 41.3909 97.2673 41.4049C97.2859 41.4189 97.3013 41.4362 97.3127 41.4558C97.3241 41.4754 97.3313 41.4969 97.3338 41.5192L97.3802 41.9544C97.3853 41.9997 97.3713 42.045 97.3413 42.0807C97.3113 42.1163 97.2676 42.1395 97.2196 42.1453L96.4933 42.2154C96.4452 42.2197 96.3972 42.2059 96.3598 42.1771C96.3224 42.1483 96.2987 42.1067 96.2937 42.0615Z" fill="#0055A6"></path><path d="M90.7388 46.8153L90.6568 44.2274C90.6428 43.8555 90.8845 43.6952 91.1413 43.6882L91.3151 43.6851C91.5314 43.6686 91.746 43.7323 91.9131 43.8626L94.9151 45.9917C94.9383 46.0097 94.9664 46.0213 94.9963 46.0252C95.0319 46.0252 95.0608 46.0049 95.0575 45.938L94.9896 43.8524C94.9886 43.8068 95.0068 43.7627 95.0401 43.7295C95.0734 43.6963 95.1192 43.6767 95.1676 43.6749L95.4773 43.6683C95.5254 43.6668 95.5721 43.6832 95.6074 43.7139C95.6428 43.7445 95.6639 43.787 95.6662 43.8322L95.7482 46.3566C95.7581 46.7082 95.5908 46.8421 95.3167 46.8487L95.0964 46.8553C94.9043 46.8623 94.7652 46.8051 94.5904 46.6716L91.5148 44.502C91.5012 44.4892 91.485 44.4791 91.4673 44.4722C91.4495 44.4653 91.4304 44.4618 91.4112 44.4618C91.369 44.4618 91.34 44.4716 91.34 44.5319L91.4154 46.7985C91.4167 46.8443 91.3987 46.8887 91.3653 46.922C91.3319 46.9553 91.2859 46.9749 91.2373 46.9764L90.9276 46.9827C90.9035 46.9834 90.8795 46.9797 90.8569 46.9717C90.8343 46.9637 90.8137 46.9515 90.7961 46.936C90.7786 46.9204 90.7645 46.9017 90.7546 46.881C90.7448 46.8603 90.7394 46.838 90.7388 46.8153Z" fill="#0055A6"></path><path d="M90.5003 50.9034L90.5318 50.5086C90.5333 50.4863 90.5396 50.4645 90.5501 50.4445C90.5607 50.4245 90.5754 50.4067 90.5934 50.392C90.6113 50.3774 90.6322 50.3663 90.6547 50.3593C90.6773 50.3523 90.7011 50.3495 90.7248 50.3512L90.9234 50.3645C90.7032 49.9362 90.5425 49.497 90.5781 49.0188C90.632 48.2883 91.0195 47.6466 92.1558 47.7198L92.2658 47.7261C93.2488 47.793 93.6969 48.3631 93.5834 49.8863L93.5371 50.5187L93.8998 50.5421C94.6658 50.5919 94.9466 50.3645 94.9963 49.6948C95.0296 49.2581 95.0381 48.8201 95.0219 48.3826C95.0246 48.3682 95.0257 48.3536 95.0252 48.339C95.0319 48.2618 95.0641 48.1886 95.1817 48.1949L95.5022 48.2151C95.6016 48.2213 95.6521 48.2852 95.6587 48.4099C95.709 48.8522 95.7162 49.2979 95.6802 49.7415C95.5908 50.9299 94.9184 51.366 93.8435 51.2959L90.6709 51.088C90.6225 51.0842 90.5776 51.0628 90.5457 51.0283C90.5138 50.9938 90.4976 50.949 90.5003 50.9034ZM92.964 50.4813L93.0104 49.849C93.0882 48.8148 92.8638 48.5236 92.2195 48.4799L92.1094 48.4729C91.4543 48.4301 91.2581 48.7104 91.2225 49.2057C91.1943 49.5982 91.2937 49.9595 91.5007 50.3847L92.964 50.4813Z" fill="#0055A6"></path><path d="M89.9688 54.134C89.9724 53.9468 89.989 53.7601 90.0184 53.5749C90.1468 52.7954 90.4284 52.4535 91.418 52.6006L94.5615 53.0663L94.8001 52.2596C94.8028 52.2388 94.8098 52.2188 94.8208 52.2006C94.8317 52.1824 94.8464 52.1665 94.8639 52.1536C94.8815 52.1408 94.9016 52.1314 94.923 52.1259C94.9444 52.1204 94.9668 52.119 94.9889 52.1217L95.2307 52.1583C95.2532 52.1606 95.2749 52.1674 95.2944 52.1783C95.3138 52.1892 95.3306 52.2039 95.3434 52.2214C95.3563 52.2389 95.3651 52.2588 95.369 52.2798C95.373 52.3008 95.3722 52.3223 95.3666 52.3429L95.2307 53.166L96.1135 53.2969C96.1577 53.3038 96.1976 53.3257 96.2258 53.3584C96.2541 53.3911 96.2686 53.4323 96.2667 53.4744V53.9261C96.264 53.9349 96.2629 53.9441 96.2634 53.9533C96.2547 53.9888 96.2315 54.0196 96.1987 54.039C96.166 54.0584 96.1264 54.0648 96.0886 54.0569L95.1065 53.9136L94.9533 54.8271C94.9451 54.8721 94.9185 54.9124 94.8792 54.9393C94.8399 54.9662 94.791 54.9776 94.7429 54.9712L94.4374 54.9245C94.3893 54.9172 94.3462 54.8923 94.3175 54.8552C94.2888 54.8182 94.2768 54.772 94.2842 54.7267L94.4374 53.8124L91.293 53.3467C90.7985 53.2735 90.7058 53.381 90.6487 53.7221L90.5708 54.194C90.5493 54.3147 90.5029 54.3684 90.4143 54.3545L90.0971 54.3077C90.0184 54.2952 89.9688 54.2446 89.9688 54.134Z" fill="#0055A6"></path><path d="M89.6528 55.5831L89.7447 55.1813C89.7553 55.1369 89.7841 55.0983 89.825 55.0739C89.8658 55.0495 89.9153 55.0413 89.9625 55.0512L94.5015 55.999C94.525 56.0037 94.5471 56.0128 94.5668 56.0256C94.5865 56.0384 94.6033 56.0548 94.6162 56.0738C94.6292 56.0927 94.638 56.1139 94.6422 56.1361C94.6464 56.1583 94.6458 56.181 94.6406 56.203L94.5478 56.6048C94.5367 56.6488 94.5079 56.687 94.4674 56.7114C94.427 56.7358 94.3781 56.7445 94.3309 56.7357L89.7911 55.7871C89.7678 55.7823 89.7457 55.7732 89.7261 55.7603C89.7065 55.7475 89.6898 55.7311 89.6769 55.7121C89.6641 55.6932 89.6553 55.672 89.6512 55.6499C89.647 55.6278 89.6476 55.6051 89.6528 55.5831ZM95.3272 56.7855L95.4274 56.3572C95.4379 56.3129 95.4666 56.2743 95.5072 56.2498C95.5478 56.2253 95.5971 56.2169 95.6443 56.2264L96.3566 56.3775C96.4036 56.3874 96.4445 56.4144 96.4704 56.4527C96.4963 56.4909 96.5051 56.5372 96.4948 56.5815L96.3955 57.0067C96.3849 57.0509 96.3562 57.0895 96.3156 57.114C96.2749 57.1385 96.2257 57.147 96.1785 57.1375L95.4662 56.9895C95.4191 56.9797 95.3779 56.9528 95.3519 56.9145C95.3258 56.8763 95.3169 56.8299 95.3272 56.7855Z" fill="#0055A6"></path><path d="M88.7839 58.4192C89.1748 57.2137 90.2182 56.8461 91.5002 57.2137L92.1619 57.4044C93.4405 57.7728 94.0847 58.6294 93.693 59.8349C93.3013 61.0373 92.2513 61.4158 90.9726 61.0467L90.3109 60.8567C89.0323 60.4876 88.3881 59.6208 88.7839 58.4192ZM91.2079 60.3271C92.0948 60.5818 92.7713 60.4113 93.024 59.641C93.269 58.8779 92.8243 58.3818 91.9275 58.1248L91.2649 57.9332C90.3747 57.6763 89.7023 57.8429 89.453 58.61C89.2038 59.3731 89.6485 59.8755 90.5462 60.1371L91.2079 60.3271Z" fill="#0055A6"></path><path d="M86.4911 64.125L86.6658 63.7496C86.6754 63.7288 86.6893 63.7101 86.7068 63.6944C86.7242 63.6787 86.7447 63.6664 86.7673 63.6583C86.7898 63.6502 86.8138 63.6464 86.8379 63.6471C86.862 63.6478 86.8857 63.653 86.9077 63.6624L89.6529 64.787C90.4959 65.1359 90.8768 64.9754 91.1551 64.3789C91.3083 64.0472 91.3439 63.6258 91.3224 63.1843L87.7979 61.7374C87.7552 61.7179 87.7219 61.6839 87.7047 61.6423C87.6875 61.6007 87.6877 61.5545 87.7051 61.513L87.8832 61.1283C87.9048 61.0891 87.9413 61.0589 87.9855 61.0439C88.0298 61.0289 88.0784 61.0301 88.1217 61.0473L92.3758 62.7957C92.3978 62.8033 92.418 62.8151 92.435 62.8304C92.4519 62.8457 92.4654 62.8641 92.4744 62.8845C92.4834 62.9049 92.4879 62.9269 92.4874 62.949C92.487 62.9711 92.4817 62.9929 92.4718 63.013L92.2905 63.4047C92.2814 63.425 92.2679 63.4434 92.2509 63.4587C92.2338 63.4739 92.2137 63.4857 92.1916 63.4932C92.1695 63.5007 92.146 63.5039 92.1225 63.5025C92.0991 63.501 92.0762 63.495 92.0553 63.4849L91.8955 63.421C91.9559 63.9568 91.917 64.3618 91.7 64.8275C91.2652 65.7682 90.4396 65.9364 89.3324 65.48L86.5871 64.3524C86.5426 64.3339 86.5076 64.2997 86.4897 64.2572C86.4717 64.2146 86.4722 64.1672 86.4911 64.125Z" fill="#0055A6"></path><path d="M37.8226 91.4672C37.0531 91.4772 36.285 91.4043 35.5332 91.2499C35.3481 91.2063 35.2769 91.1393 35.2769 91.0093V90.0576C35.2769 89.9035 35.3589 89.8271 35.4868 89.8271H35.544C36.2452 89.9265 36.9532 89.9781 37.6623 89.9813C38.6838 89.9813 39.1149 89.5997 39.1149 88.3841V88.307C38.6618 88.3891 38.2019 88.434 37.7406 88.4409C36.1741 88.4409 34.8711 87.8148 34.8711 86.0003V85.9232C34.8711 84.2621 35.939 83.1477 37.9397 83.1477C39.8125 83.1477 41.0552 84.1858 41.0552 86.3617V88.036C41.0552 90.5062 39.7984 91.4672 37.8226 91.4672ZM39.1149 86.3617C39.1149 84.8758 38.613 84.5705 37.9397 84.5705C37.2992 84.5705 36.8114 84.8524 36.8114 85.9232V86.0003C36.8114 86.8974 37.3704 87.1389 38.0573 87.1389C38.4121 87.1252 38.7655 87.0883 39.1149 87.0282V86.3617Z" fill="#0055A6"></path><path d="M45.3366 91.4669C43.3607 91.4669 42.207 90.4062 42.207 87.7849V86.8442C42.207 84.219 43.3607 83.1475 45.3366 83.1475C47.3125 83.1475 48.4731 84.219 48.4731 86.8442V87.7849C48.4731 90.4062 47.3125 91.4669 45.3366 91.4669ZM46.4864 86.8442C46.4864 85.1161 45.9879 84.701 45.3366 84.701C44.6848 84.701 44.1975 85.1161 44.1975 86.8442V87.7849C44.1975 89.5122 44.6848 89.9141 45.3366 89.9141C45.9879 89.9141 46.4864 89.5122 46.4864 87.7849V86.8442Z" fill="#0055A6"></path><path d="M52.7117 91.4669C50.7358 91.4669 49.5859 90.4062 49.5859 87.7849V86.8442C49.5859 84.219 50.7358 83.1475 52.7117 83.1475C54.6917 83.1475 55.8519 84.219 55.8519 86.8442V87.7849C55.8519 90.4062 54.6917 91.4669 52.7117 91.4669ZM53.8652 86.8442C53.8652 85.1161 53.3634 84.701 52.7117 84.701C52.0641 84.701 51.573 85.1161 51.573 86.8442V87.7849C51.573 89.5122 52.0641 89.9141 52.7117 89.9141C53.3634 89.9141 53.8652 89.5122 53.8652 87.7849V86.8442Z" fill="#0055A6"></path><path d="M59.3111 89.8168V85.1161L57.7981 85.729C57.7539 85.7464 57.7068 85.7564 57.659 85.7586C57.5778 85.7586 57.5314 85.7057 57.5314 85.6184V84.3724C57.5298 84.3381 57.5405 84.3043 57.5618 84.2765C57.5832 84.2486 57.6139 84.2284 57.649 84.219L59.7525 83.2885C59.8374 83.2564 59.9285 83.2415 60.02 83.2448H61.0667C61.0959 83.2442 61.1248 83.2491 61.1519 83.2592C61.1789 83.2694 61.2035 83.2846 61.2241 83.304C61.2447 83.3234 61.2609 83.3465 61.2717 83.3719C61.2825 83.3973 61.2878 83.4245 61.2871 83.4519V89.8168H62.8323C62.8624 89.8155 62.8924 89.8199 62.9206 89.8297C62.9489 89.8395 62.9747 89.8545 62.9967 89.8739C63.0186 89.8933 63.0362 89.9166 63.0484 89.9425C63.0605 89.9684 63.067 89.9964 63.0675 90.0247V91.1492C63.0669 91.2077 63.0419 91.2636 62.9979 91.3049C62.9539 91.3463 62.8945 91.3698 62.8323 91.3704H57.7658C57.7038 91.3696 57.6445 91.346 57.6007 91.3047C57.5569 91.2634 57.532 91.2076 57.5314 91.1492V90.0247C57.5319 89.9964 57.5383 89.9685 57.5504 89.9427C57.5626 89.9168 57.5801 89.8935 57.6019 89.8742C57.6238 89.8548 57.6495 89.8397 57.6777 89.8298C57.7058 89.82 57.7358 89.8155 57.7658 89.8168L59.3111 89.8168Z" fill="#0055A6"></path></g><defs><clipPath id="clip0_7351_52197"><rect width="97" height="97" fill="white" transform="translate(0.378906 0.117432)"></rect></clipPath></defs></svg>