<svg width="125" height="27" viewBox="0 0 125 27" fill="none" xmlns="http://www.w3.org/2000/svg">
<g id="logo">
<path id="Vector" d="M124.539 12.2622V10.1204H121.88V6.79072L121.79 6.81829L119.292 7.58264L119.243 7.5976V10.1205H115.3V8.71503C115.3 8.06059 115.446 7.55978 115.734 7.22579C116.021 6.89581 116.43 6.72805 116.953 6.72805C117.329 6.72805 117.717 6.81652 118.109 6.991L118.207 7.03482V4.77924L118.161 4.76227C117.796 4.63103 117.299 4.56494 116.684 4.56494C115.908 4.56494 115.203 4.73376 114.588 5.06834C113.973 5.40339 113.489 5.8817 113.15 6.48984C112.813 7.09726 112.641 7.79882 112.641 8.57519V10.1204H110.789V12.2622H112.641V21.2851H115.3V12.2622H119.243V17.9961C119.243 20.3576 120.357 21.5543 122.553 21.5543C122.914 21.5543 123.294 21.512 123.682 21.4292C124.077 21.3441 124.346 21.2592 124.504 21.1685L124.539 21.1477V18.9862L124.431 19.0577C124.287 19.1538 124.107 19.2324 123.897 19.2908C123.685 19.3503 123.508 19.3801 123.371 19.3801C122.857 19.3801 122.476 19.2414 122.24 18.9678C122.001 18.6916 121.88 18.2087 121.88 17.5332V12.2622H124.539ZM104.852 19.3805C103.887 19.3805 103.126 19.0605 102.59 18.4302C102.051 17.7967 101.777 16.8936 101.777 15.7462C101.777 14.5623 102.051 13.6357 102.59 12.9911C103.127 12.3506 103.88 12.0256 104.83 12.0256C105.752 12.0256 106.486 12.336 107.012 12.9488C107.54 13.5647 107.808 14.4838 107.808 15.6815C107.808 16.8939 107.556 17.8251 107.059 18.4481C106.565 19.0664 105.823 19.3805 104.852 19.3805ZM104.97 9.85142C103.129 9.85142 101.667 10.3909 100.624 11.4548C99.5824 12.5189 99.0541 13.9914 99.0541 15.8318C99.0541 17.5799 99.5698 18.9859 100.587 20.0103C101.604 21.035 102.988 21.5541 104.701 21.5541C106.486 21.5541 107.919 21.0071 108.961 19.9284C110.003 18.8509 110.531 17.3923 110.531 15.5949C110.531 13.8195 110.035 12.4029 109.058 11.3854C108.08 10.3674 106.704 9.85142 104.97 9.85142ZM94.7676 9.85142C93.5153 9.85142 92.4794 10.1717 91.6881 10.8033C90.8919 11.4387 90.4881 12.2719 90.4881 13.2803C90.4881 13.8044 90.5753 14.27 90.7468 14.6649C90.9194 15.0611 91.1865 15.4099 91.5413 15.7027C91.8934 15.9931 92.437 16.2973 93.1573 16.6068C93.7628 16.8559 94.2144 17.0667 94.5013 17.2328C94.7817 17.3956 94.9806 17.5592 95.093 17.7186C95.2022 17.8746 95.2576 18.0881 95.2576 18.3515C95.2576 19.1016 94.6959 19.4666 93.5401 19.4666C93.1113 19.4666 92.6223 19.377 92.0866 19.2006C91.5548 19.0268 91.0528 18.7722 90.5982 18.4459L90.4878 18.3667V20.9264L90.5284 20.9452C90.9045 21.1189 91.3788 21.2653 91.9378 21.3805C92.4958 21.4959 93.0027 21.5545 93.4431 21.5545C94.802 21.5545 95.8964 21.2327 96.6949 20.5973C97.4985 19.9576 97.9057 19.1047 97.9057 18.0615C97.9057 17.3089 97.6865 16.6635 97.2544 16.1431C96.8252 15.6268 96.0803 15.1529 95.0413 14.7339C94.2136 14.4017 93.6833 14.1259 93.4645 13.9142C93.2537 13.7097 93.1466 13.4205 93.1466 13.0542C93.1466 12.7295 93.2788 12.4694 93.5501 12.2587C93.8235 12.047 94.2041 11.9394 94.6815 11.9394C95.1245 11.9394 95.5777 12.0093 96.0284 12.1465C96.4788 12.2836 96.8744 12.4673 97.2046 12.6919L97.3133 12.7662V10.3381L97.2716 10.3202C96.9669 10.1895 96.5652 10.0777 96.0772 9.98702C95.5915 9.89689 95.1509 9.85142 94.7676 9.85142ZM83.5572 19.3805C82.5925 19.3805 81.8314 19.0605 81.2954 18.4302C80.7558 17.7967 80.483 16.8939 80.483 15.7462C80.483 14.5623 80.7562 13.6357 81.296 12.9911C81.832 12.3506 82.5854 12.0256 83.5359 12.0256C84.4574 12.0256 85.1912 12.336 85.717 12.9488C86.2454 13.5647 86.5134 14.4838 86.5134 15.6815C86.5134 16.8939 86.2612 17.8251 85.764 18.4481C85.2703 19.0664 84.5282 19.3805 83.5572 19.3805ZM83.6757 9.85142C81.8342 9.85142 80.3719 10.3909 79.3298 11.4548C78.2879 12.5189 77.7593 13.9914 77.7593 15.8318C77.7593 17.5806 78.2753 18.9859 79.2925 20.0103C80.3097 21.035 81.6938 21.5541 83.4064 21.5541C85.1908 21.5541 86.6243 21.0071 87.6664 19.9284C88.7082 18.8509 89.2363 17.3923 89.2363 15.5949C89.2363 13.8195 88.7408 12.4029 87.7631 11.3854C86.785 10.3674 85.4096 9.85142 83.6757 9.85142ZM73.7236 12.0539V10.1204H71.0974V21.2849H73.7236V15.5738C73.7236 14.6027 73.9438 13.8049 74.3783 13.2023C74.8072 12.6069 75.3788 12.3052 76.0768 12.3052C76.3133 12.3052 76.5789 12.3442 76.8664 12.4213C77.1511 12.498 77.3572 12.5813 77.4788 12.669L77.5892 12.749V10.1013L77.5467 10.083C77.3021 9.97913 76.9561 9.9267 76.5183 9.9267C75.8583 9.9267 75.2678 10.1388 74.7619 10.5563C74.3179 10.9233 73.9969 11.4264 73.7515 12.0539H73.7236ZM66.3943 9.85142C65.1895 9.85142 64.1148 10.1098 63.2007 10.6191C62.2848 11.1295 61.5764 11.8583 61.0944 12.785C60.6146 13.7095 60.3709 14.7893 60.3709 15.9936C60.3709 17.0484 60.6072 18.0165 61.074 18.8696C61.5411 19.7242 62.2023 20.3928 63.0392 20.8565C63.875 21.3196 64.8409 21.5544 65.9104 21.5544C67.1584 21.5544 68.224 21.3049 69.0784 20.8128L69.1129 20.793V18.387L69.0025 18.4676C68.6155 18.7495 68.183 18.9745 67.7177 19.1366C67.2535 19.2986 66.8303 19.3805 66.4592 19.3805C65.4288 19.3805 64.6015 19.058 64.001 18.4223C63.3992 17.7858 63.0941 16.892 63.0941 15.7672C63.0941 14.6354 63.4123 13.7186 64.0394 13.0422C64.6646 12.3677 65.4934 12.0256 66.5026 12.0256C67.3658 12.0256 68.2069 12.3179 69.0027 12.8952L69.1129 12.9751V10.44L69.0773 10.42C68.7778 10.2523 68.3694 10.1139 67.8623 10.0089C67.3574 9.9042 66.8636 9.85142 66.3943 9.85142ZM58.5622 10.1205H55.936V21.2849H58.5622V10.1205ZM57.276 5.3644C56.8437 5.3644 56.4667 5.51154 56.157 5.80312C55.846 6.09553 55.6882 6.46368 55.6882 6.89816C55.6882 7.32581 55.8441 7.68725 56.1522 7.97188C56.4582 8.25569 56.8364 8.39953 57.2761 8.39953C57.7156 8.39953 58.0952 8.25569 58.4049 7.97235C58.7167 7.68725 58.8748 7.32593 58.8748 6.89816C58.8748 6.47888 58.7209 6.11449 58.4178 5.8149C58.1149 5.5159 57.7306 5.3644 57.276 5.3644ZM50.7234 9.29677V21.2849H53.4036V5.70616H49.6941L44.9791 17.2776L40.4035 5.70616H36.543V21.2847H39.0616V9.29559H39.1481L43.9798 21.2849H45.8806L50.6369 9.29677H50.7234Z" fill="#1B232E"/>
<path id="Vector_2" d="M13.1123 12.8545H0.757812V0.5H13.1123V12.8545Z" fill="#1B232E"/>
<path id="Vector_3" d="M26.7566 12.8545H14.4023V0.5H26.7566V12.8545Z" fill="#1B232E"/>
<path id="Vector_4" d="M13.1119 26.4999H0.757812V14.1455H13.1119V26.4999Z" fill="#1B232E"/>
<path id="Vector_5" d="M26.7566 26.4999H14.4023V14.1455H26.7566V26.4999Z" fill="#1B232E"/>
</g>
</svg>
