<svg xmlns="http://www.w3.org/2000/svg" width="105" height="97" viewBox="0 0 105 97" fill="none"><path d="M11.0049 0H90.316V57.9439C90.316 79.5139 72.9182 97 51.4568 97H50.0234C28.4741 97 11.0049 79.4423 11.0049 57.7838V0Z" fill="#F9D829"></path><path d="M12.2804 1.28051H89.0433V57.2225C89.0433 78.4838 71.8945 95.7195 50.7403 95.7195C29.4995 95.7195 12.2804 78.4131 12.2804 57.0647V1.28051Z" fill="url(#paint0_linear_7351_52076)"></path><path d="M15.7821 8.32347H29.4784V8.96373H15.7821V8.32347Z" fill="white"></path><path d="M71.5232 8.32347H85.2195V8.96373H71.5232V8.32347Z" fill="white"></path><path d="M7.5 51.5412H93.5V72.6699H7.5V51.5412Z" fill="#5B4EFE"></path><path d="M28.4381 57.3713C28.3871 57.6696 28.2711 57.9423 28.0903 58.1893C27.9141 58.4317 27.6752 58.6274 27.3738 58.7766C27.0724 58.9211 26.7223 58.9933 26.3234 58.9933H25.6487L25.3566 60.6572H23.9862L24.8557 55.7284H26.8938C27.4086 55.7284 27.8004 55.8472 28.0694 56.0849C28.3384 56.318 28.4729 56.6326 28.4729 57.0287C28.4729 57.1266 28.4613 57.2408 28.4381 57.3713ZM26.386 57.9096C26.7709 57.9096 26.9935 57.7302 27.0538 57.3713C27.0631 57.3061 27.0677 57.2595 27.0677 57.2315C27.0677 57.1056 27.026 57.0078 26.9425 56.9379C26.8637 56.8633 26.7408 56.826 26.5739 56.826H26.0313L25.8435 57.9096H26.386Z" fill="white"></path><path d="M30.4535 56.812L30.3144 57.63H31.8795L31.6917 58.6717H30.1266L29.9666 59.5666H31.7404L31.5526 60.6572H28.4085L29.278 55.7284H32.4151L32.2273 56.812H30.4535Z" fill="white"></path><path d="M34.5913 60.7062C34.1786 60.7062 33.8146 60.6199 33.4992 60.4475C33.1839 60.275 32.9404 60.0327 32.7689 59.7204C32.5973 59.4081 32.5115 59.0492 32.5115 58.6437C32.5115 58.0611 32.6321 57.5438 32.8732 57.0917C33.119 56.6349 33.4598 56.2807 33.8957 56.029C34.3363 55.7773 34.8394 55.6515 35.4052 55.6515C35.8272 55.6515 36.1959 55.7377 36.5112 55.9101C36.8312 56.0779 37.077 56.318 37.2485 56.6302C37.4201 56.9379 37.5059 57.2944 37.5059 57.6999C37.5059 58.2779 37.383 58.7952 37.1372 59.252C36.8915 59.7087 36.5483 60.0653 36.1078 60.3216C35.6672 60.578 35.1617 60.7062 34.5913 60.7062ZM34.8 59.4337C35.0736 59.4337 35.3125 59.3615 35.5165 59.217C35.7252 59.0725 35.8828 58.8814 35.9895 58.6437C36.1008 58.4014 36.1565 58.1404 36.1565 57.8607C36.1565 57.5624 36.0753 57.3317 35.913 57.1686C35.7553 57.0008 35.5281 56.9169 35.2313 56.9169C34.9577 56.9169 34.7165 56.9891 34.5079 57.1336C34.2992 57.2734 34.1392 57.4622 34.0279 57.6999C33.9166 57.9376 33.861 58.1986 33.861 58.4829C33.861 58.7766 33.9421 59.0096 34.1044 59.1821C34.2667 59.3498 34.4986 59.4337 34.8 59.4337Z" fill="white"></path><path d="M42.1464 57.3713C42.0953 57.6696 41.9794 57.9423 41.7986 58.1893C41.6223 58.4317 41.3835 58.6274 41.0821 58.7766C40.7807 58.9211 40.4305 58.9933 40.0317 58.9933H39.357L39.0648 60.6572H37.6945L38.564 55.7284H40.6021C41.1169 55.7284 41.5087 55.8472 41.7777 56.0849C42.0467 56.318 42.1811 56.6326 42.1811 57.0287C42.1811 57.1266 42.1695 57.2408 42.1464 57.3713ZM40.0943 57.9096C40.4792 57.9096 40.7018 57.7302 40.7621 57.3713C40.7714 57.3061 40.776 57.2595 40.776 57.2315C40.776 57.1056 40.7343 57.0078 40.6508 56.9379C40.572 56.8633 40.4491 56.826 40.2821 56.826H39.7396L39.5518 57.9096H40.0943Z" fill="white"></path><path d="M43.6749 59.6155H45.1983L45.0105 60.6572H42.1167L42.9862 55.7284H44.3496L43.6749 59.6155Z" fill="white"></path><path d="M47.5787 56.812L47.4396 57.63H49.0047L48.8169 58.6717H47.2518L47.0918 59.5666H48.8656L48.6777 60.6572H45.5336L46.4031 55.7284H49.5403L49.3525 56.812H47.5787Z" fill="white"></path><path d="M52.302 59.6155H53.8254L53.6376 60.6572H50.7439L51.6134 55.7284H52.9767L52.302 59.6155Z" fill="white"></path><path d="M56.2058 56.812L56.0667 57.63H57.6318L57.444 58.6717H55.8789L55.7189 59.5666H57.4927L57.3049 60.6572H54.1607L55.0302 55.7284H58.1674L57.9796 56.812H56.2058Z" fill="white"></path><path d="M61.2201 59.8532H59.4811L59.0776 60.6572H57.6447L60.2949 55.7284H61.867L62.7852 60.6572H61.3453L61.2201 59.8532ZM61.0601 58.8115L60.8166 57.2105L60.0097 58.8115H61.0601Z" fill="white"></path><path d="M66.0328 55.7284C66.4827 55.7284 66.8722 55.8099 67.2015 55.9731C67.5307 56.1315 67.7811 56.3576 67.9527 56.6512C68.1243 56.9449 68.2101 57.2874 68.2101 57.6789C68.2101 57.856 68.1939 58.0262 68.1614 58.1893C68.0779 58.6647 67.8971 59.0888 67.6188 59.4617C67.3452 59.8346 66.9951 60.1282 66.5685 60.3426C66.1465 60.5523 65.6781 60.6572 65.1633 60.6572H63.2226L64.0921 55.7284H66.0328ZM65.2746 59.4547C65.6735 59.4547 66.005 59.3452 66.2693 59.1261C66.5337 58.9024 66.7029 58.5901 66.7771 58.1893C66.7957 58.0961 66.805 57.9959 66.805 57.8887C66.805 57.5764 66.7099 57.3364 66.5198 57.1686C66.3296 57.0008 66.063 56.9169 65.7198 56.9169H65.2538L64.8016 59.4547H65.2746Z" fill="white"></path><path d="M70.3828 56.812L70.2437 57.63H71.8088L71.621 58.6717H70.0559L69.8959 59.5666H71.6697L71.4819 60.6572H68.3377L69.2072 55.7284H72.3444L72.1566 56.812H70.3828Z" fill="white"></path><path d="M75.1675 55.7284C75.6823 55.7284 76.0741 55.8449 76.3431 56.0779C76.6121 56.3063 76.7466 56.6116 76.7466 56.9938C76.7466 57.1103 76.7373 57.2152 76.7187 57.3084C76.6631 57.644 76.5216 57.9399 76.2944 58.1963C76.0672 58.448 75.7657 58.6274 75.3901 58.7346L76.1553 60.6572H74.6389L73.985 58.8395H73.8389L73.519 60.6572H72.1486L73.0181 55.7284H75.1675ZM74.0059 57.9027H74.6806C75.0423 57.9027 75.2556 57.7302 75.3206 57.3853C75.3298 57.3294 75.3345 57.2898 75.3345 57.2664C75.3345 57.1406 75.2927 57.0427 75.2093 56.9728C75.1304 56.9029 75.0122 56.8679 74.8545 56.8679H74.1798L74.0059 57.9027Z" fill="white"></path><path d="M33.2783 67.8695H31.5393L31.1359 68.6735H29.7029L32.3532 63.7446H33.9253L34.8435 68.6735H33.4036L33.2783 67.8695ZM33.1184 66.8278L32.8749 65.2268L32.068 66.8278H33.1184Z" fill="white"></path><path d="M39.8301 68.6735H38.4598L37.1381 65.9189L36.6512 68.6735H35.2809L36.1504 63.7446H37.5138L38.8424 66.5341L39.3293 63.7446H40.6927L39.8301 68.6735Z" fill="white"></path><path d="M43.41 63.7446C43.8599 63.7446 44.2494 63.8262 44.5786 63.9893C44.9079 64.1478 45.1583 64.3738 45.3299 64.6675C45.5015 64.9611 45.5873 65.3037 45.5873 65.6952C45.5873 65.8723 45.571 66.0424 45.5386 66.2056C45.4551 66.681 45.2743 67.1051 44.996 67.478C44.7224 67.8508 44.3723 68.1445 43.9456 68.3589C43.5236 68.5686 43.0553 68.6735 42.5405 68.6735H40.5998L41.4693 63.7446H43.41ZM42.6518 67.471C43.0506 67.471 43.3822 67.3615 43.6465 67.1424C43.9109 66.9187 44.0801 66.6064 44.1543 66.2056C44.1729 66.1123 44.1822 66.0121 44.1822 65.9049C44.1822 65.5927 44.0871 65.3526 43.897 65.1848C43.7068 65.017 43.4402 64.9332 43.097 64.9332H42.631L42.1788 67.471H42.6518Z" fill="white"></path><path d="M47.3856 66.1986C47.469 65.7138 47.6453 65.2827 47.9142 64.9052C48.1832 64.523 48.5217 64.227 48.9298 64.0173C49.3379 63.8029 49.7831 63.6957 50.2654 63.6957C50.6688 63.6957 51.0213 63.7703 51.3227 63.9194C51.6241 64.0686 51.8583 64.2806 52.0252 64.5556C52.1922 64.8306 52.2826 65.1545 52.2965 65.5274H50.8288C50.7732 65.3456 50.6758 65.2058 50.5367 65.1079C50.3975 65.01 50.226 64.9611 50.0219 64.9611C49.7066 64.9611 49.4353 65.073 49.2081 65.2967C48.9808 65.5204 48.8347 65.821 48.7698 66.1986C48.7513 66.2964 48.742 66.4013 48.742 66.5132C48.742 66.8021 48.8162 67.0305 48.9646 67.1983C49.1176 67.3614 49.3263 67.443 49.5906 67.443C49.7947 67.443 49.9825 67.3941 50.1541 67.2962C50.3303 67.1983 50.4764 67.0585 50.5923 66.8767H52.067C51.8444 67.4407 51.4943 67.8881 51.0166 68.219C50.539 68.5453 49.9941 68.7084 49.382 68.7084C48.96 68.7084 48.5936 68.6269 48.2829 68.4637C47.9768 68.3006 47.7426 68.0699 47.5803 67.7716C47.418 67.4733 47.3369 67.1284 47.3369 66.7369C47.3369 66.5551 47.3531 66.3757 47.3856 66.1986Z" fill="white"></path><path d="M57.6444 63.7446L56.7819 68.6735H55.4115L55.7593 66.6949H54.1038L53.756 68.6735H52.3857L53.2552 63.7446H54.6185L54.2916 65.6043H55.9541L56.281 63.7446H57.6444Z" fill="white"></path><path d="M60.5741 63.7446C61.0888 63.7446 61.4807 63.8612 61.7496 64.0942C62.0186 64.3226 62.1531 64.6279 62.1531 65.01C62.1531 65.1266 62.1438 65.2314 62.1253 65.3247C62.0696 65.6602 61.9282 65.9562 61.7009 66.2125C61.4737 66.4642 61.1723 66.6437 60.7966 66.7509L61.5618 68.6735H60.0454L59.3915 66.8557H59.2455L58.9255 68.6735H57.5551L58.4246 63.7446H60.5741ZM59.4124 65.9189H60.0871C60.4488 65.9189 60.6622 65.7465 60.7271 65.4016C60.7364 65.3456 60.741 65.306 60.741 65.2827C60.741 65.1569 60.6993 65.059 60.6158 64.9891C60.537 64.9192 60.4187 64.8842 60.261 64.8842H59.5863L59.4124 65.9189Z" fill="white"></path><path d="M64.526 68.7224C64.1133 68.7224 63.7492 68.6362 63.4339 68.4637C63.1186 68.2913 62.8751 68.0489 62.7035 67.7366C62.5319 67.4244 62.4462 67.0655 62.4462 66.66C62.4462 66.0774 62.5667 65.56 62.8079 65.1079C63.0536 64.6512 63.3945 64.2969 63.8304 64.0452C64.271 63.7936 64.7741 63.6677 65.3399 63.6677C65.7619 63.6677 66.1305 63.7539 66.4459 63.9264C66.7658 64.0942 67.0116 64.3342 67.1832 64.6465C67.3548 64.9541 67.4406 65.3107 67.4406 65.7162C67.4406 66.2941 67.3177 66.8115 67.0719 67.2682C66.8261 67.725 66.483 68.0816 66.0424 68.3379C65.6019 68.5942 65.0964 68.7224 64.526 68.7224ZM64.7347 67.45C65.0083 67.45 65.2471 67.3778 65.4512 67.2333C65.6598 67.0888 65.8175 66.8977 65.9242 66.66C66.0355 66.4176 66.0911 66.1566 66.0911 65.877C66.0911 65.5787 66.01 65.348 65.8477 65.1848C65.69 65.017 65.4628 64.9332 65.166 64.9332C64.8924 64.9332 64.6512 65.0054 64.4425 65.1499C64.2339 65.2897 64.0739 65.4785 63.9626 65.7162C63.8513 65.9539 63.7956 66.2149 63.7956 66.4992C63.7956 66.7928 63.8768 67.0259 64.0391 67.1983C64.2014 67.3661 64.4333 67.45 64.7347 67.45Z" fill="white"></path><path d="M69.0396 68.7077C68.6439 68.7077 68.3243 68.6262 68.081 68.4632C67.8409 68.2969 67.7209 68.0556 67.7209 67.7393C67.7209 67.7132 67.7241 67.6676 67.7306 67.6024H68.7379C68.7282 67.7132 68.7509 67.7996 68.8061 67.8616C68.8612 67.9235 68.9456 67.9545 69.0591 67.9545C69.1532 67.9545 69.2278 67.9333 69.283 67.8909C69.3413 67.8485 69.3705 67.7882 69.3705 67.71C69.3705 67.6187 69.3284 67.5437 69.244 67.485C69.1629 67.4263 69.0299 67.3578 68.845 67.2796C68.6601 67.2013 68.5076 67.128 68.3876 67.0595C68.2675 66.9878 68.1637 66.8916 68.0761 66.7709C67.9885 66.647 67.9447 66.4938 67.9447 66.3112C67.9447 66.0732 68.0031 65.8694 68.1199 65.6998C68.2367 65.527 68.3989 65.3966 68.6066 65.3086C68.8174 65.2173 69.0575 65.1716 69.3268 65.1716C69.5701 65.1716 69.7858 65.2107 69.974 65.289C70.1621 65.364 70.3081 65.4732 70.4119 65.6167C70.519 65.7602 70.5725 65.9297 70.5725 66.1253C70.5725 66.1775 70.5709 66.2166 70.5676 66.2427H69.5409C69.5441 66.2264 69.5457 66.2036 69.5457 66.1742C69.5457 66.096 69.5214 66.0357 69.4727 65.9933C69.4241 65.9476 69.3576 65.9248 69.2732 65.9248C69.1856 65.9248 69.1143 65.9476 69.0591 65.9933C69.0072 66.0357 68.9812 66.096 68.9812 66.1742C68.9812 66.259 69.0218 66.3324 69.1029 66.3943C69.1872 66.453 69.317 66.5231 69.4922 66.6046C69.6804 66.6927 69.8345 66.7758 69.9545 66.8541C70.0778 66.9291 70.1832 67.0302 70.2708 67.1573C70.3584 67.2845 70.4022 67.441 70.4022 67.6268C70.4022 67.8322 70.347 68.0181 70.2367 68.1844C70.1264 68.3474 69.9691 68.4762 69.7647 68.5708C69.5603 68.6621 69.3186 68.7077 69.0396 68.7077Z" fill="white"></path><path fill-rule="evenodd" clip-rule="evenodd" d="M46.0441 17.6072C40.7667 17.6072 36.4885 21.907 36.4885 27.2112V34.5742C36.4885 39.8783 40.7667 44.1781 46.0441 44.1781H47.9552C53.2326 44.1781 57.5108 39.8783 57.5108 34.5742V27.2112C57.5108 21.907 53.2326 17.6072 47.9552 17.6072H46.0441ZM46.9997 23.6897C45.4164 23.6897 44.133 24.9797 44.133 26.5709V35.2145C44.133 36.8057 45.4164 38.0956 46.9997 38.0956C48.5829 38.0956 49.8663 36.8057 49.8663 35.2145V26.5709C49.8663 24.9797 48.5829 23.6897 46.9997 23.6897Z" fill="black"></path><path fill-rule="evenodd" clip-rule="evenodd" d="M69.6134 17.6072C64.336 17.6072 60.0578 21.907 60.0578 27.2112V34.5742C60.0578 39.8783 64.336 44.1781 69.6134 44.1781H71.5245C76.8019 44.1781 81.0801 39.8783 81.0801 34.5742V27.2112C81.0801 21.907 76.8019 17.6072 71.5245 17.6072H69.6134ZM70.569 23.6897C68.9857 23.6897 67.7023 24.9797 67.7023 26.5709V35.2145C67.7023 36.8057 68.9857 38.0956 70.569 38.0956C72.1522 38.0956 73.4356 36.8057 73.4356 35.2145V26.5709C73.4356 24.9797 72.1522 23.6897 70.569 23.6897Z" fill="black"></path><path d="M20.2409 22.7952L23.1075 22.7294V22.7162C25.4964 22.2492 26.6112 20.9016 26.6112 18.8878C26.6112 18.6696 26.6112 18.2475 26.6112 18.2475H32.9816V43.5379H25.3371V28.1716H20.2409V22.7952Z" fill="black"></path><path d="M15.7821 8.32347H29.4784V8.96373H15.7821V8.32347Z" fill="black"></path><path d="M71.5232 8.32347H85.2195V8.96373H71.5232V8.32347Z" fill="black"></path><path d="M33.2755 9.87398C33.7005 9.53933 34.0488 9.25092 34.3204 9.00873C34.5921 8.76655 34.8199 8.51777 35.0039 8.26237C35.1879 8.00258 35.2799 7.75599 35.2799 7.52262C35.2799 7.38171 35.247 7.27163 35.1813 7.19237C35.12 7.11311 35.028 7.07348 34.9053 7.07348C34.7783 7.07348 34.6797 7.12852 34.6096 7.23861C34.5395 7.34429 34.5066 7.5006 34.511 7.70756H33.2624C33.2755 7.31566 33.361 6.99202 33.5187 6.73663C33.6764 6.47684 33.8823 6.28749 34.1364 6.1686C34.3905 6.04531 34.6731 5.98366 34.9842 5.98366C35.5231 5.98366 35.9239 6.11797 36.1868 6.38657C36.4497 6.65517 36.5811 7.00303 36.5811 7.43015C36.5811 7.88809 36.4277 8.31742 36.1211 8.71812C35.8188 9.11882 35.4398 9.47769 34.9842 9.79472H36.6271V10.8449H33.2755V9.87398Z" fill="black"></path><path d="M37.0565 8.4275C37.0565 7.67013 37.2098 7.07348 37.5165 6.63756C37.8232 6.20163 38.3051 5.98366 38.9622 5.98366C39.6194 5.98366 40.1013 6.20163 40.408 6.63756C40.7191 7.07348 40.8746 7.67013 40.8746 8.4275C40.8746 9.19367 40.7213 9.79472 40.4146 10.2307C40.1079 10.6666 39.6238 10.8845 38.9622 10.8845C38.3007 10.8845 37.8166 10.6666 37.5099 10.2307C37.2076 9.79472 37.0565 9.19367 37.0565 8.4275ZM39.5997 8.4275C39.5997 8.0312 39.5581 7.72957 39.4748 7.52262C39.3916 7.31126 39.2207 7.20558 38.9622 7.20558C38.7038 7.20558 38.5329 7.31126 38.4496 7.52262C38.3664 7.72957 38.3248 8.0312 38.3248 8.4275C38.3248 8.8326 38.3642 9.14083 38.4431 9.35219C38.5263 9.55915 38.6994 9.66263 38.9622 9.66263C39.2251 9.66263 39.396 9.55915 39.4748 9.35219C39.5581 9.14083 39.5997 8.8326 39.5997 8.4275Z" fill="black"></path><path d="M41.3361 9.87398C41.7611 9.53933 42.1094 9.25092 42.381 9.00873C42.6526 8.76655 42.8804 8.51777 43.0644 8.26237C43.2485 8.00258 43.3405 7.75599 43.3405 7.52262C43.3405 7.38171 43.3076 7.27163 43.2419 7.19237C43.1805 7.11311 43.0885 7.07348 42.9659 7.07348C42.8388 7.07348 42.7402 7.12852 42.6701 7.23861C42.6 7.34429 42.5672 7.5006 42.5716 7.70756H41.323C41.3361 7.31566 41.4215 6.99202 41.5793 6.73663C41.737 6.47684 41.9429 6.28749 42.197 6.1686C42.4511 6.04531 42.7337 5.98366 43.0447 5.98366C43.5836 5.98366 43.9845 6.11797 44.2473 6.38657C44.5102 6.65517 44.6416 7.00303 44.6416 7.43015C44.6416 7.88809 44.4883 8.31742 44.1816 8.71812C43.8793 9.11882 43.5004 9.47769 43.0447 9.79472H44.6876V10.8449H41.3361V9.87398Z" fill="black"></path><path d="M45.0776 9.87398C45.5026 9.53933 45.8508 9.25092 46.1225 9.00873C46.3941 8.76655 46.6219 8.51777 46.8059 8.26237C46.9899 8.00258 47.0819 7.75599 47.0819 7.52262C47.0819 7.38171 47.0491 7.27163 46.9834 7.19237C46.922 7.11311 46.83 7.07348 46.7074 7.07348C46.5803 7.07348 46.4817 7.12852 46.4116 7.23861C46.3415 7.34429 46.3087 7.5006 46.3131 7.70756H45.0644C45.0776 7.31566 45.163 6.99202 45.3207 6.73663C45.4785 6.47684 45.6844 6.28749 45.9385 6.1686C46.1926 6.04531 46.4752 5.98366 46.7862 5.98366C47.3251 5.98366 47.726 6.11797 47.9888 6.38657C48.2517 6.65517 48.3831 7.00303 48.3831 7.43015C48.3831 7.88809 48.2298 8.31742 47.9231 8.71812C47.6208 9.11882 47.2419 9.47769 46.7862 9.79472H48.4291V10.8449H45.0776V9.87398Z" fill="black"></path><path d="M52.0908 9.57665C51.863 9.57665 51.679 9.515 51.5388 9.39171C51.403 9.26401 51.3351 9.10329 51.3351 8.90955C51.3351 8.7158 51.403 8.55508 51.5388 8.42739C51.679 8.29969 51.863 8.23584 52.0908 8.23584C52.3143 8.23584 52.4939 8.29969 52.6297 8.42739C52.7699 8.55508 52.84 8.7158 52.84 8.90955C52.84 9.09889 52.7699 9.25741 52.6297 9.3851C52.4939 9.5128 52.3143 9.57665 52.0908 9.57665Z" fill="black"></path><path d="M58.7846 6.22794V7.25831H57.5492V10.8844H56.2611V7.25831H55.0388V6.22794H58.7846Z" fill="black"></path><path d="M61.4824 10.9307C61.0487 10.9307 60.65 10.8294 60.2864 10.6268C59.9227 10.4199 59.6336 10.1359 59.4189 9.7748C59.2086 9.40932 59.1035 8.99761 59.1035 8.53967C59.1035 8.08173 59.2086 7.67222 59.4189 7.31115C59.6336 6.94567 59.9227 6.66166 60.2864 6.45911C60.65 6.25656 61.0487 6.15528 61.4824 6.15528C61.9205 6.15528 62.3192 6.25656 62.6785 6.45911C63.0421 6.66166 63.3291 6.94567 63.5393 7.31115C63.7496 7.67222 63.8548 8.08173 63.8548 8.53967C63.8548 8.99761 63.7496 9.40932 63.5393 9.7748C63.3291 10.1359 63.0421 10.4199 62.6785 10.6268C62.3148 10.8294 61.9161 10.9307 61.4824 10.9307ZM61.4824 9.72856C61.811 9.72856 62.0695 9.62068 62.2579 9.40492C62.4506 9.18916 62.547 8.90074 62.547 8.53967C62.547 8.16979 62.4506 7.87918 62.2579 7.66782C62.0695 7.45205 61.811 7.34417 61.4824 7.34417C61.1494 7.34417 60.8888 7.45205 60.7004 7.66782C60.512 7.87918 60.4178 8.16979 60.4178 8.53967C60.4178 8.90514 60.512 9.19576 60.7004 9.41152C60.8888 9.62288 61.1494 9.72856 61.4824 9.72856Z" fill="black"></path><path d="M68.0942 7.7801C68.0942 8.06191 68.0285 8.31951 67.8971 8.55288C67.77 8.78185 67.5751 8.96679 67.3122 9.1077C67.0537 9.2442 66.7361 9.31245 66.3593 9.31245H65.7219V10.8844H64.4338V6.22794H66.3593C66.7317 6.22794 67.0471 6.29399 67.3056 6.42609C67.5685 6.55818 67.7656 6.74092 67.8971 6.9743C68.0285 7.20767 68.0942 7.47627 68.0942 7.7801ZM66.2344 8.28208C66.5981 8.28208 66.7799 8.11475 66.7799 7.7801C66.7799 7.44105 66.5981 7.27152 66.2344 7.27152H65.7219V8.28208H66.2344Z" fill="black"></path><path d="M40.9473 80.6733V85.083H42.3907V83.5266L43.4804 84.4201L44.5605 83.5266V85.083H45.851V80.6733L43.3752 82.6331L40.9473 80.6733Z" fill="black"></path><path fill-rule="evenodd" clip-rule="evenodd" d="M48.1853 81.4994C47.198 81.4994 46.3978 82.3037 46.3978 83.2959V83.4881C46.3978 84.4802 47.198 85.2846 48.1853 85.2846C49.1725 85.2846 49.9728 84.4802 49.9728 83.4881V83.2959C49.9728 82.3037 49.1725 81.4994 48.1853 81.4994ZM48.1853 82.7291C47.9266 82.7291 47.7169 82.9398 47.7169 83.1999V83.4881C47.7169 83.7481 47.9266 83.9588 48.1853 83.9588C48.444 83.9588 48.6537 83.7481 48.6537 83.4881V83.1999C48.6537 82.9398 48.444 82.7291 48.1853 82.7291Z" fill="black"></path><path fill-rule="evenodd" clip-rule="evenodd" d="M50.3147 82.9597C50.3147 82.1319 50.9824 81.4609 51.8059 81.4609C52.1697 81.4609 52.503 81.5918 52.7618 81.8093V81.5378H54.0236L53.9949 85.1597C53.9949 86.5124 52.4719 86.7353 51.7103 86.6584V85.4671C52.1118 85.4671 52.7618 85.5248 52.7618 85.0637V84.6096C52.503 84.8271 52.1697 84.958 51.8059 84.958C50.9824 84.958 50.3147 84.287 50.3147 83.4592V82.9597ZM52.7618 83.3632V83.075C52.7618 82.8203 52.5564 82.6138 52.303 82.6138C52.0495 82.6138 51.8442 82.8203 51.8442 83.075V83.3632C51.8442 83.6178 52.0495 83.8243 52.303 83.8243C52.5564 83.8243 52.7618 83.6178 52.7618 83.3632Z" fill="black"></path><path d="M55.8606 81.4994H54.5606V84.1318C54.5606 84.7562 54.7996 85.0925 55.3731 85.1309H55.8606C56.1872 85.1016 56.4145 84.9563 56.5679 84.8691V85.1309H57.8679V81.4994H56.5679V83.7763C56.5679 84.1442 55.8797 84.1634 55.8797 83.7763L55.8606 81.4994Z" fill="black"></path><path d="M58.3823 80.6733H59.7397V85.131H58.3823V80.6733Z" fill="black"></path><defs><linearGradient id="paint0_linear_7351_52076" x1="109.558" y1="106.207" x2="10.7037" y2="0.74069" gradientUnits="userSpaceOnUse"><stop offset="0.0435095" stop-color="white"></stop><stop offset="0.838998" stop-color="white" stop-opacity="0"></stop></linearGradient></defs></svg>