<svg width="83" height="28" viewBox="0 0 83 28" fill="none" xmlns="http://www.w3.org/2000/svg">
<path d="M3.36062 27.6858C2.80227 27.5436 2.28352 27.2764 1.84349 26.9045C1.4259 26.5354 1.10939 26.0659 0.923934 25.5404C0.704397 24.8912 0.600749 24.2083 0.617724 23.5232C0.617724 23.3759 0.624219 23.208 0.63721 23.0193C0.650201 22.8306 0.673399 22.6296 0.706803 22.4162C0.73959 22.2052 0.772685 21.9909 0.80609 21.7731C0.839494 21.5554 0.875683 21.3608 0.914655 21.1895L2.63778 12.5831H0.498952C0.427251 12.5889 0.355247 12.5765 0.289574 12.5472C0.2239 12.5178 0.166668 12.4724 0.123149 12.4152C0.0252563 12.2155 -0.0155273 11.9926 0.00530414 11.7712C0.0104752 11.4756 0.0337163 11.1806 0.0748973 10.8878C0.120159 10.5268 0.195583 10.1701 0.300379 9.82165C0.391927 9.50207 0.532138 9.19849 0.716082 8.92158C0.777691 8.81155 0.866541 8.7192 0.974108 8.6534C1.08167 8.58759 1.20435 8.55053 1.33036 8.54577H3.4497L4.24121 4.60958C4.26811 4.47564 4.33246 4.35209 4.42679 4.25327C4.55719 4.13094 4.71453 4.04098 4.88611 3.99067C5.14293 3.90739 5.40854 3.85415 5.67761 3.832C6.00114 3.79921 6.40726 3.78282 6.89596 3.78282C7.29244 3.77937 7.68884 3.79579 8.08368 3.832C8.33551 3.84993 8.58355 3.90335 8.82044 3.99067C8.96226 4.03935 9.08418 4.13323 9.16748 4.25791C9.22715 4.36658 9.24466 4.49344 9.21666 4.61422L8.42422 8.5467H12.2463C12.3354 8.53636 12.4255 8.55164 12.5062 8.59076C12.587 8.62988 12.6548 8.69121 12.7019 8.76754C12.792 8.96581 12.8327 9.18294 12.8207 9.40038C12.8177 9.56899 12.8044 9.73726 12.7808 9.90423C12.7542 10.109 12.718 10.3298 12.6722 10.5668C12.6257 10.808 12.5637 11.0461 12.4866 11.2794C12.4143 11.5 12.3249 11.7147 12.2194 11.9215C12.1325 12.0962 12.0192 12.2564 11.8835 12.3966C11.8318 12.4534 11.7691 12.4991 11.6993 12.531C11.6294 12.5629 11.5538 12.5803 11.477 12.5822H7.60952L5.94392 20.8703C5.90433 21.0664 5.86814 21.3005 5.83536 21.5727C5.80605 21.7924 5.78963 22.0136 5.78618 22.2352C5.76773 22.4434 5.79151 22.6533 5.85608 22.8521C5.92066 23.0509 6.0247 23.2347 6.16198 23.3923C6.49465 23.6663 6.92118 23.7995 7.35063 23.7635C7.6223 23.7673 7.89366 23.744 8.1607 23.6939C8.35905 23.6548 8.5544 23.6018 8.74528 23.5352C8.91045 23.4734 9.05242 23.4205 9.17119 23.3765C9.2779 23.3328 9.39179 23.3092 9.50709 23.307C9.56035 23.3076 9.61262 23.3214 9.65925 23.3471C9.70587 23.3729 9.74541 23.4098 9.77433 23.4545C9.85896 23.6015 9.89683 23.7707 9.8829 23.9398C9.87952 24.2251 9.85283 24.5097 9.8031 24.7907C9.75165 25.1013 9.68225 25.4086 9.59524 25.7112C9.51672 25.9869 9.42095 26.2575 9.30852 26.5212C9.23062 26.7214 9.11678 26.9057 8.97262 27.065C8.81566 27.208 8.63432 27.3218 8.43721 27.4009C8.16545 27.5184 7.88381 27.6115 7.5956 27.6793C7.25271 27.761 6.90541 27.8229 6.55541 27.8648C6.18882 27.9108 5.81974 27.934 5.45027 27.9344C4.74581 27.945 4.04309 27.8617 3.36062 27.6867V27.6858ZM24.3314 27.6162C24.0756 27.6027 23.8227 27.5562 23.5788 27.4779C23.4261 27.4292 23.2893 27.3405 23.1826 27.2209C23.0924 27.1044 23.029 26.9694 22.997 26.8256L18.8214 17.527L16.9536 26.8655C16.9146 26.9965 16.8431 27.1156 16.7457 27.2116C16.6151 27.3284 16.4591 27.4132 16.2901 27.4593C16.0283 27.5359 15.7594 27.5854 15.4875 27.6069C15.1571 27.6397 14.755 27.6561 14.2812 27.6561C13.8813 27.66 13.4815 27.6435 13.0833 27.6069C12.838 27.587 12.5957 27.5406 12.3604 27.4686C12.2215 27.433 12.0992 27.3504 12.0143 27.2348C11.954 27.1301 11.9364 27.0061 11.9651 26.8887L17.1883 0.854335C17.215 0.721833 17.2765 0.598835 17.3665 0.498018C17.4929 0.371753 17.6494 0.27978 17.8212 0.23078C18.0822 0.146712 18.3511 0.0895034 18.6238 0.0600445C19.0293 0.0161505 19.4371 -0.00367962 19.8449 0.000658272C20.2451 -0.00397537 20.6451 0.015857 21.0429 0.0600445C21.2901 0.0845209 21.533 0.140976 21.7657 0.227996C21.9055 0.274943 22.0244 0.369531 22.1016 0.495234C22.155 0.606017 22.1691 0.731696 22.1415 0.851551L19.0516 16.3402L25.6666 9.27418C25.7918 9.12236 25.9348 8.98621 26.0925 8.86869C26.2696 8.74494 26.4677 8.65439 26.6771 8.60145C26.9592 8.52843 27.2475 8.48213 27.5382 8.46319C27.8747 8.43659 28.2942 8.42329 28.7965 8.42329C29.287 8.42329 29.6962 8.43659 30.0241 8.46319C30.2854 8.47792 30.5442 8.52117 30.7961 8.59217C30.9439 8.6279 31.0783 8.70555 31.183 8.81579C31.2545 8.90568 31.2928 9.0174 31.2916 9.13221C31.2726 9.39955 31.1802 9.65645 31.0244 9.87454C30.7633 10.26 30.4676 10.6209 30.141 10.9528L23.9027 16.8274L27.9623 25.3335C28.0789 25.6033 28.1721 25.8828 28.2407 26.1686C28.2862 26.351 28.3129 26.5375 28.3204 26.7254C28.3231 26.8739 28.2779 27.0193 28.1915 27.1401C28.0771 27.2777 27.9258 27.3797 27.7554 27.4343C27.4857 27.527 27.2048 27.5835 26.9202 27.6022C26.5701 27.635 26.1312 27.6514 25.6035 27.6514C25.0759 27.6514 24.6506 27.6403 24.3277 27.618L24.3314 27.6162Z" fill="#0755E9"/>
<path d="M49.37 27.5967C48.5022 27.3726 47.6942 26.9608 47.0029 26.3904C46.3588 25.8345 45.8681 25.1227 45.5776 24.323C45.2405 23.3664 45.0792 22.3566 45.1016 21.3425C45.1075 20.3913 45.1903 19.442 45.3494 18.5041C45.5175 17.4843 45.7863 16.4838 46.152 15.5171C46.5243 14.5289 47.0021 13.5838 47.5773 12.6981C48.1532 11.8072 48.8634 11.0106 49.6827 10.3366C50.5414 9.63848 51.5096 9.087 52.5481 8.70442C53.7357 8.27811 54.9907 8.07062 56.2523 8.09201C57.3013 8.07027 58.3471 8.21368 59.3515 8.51699C60.1286 8.75168 60.8532 9.13382 61.4857 9.64254C62.0137 10.0772 62.4366 10.6257 62.7226 11.2469C62.9891 11.8271 63.1277 12.4578 63.129 13.0962C63.1426 13.9919 62.9205 14.8754 62.4851 15.6582C61.9991 16.4733 61.3097 17.1483 60.4845 17.617C59.4144 18.2262 58.2493 18.6509 57.0382 18.8734C55.3969 19.1862 53.728 19.332 52.0572 19.3086H50.232C50.1788 19.6123 50.1392 19.9123 50.1133 20.2086C50.0873 20.505 50.074 20.7784 50.0734 21.0289C50.0411 21.4667 50.0985 21.9065 50.2421 22.3213C50.3857 22.7362 50.6124 23.1173 50.9085 23.4415C51.661 24.0483 52.62 24.3388 53.5827 24.2515C54.3692 24.2595 55.1548 24.1974 55.9303 24.066C56.5445 23.9591 57.1528 23.8207 57.7527 23.6512C58.2742 23.4996 58.7072 23.3614 59.0518 23.2364C59.2916 23.1362 59.5454 23.0736 59.8043 23.0508C59.8674 23.0445 59.931 23.0539 59.9896 23.078C60.0482 23.1021 60.0999 23.1402 60.1402 23.1891C60.2163 23.3209 60.2509 23.4725 60.2395 23.6243C60.237 23.8823 60.2172 24.14 60.1801 24.3954C60.1403 24.6851 60.0839 24.9723 60.0113 25.2555C59.9415 25.5308 59.8484 25.7997 59.7329 26.0591C59.6447 26.2746 59.5133 26.4697 59.3469 26.6326C59.0905 26.8466 58.7944 27.008 58.4756 27.1076C57.9777 27.2877 57.468 27.4331 56.9501 27.5428C56.2892 27.6855 55.6215 27.7945 54.9495 27.8695C54.1998 27.9559 53.4457 27.9989 52.691 27.9984C51.5717 28.0162 50.4552 27.8823 49.3719 27.6004L49.37 27.5967ZM54.0235 11.9883C53.5114 12.2201 53.0465 12.5445 52.652 12.945C52.2423 13.3659 51.8982 13.846 51.6313 14.3693C51.3432 14.9275 51.1143 15.5144 50.9484 16.1203H52.6121C53.5013 16.134 54.3898 16.0644 55.2659 15.9124C55.8654 15.8119 56.4462 15.6217 56.9891 15.3483C57.3744 15.1564 57.7025 14.8665 57.9402 14.5076C58.134 14.1961 58.236 13.8361 58.2343 13.4692C58.2379 13.2169 58.1834 12.9671 58.0751 12.7391C57.9668 12.5112 57.8077 12.3111 57.6098 12.1544C57.0865 11.7714 56.4446 11.5857 55.7976 11.6301C55.1886 11.6207 54.5847 11.7429 54.0272 11.9883H54.0235ZM64.7547 27.6069C64.5086 27.5879 64.2658 27.5384 64.0319 27.4593C63.8921 27.4172 63.7701 27.3301 63.6849 27.2116C63.6245 27.1068 63.6069 26.9829 63.6357 26.8655L68.845 0.851531C68.8716 0.719015 68.9331 0.596005 69.0231 0.495214C69.1498 0.368814 69.3066 0.276832 69.4787 0.227976C69.7402 0.144791 70.0094 0.0885152 70.2823 0.0600245C70.6863 0.0163112 71.0925 -0.00351872 71.4988 0.000638355C71.8983 -0.00391737 72.2977 0.0159149 72.6949 0.0600245C72.9424 0.0844218 73.1857 0.140878 73.4186 0.227976C73.5585 0.274852 73.6774 0.369458 73.7545 0.495214C73.808 0.605977 73.8221 0.731681 73.7944 0.851531L68.6074 26.8655C68.5817 26.9969 68.5171 27.1175 68.4218 27.2116C68.2942 27.327 68.1419 27.4118 67.9764 27.4593C67.7186 27.5366 67.4533 27.5861 67.1849 27.6069C66.8546 27.6396 66.4525 27.656 65.9786 27.656C65.5701 27.6604 65.1616 27.644 64.7547 27.6069ZM39.3616 27.6171C39.1129 27.6023 38.8664 27.5626 38.6257 27.4983C38.4878 27.4675 38.365 27.3893 38.2787 27.2775C38.2172 27.1805 38.1735 27.0733 38.1497 26.961L36.0155 20.732L31.5412 26.9833C31.4664 27.0973 31.3765 27.2006 31.2739 27.2904C31.1272 27.3974 30.9575 27.4686 30.7784 27.4983C30.478 27.5602 30.1734 27.5999 29.8672 27.6171C29.4911 27.643 28.986 27.6564 28.3519 27.657C27.7841 27.657 27.3285 27.6406 26.9851 27.6078C26.7254 27.5959 26.4701 27.5355 26.2326 27.4296C26.1652 27.4054 26.1078 27.3594 26.0695 27.2989C26.0312 27.2384 26.0141 27.1669 26.021 27.0956C26.0661 26.8995 26.1504 26.7145 26.2688 26.5518L32.9868 17.7692L30.0342 9.6147C29.961 9.42942 29.9336 9.22919 29.9544 9.03105C29.9715 8.94883 30.0084 8.87203 30.0619 8.80734C30.1155 8.74265 30.184 8.69203 30.2616 8.65989C30.5263 8.54756 30.8093 8.48466 31.0967 8.4743C31.4728 8.44152 31.9714 8.42513 32.5925 8.42513C33.1325 8.42513 33.5581 8.43502 33.8693 8.45482C34.1092 8.46658 34.3479 8.49761 34.5828 8.54761C34.7135 8.567 34.8328 8.63289 34.9188 8.73319C34.9844 8.8335 35.0342 8.94336 35.0663 9.05889L37.1272 14.9539L41.3854 9.05889C41.4609 8.95691 41.5474 8.86356 41.6433 8.78051C41.7727 8.68396 41.9215 8.61654 42.0794 8.58287C42.3329 8.52147 42.5912 8.48174 42.8514 8.4641C43.1682 8.4375 43.5972 8.4242 44.1385 8.4242C44.7453 8.4242 45.2306 8.4375 45.5943 8.4641C45.8689 8.4719 46.1401 8.52553 46.397 8.62277C46.5683 8.70195 46.6441 8.81052 46.6243 8.94847C46.5716 9.15538 46.4736 9.34804 46.3376 9.51263L40.1939 17.7237L43.3627 26.5064C43.4266 26.6848 43.4404 26.8774 43.4026 27.0631C43.3717 27.1467 43.3223 27.2222 43.258 27.2839C43.1937 27.3456 43.1162 27.392 43.0315 27.4194C42.7489 27.5285 42.4506 27.5911 42.1481 27.605C41.7652 27.6378 41.2703 27.6542 40.6634 27.6542C40.1116 27.6542 39.6786 27.6409 39.3644 27.6143L39.3616 27.6171Z" fill="#0755E9"/>
<path d="M80.6522 4.25953H80.2903L79.8588 3.53948C79.8237 3.47879 79.7847 3.42052 79.7419 3.36503C79.7088 3.32178 79.6705 3.28282 79.6277 3.24904C79.59 3.21962 79.5473 3.1973 79.5015 3.18316C79.4524 3.16888 79.4014 3.162 79.3503 3.16274H79.1063V4.25953H78.8047V1.68366H79.5711C79.6765 1.68252 79.7815 1.69659 79.8829 1.72541C79.9734 1.75127 80.0576 1.79514 80.1307 1.85439C80.2015 1.91254 80.258 1.98619 80.2958 2.06967C80.3372 2.16439 80.3575 2.26697 80.3552 2.37031C80.3561 2.45464 80.3423 2.53848 80.3144 2.61806C80.2883 2.69121 80.2494 2.7591 80.1993 2.81849C80.148 2.8774 80.0872 2.92727 80.0193 2.96603C79.9451 3.00778 79.8655 3.03901 79.7827 3.05882V3.06624C79.8226 3.08363 79.8603 3.10575 79.895 3.13212C79.9288 3.15792 79.9599 3.18715 79.9878 3.21935C80.0186 3.2556 80.0471 3.29371 80.0731 3.33348C80.101 3.37616 80.1319 3.42534 80.1659 3.48102L80.6522 4.25953ZM79.1063 1.95553V2.88994H79.5164C79.5877 2.89091 79.6586 2.87961 79.7261 2.85653C79.7874 2.83548 79.8439 2.80235 79.8922 2.7591C79.9397 2.71546 79.9771 2.66193 80.0017 2.60229C80.029 2.53644 80.0426 2.46571 80.0416 2.39444C80.0449 2.33404 80.0347 2.27366 80.0115 2.21777C79.9884 2.16188 79.953 2.1119 79.908 2.07152C79.7973 1.98736 79.6598 1.94616 79.521 1.95553H79.1063Z" fill="#0755E9"/>
<path d="M79.5851 0.736398C79.1388 0.736398 78.7026 0.868766 78.3315 1.11675C77.9605 1.36474 77.6714 1.71721 77.5008 2.12955C77.3301 2.5419 77.2856 2.9956 77.3729 3.43324C77.4601 3.87089 77.6752 4.27282 77.991 4.58818C78.3067 4.90354 78.7089 5.11816 79.1467 5.20489C79.5845 5.29161 80.0381 5.24654 80.4502 5.07538C80.8624 4.90422 81.2145 4.61467 81.462 4.24334C81.7095 3.87202 81.8414 3.43562 81.8408 2.98936C81.8393 2.39181 81.6011 1.81919 81.1783 1.39692C80.7555 0.974645 80.1826 0.737133 79.5851 0.736398ZM79.5851 0.365234C80.1041 0.365234 80.6114 0.519137 81.043 0.807479C81.4745 1.09582 81.8108 1.50565 82.0094 1.98515C82.2081 2.46465 82.26 2.99227 82.1588 3.5013C82.0575 4.01033 81.8076 4.47791 81.4406 4.8449C81.0736 5.21189 80.606 5.46181 80.097 5.56307C79.588 5.66432 79.0604 5.61235 78.5809 5.41374C78.1014 5.21512 77.6915 4.87878 77.4032 4.44725C77.1148 4.01571 76.9609 3.50836 76.9609 2.98936C76.9609 2.2934 77.2374 1.62594 77.7295 1.13382C78.2216 0.641704 78.8891 0.365234 79.5851 0.365234V0.365234Z" fill="#0755E9"/>
</svg>
